<svg xmlns="http://www.w3.org/2000/svg" viewBox="0 0 224.225 312.808"><g style="display:inline"><g style="display:inline" transform="translate(-6257.43 2747.31)"><rect width="223.228" height="311.811" x="6257.929" y="-2746.811" rx="10.63" ry="10.63" style="display:inline;fill:#fff;fill-opacity:1;stroke:#000;stroke-width:.99673343;stroke-miterlimit:4;stroke-dasharray:none;stroke-opacity:1"/></g><path d="m1947.701-2492.42.548-6.705c1.692-20.724 6.226-27.723 31.96-49.343 12.488-10.492 16.588-15.67 17.165-21.678 1.63-14.15-11.131-18.57-19.448-18.647-10.769-.099-22.95 6.35-17.143 21.305l-12.079 3.547c-2.439-13.951.056-27.044 11.378-32.859 15.1-7.572 34.478-4.6 44.255 7.33 6.57 8.02 8.064 19.087 4.543 27.754-10.299 22.16-45.243 31.909-48.132 57.528h38.634v-14.266h11.379v26.264zm686.265 725.888-.547 6.705c-1.692 20.723-6.226 27.723-31.96 49.343-12.488 10.491-16.588 15.669-17.165 21.677-1.63 14.15 11.13 18.57 19.447 18.647 10.77.099 22.951-6.35 17.143-21.304l12.08-3.548c2.438 13.952-.057 27.045-11.378 32.859-15.101 7.572-34.478 4.601-44.255-7.33-6.57-8.019-8.065-19.086-4.543-27.754 10.299-22.16 45.243-31.908 48.132-57.528h-38.634v14.267h-11.379v-26.264z" style="display:inline;fill:#000;fill-opacity:1" transform="translate(-577.707 797.508)scale(.30106)"/><path d="M414.935-480.903c2.879-5.775 4.976-11.7 5.348-18.037.342-2.332-1.075-2.37-1.288-.729-4.076 15.593-25.763 11.37-25.017-3.296.605-11.895 12.42-14.454 18.582-10.565 2.434 1.433 2.296.575.968-.912-9.155-10.211-3.61-23.361 8.761-23.602 13.38.793 16.851 14.87 8.644 23.148-1.02.995-3.283 4.192.123 1.957 8.287-5.888 19.788.442 19.553 9.52-.433 16.74-20.839 17.988-25.203 4.006-.42-1.55-1.63-2.328-1.295.304.605 4.767 1.856 11.954 5.437 18.206zm14.702 141.667c-2.879 5.776-4.976 11.701-5.348 18.037-.342 2.332 1.075 2.371 1.288.729 4.076-15.593 25.763-11.37 25.017 3.296-.605 11.895-12.42 14.454-18.582 10.565-2.434-1.433-2.296-.575-.968.912 9.155 10.211 3.61 23.361-8.761 23.602-13.38-.793-16.851-14.87-8.644-23.148 1.02-.995 3.283-4.191-.123-1.956-8.287 5.888-19.788-.443-19.553-9.521.433-16.74 20.839-17.987 25.203-4.006.42 1.55 1.63 2.329 1.295-.304-.605-4.767-1.856-11.954-5.437-18.206zM324.415-491.527c1.192-2.445 2.352-4.72 2.984-7.4.42-2.528-.438-1.59-.925.067-.721 2.298-2.723 3.344-4.58 3.37-3.371.045-5.053-2.605-4.948-5.455-.368-2.998 2.67-5.12 4.962-4.956 1.722.123 3.224 1.052 4.132 1.775.597.315 1.234.454.345-.359-1.677-1.833-3.076-2.964-3.046-5.71.03-2.58 2.234-5.269 5.156-5.184 3.651.105 5.312 2.89 5.303 5.48-.01 1.889-.954 3.626-2.411 4.703-.945.766-.68 1.34.397.615 1.035-.892 2.267-1.283 3.545-1.31 3.49-.055 4.855 2.961 4.655 5.764-.187 2.626-2.423 5.328-5.369 5.022-2.63-.301-4.013-2.51-4.805-4.777-.262-.695-.676-.882-.664.153.607 5.058 2.491 8.205 2.505 8.202zM520.228-329.11c-1.192 2.445-2.352 4.721-2.984 7.401-.42 2.528.438 1.589.925-.068.721-2.297 2.722-3.344 4.58-3.369 3.37-.045 5.053 2.604 4.948 5.454.368 2.999-2.671 5.12-4.962 4.957-1.722-.123-3.224-1.052-4.133-1.775-.596-.316-1.234-.455-.345.358 1.678 1.833 3.077 2.964 3.046 5.71-.029 2.58-2.233 5.269-5.155 5.185-3.652-.106-5.312-2.89-5.303-5.48.01-1.89.953-3.627 2.41-4.704.945-.766.68-1.34-.397-.614-1.035.892-2.267 1.282-3.545 1.31-3.49.054-4.855-2.962-4.655-5.765.188-2.625 2.423-5.328 5.37-5.022 2.63.302 4.012 2.51 4.804 4.777.263.695.676.883.665-.153-.608-5.058-2.492-8.205-2.505-8.202z" style="display:inline;fill:#000;fill-opacity:1" transform="translate(-310.209 566.684)"/></g></svg>