<svg xmlns="http://www.w3.org/2000/svg" viewBox="0 0 224.225 312.808"><g style="display:inline" transform="translate(-6257.43 2747.31)"><rect width="223.228" height="311.811" x="6257.929" y="-2746.811" rx="10.63" ry="10.63" style="display:inline;fill:#fff;fill-opacity:1;stroke:#000;stroke-width:.99673343;stroke-miterlimit:4;stroke-dasharray:none;stroke-opacity:1"/><g style="fill:#d40000;fill-opacity:1"><path d="M2217.342-2458.171c32.952-32.158 54.593-67.22 75.29-100.94 18.15 37.103 44.197 69.562 72.365 100.94-30.138 31.118-53.495 64.393-72.275 99.374-20.818-35.859-42.735-68.33-75.38-99.374m0 660.355c32.952-32.158 54.593-67.22 75.29-100.939 18.15 37.102 44.197 69.561 72.365 100.94-30.138 31.118-53.495 64.392-72.275 99.373-20.818-35.858-42.735-68.33-75.38-99.374m355.471-22.109c13.499-13.173 22.364-27.536 30.842-41.35 7.435 15.2 18.105 28.496 29.644 41.35-12.346 12.747-21.914 26.378-29.607 40.708-8.528-14.69-17.506-27.991-30.88-40.708m-623.538-618.715c13.499-13.173 22.364-27.536 30.842-41.349 7.435 15.199 18.105 28.495 29.644 41.35-12.346 12.747-21.914 26.377-29.607 40.707-8.528-14.69-17.506-27.991-30.879-40.708" style="fill:#d40000;fill-opacity:1" transform="translate(5679.86 -1949.801)scale(.30106)"/><path d="m1947.701-2492.42.548-6.705c1.692-20.724 6.226-27.723 31.96-49.343 12.488-10.492 16.588-15.67 17.165-21.678 1.63-14.15-11.131-18.57-19.448-18.647-10.769-.099-22.95 6.35-17.143 21.305l-12.079 3.547c-2.439-13.951.056-27.044 11.378-32.859 15.1-7.572 34.478-4.6 44.255 7.33 6.57 8.02 8.064 19.087 4.543 27.754-10.299 22.16-45.243 31.909-48.132 57.528h38.634v-14.266h11.379v26.264zm686.265 725.888-.547 6.705c-1.692 20.723-6.226 27.723-31.96 49.343-12.488 10.491-16.588 15.669-17.165 21.677-1.63 14.15 11.13 18.57 19.447 18.647 10.77.099 22.951-6.35 17.143-21.304l12.08-3.548c2.438 13.952-.057 27.045-11.378 32.859-15.101 7.572-34.478 4.601-44.255-7.33-6.57-8.019-8.065-19.086-4.543-27.754 10.299-22.16 45.243-31.908 48.132-57.528h-38.634v14.267h-11.379v-26.264z" style="display:inline;fill:#d40000;fill-opacity:1" transform="translate(5679.86 -1949.801)scale(.30106)"/></g></g></svg>