<svg xmlns="http://www.w3.org/2000/svg" viewBox="0 0 224.225 312.808"><g style="display:inline"><rect width="223.228" height="311.811" x="6257.929" y="-2746.811" rx="10.63" ry="10.63" style="display:inline;fill:#fff;fill-opacity:1;stroke:#000;stroke-width:.99673343;stroke-miterlimit:4;stroke-dasharray:none;stroke-opacity:1" transform="translate(-6257.43 2747.31)"/><path d="M1583.27 232.357c-1.583-3.472-1.757-9.405 2.971-10.208 3.562-.458 5.012 1.199 5.3 3.742.142.743.562.789.695-.058.204-2.61 2.787-4.133 4.806-3.75 5.527.945 5.204 7.028 3.399 11.155-2.731 5.48-5.601 8.938-8.245 14.452-3.039-5.74-6.508-10.405-8.926-15.333m187.724 191.272c-1.583 3.472-1.757 9.405 2.97 10.208 3.563.458 5.013-1.198 5.3-3.742.143-.743.562-.788.696.058.204 2.61 2.787 4.133 4.806 3.75 5.526-.945 5.204-7.028 3.398-11.155-2.73-5.48-5.6-8.938-8.245-14.452-3.038 5.74-6.507 10.405-8.925 15.333" style="display:inline;fill:#d40000;fill-opacity:1" transform="translate(-1573.692 -171.627)"/><g style="display:inline"><path d="m1947.701-2492.42.548-6.705c1.692-20.724 6.226-27.723 31.96-49.343 12.488-10.492 16.588-15.67 17.165-21.678 1.63-14.15-11.131-18.57-19.448-18.647-10.769-.099-22.95 6.35-17.143 21.305l-12.079 3.547c-2.439-13.951.056-27.044 11.378-32.859 15.1-7.572 34.478-4.6 44.255 7.33 6.57 8.02 8.064 19.087 4.543 27.754-10.299 22.16-45.243 31.909-48.132 57.528h38.634v-14.266h11.379v26.264zm686.265 725.888-.547 6.705c-1.692 20.723-6.226 27.723-31.96 49.343-12.488 10.491-16.588 15.669-17.165 21.677-1.63 14.15 11.13 18.57 19.447 18.647 10.77.099 22.951-6.35 17.143-21.304l12.08-3.548c2.438 13.952-.057 27.045-11.378 32.859-15.101 7.572-34.478 4.601-44.255-7.33-6.57-8.019-8.065-19.086-4.543-27.754 10.299-22.16 45.243-31.908 48.132-57.528h-38.634v14.267h-11.379v-26.264z" style="display:inline;fill:#d40000;fill-opacity:1" transform="translate(-577.707 797.508)scale(.30106)"/></g><path d="M1673.72 200.091c7.143-.474 10.868 5.628 11.594 10.437.434.764.671.548.837-.042.35-6.175 5.875-11.22 10.993-10.53 8.328.108 13.39 9.375 11.966 17.218-1.738 9.582-6.9 15.351-10.807 21.293-4.422 6.153-10.373 15.04-12.29 19.317 0 0-6.049-9.204-13.918-20.03-5.262-7.238-9.473-15.082-9.865-21.835-.448-7.715 2.72-14.632 11.49-15.828m0 256.302c7.143.474 10.868-5.628 11.594-10.437.434-.764.671-.548.837.043.35 6.174 5.875 11.22 10.993 10.53 8.328-.109 13.39-9.376 11.966-17.219-1.738-9.582-6.9-15.351-10.807-21.293-4.422-6.152-10.373-15.04-12.29-19.317 0 0-6.049 9.205-13.918 20.03-5.262 7.238-9.473 15.082-9.865 21.835-.448 7.716 2.72 14.632 11.49 15.828" style="display:inline;fill:#d40000;fill-opacity:1" transform="translate(-1573.692 -171.627)"/></g></svg>