<svg xmlns="http://www.w3.org/2000/svg" viewBox="0 0 224.225 312.808"><g style="display:inline"><g style="display:inline" transform="translate(-6257.43 2747.31)"><rect width="223.228" height="311.811" x="6257.929" y="-2746.811" rx="10.63" ry="10.63" style="display:inline;fill:#fff;fill-opacity:1;stroke:#000;stroke-width:.99673343;stroke-miterlimit:4;stroke-dasharray:none;stroke-opacity:1"/><path d="m1947.701-2492.42.548-6.705c1.692-20.724 6.226-27.723 31.96-49.343 12.488-10.492 16.588-15.67 17.165-21.678 1.63-14.15-11.131-18.57-19.448-18.647-10.769-.099-22.95 6.35-17.143 21.305l-12.079 3.547c-2.439-13.951.056-27.044 11.378-32.859 15.1-7.572 34.478-4.6 44.255 7.33 6.57 8.02 8.064 19.087 4.543 27.754-10.299 22.16-45.243 31.909-48.132 57.528h38.634v-14.266h11.379v26.264zm686.265 725.888-.547 6.705c-1.692 20.723-6.226 27.723-31.96 49.343-12.488 10.491-16.588 15.669-17.165 21.677-1.63 14.15 11.13 18.57 19.447 18.647 10.77.099 22.951-6.35 17.143-21.304l12.08-3.548c2.438 13.952-.057 27.045-11.378 32.859-15.101 7.572-34.478 4.601-44.255-7.33-6.57-8.019-8.065-19.086-4.543-27.754 10.299-22.16 45.243-31.908 48.132-57.528h-38.634v14.267h-11.379v-26.264z" style="display:inline;fill:#000;fill-opacity:1" transform="translate(5679.86 -1949.801)scale(.30106)"/></g><path d="M1307.548 346.303c.015-2.025-1.587-2.064-1.569-.585-.134 7.428-6.416 11.086-10.98 10.218-7.037-1.337-9.282-8.322-9.215-12.435.207-12.696 12.988-22.059 24.52-38.335 8.45 14.691 22.397 26.23 23.223 37.586 1.098 15.098-18.009 20.73-20.737 3.133-.176-1.243-1.64-1.801-1.526-.065.414 4.822-.175 6.831 5.266 18.72h-14.222c3.15-5.556 5.025-12.375 5.24-18.237m.011 175.933c.015 2.025-1.587 2.064-1.57.585-.133-7.428-6.416-11.086-10.98-10.218-7.036 1.337-9.282 8.322-9.214 12.435.207 12.696 12.987 22.059 24.52 38.335 8.45-14.691 22.397-26.23 23.223-37.586 1.097-15.098-18.01-20.73-20.737-3.133-.176 1.243-1.64 1.801-1.526.065.414-4.822-.175-6.831 5.265-18.72h-14.221c3.15 5.556 5.025 12.375 5.24 18.237m-92.125-174.808c.01-.871-.895-.465-1.017-.19-1.164 1.985-2.865 2.447-4.548 1.732-1.668-.71-2.604-2.28-2.454-4.523.31-3.437 3.035-7.2 4.355-9.326a69 69 0 0 0 4.077-7.154c1.697 3.363 2.558 4.32 4.405 7.392 1.626 2.704 3.892 5.353 4.067 8.622 0 2.485-1.046 4.832-3.4 5.26-1.33.241-2.578-.442-3.503-2.038-.282-.406-.849-.194-.84.362.166 2.094.956 3.984 2.83 6.212h-6.887c1.41-1.576 2.849-3.704 2.915-6.349m187.724 173.16c.01.871-.895.464-1.017.19-1.164-1.986-2.865-2.448-4.548-1.732-1.668.71-2.605 2.28-2.454 4.522.31 3.438 3.035 7.2 4.355 9.326a69 69 0 0 1 4.076 7.155c1.698-3.364 2.559-4.321 4.406-7.392 1.625-2.704 3.892-5.353 4.067-8.622 0-2.485-1.046-4.832-3.4-5.26-1.33-.242-2.578.442-3.503 2.037-.282.407-.849.195-.84-.362.166-2.093.956-3.983 2.83-6.211h-6.887c1.41 1.576 2.849 3.703 2.915 6.349" style="display:inline;fill:#000;fill-opacity:1" transform="translate(-1196.478 -277.642)"/></g></svg>