<svg xmlns="http://www.w3.org/2000/svg" viewBox="0 0 224.225 312.808"><g style="display:inline"><g style="stroke:#000;stroke-opacity:1"><g style="display:inline;stroke:#000;stroke-opacity:1" transform="translate(-6480.66 2747.31)"><rect width="223.228" height="311.811" x="6481.158" y="-2746.811" rx="10.63" ry="10.63" style="display:inline;fill:#fff;fill-opacity:1;stroke:#000;stroke-width:.99673343;stroke-miterlimit:4;stroke-dasharray:none;stroke-opacity:1"/></g></g><path d="m2836.664-2519.89 8.46-6.112c7.354 11.737 15.563 19.474 28.119 18.143 18.845-1.267 26.648-20.66 22.703-35.284-3.809-13.103-19.417-19.496-31.815-12.499-2.923 1.65-6.305 3.688-6.305 3.688l-4.414-7.194 29.11-33.863h-31.59v14.015h-12.122v-25.127h61.746v8.528s-16.538 16.837-22.013 26.066c13.47.49 24.323 8.865 28.208 22.116 2.28 6.97 1.255 22.922-1.716 29.788-4.962 11.463-18.548 20.76-30.963 21.296-20.828 1.376-31.893-12.96-37.408-23.562m685.341 775.203-8.461 6.111c-7.354-11.737-15.562-19.474-28.118-18.143-18.845 1.267-26.649 20.66-22.704 35.285 3.81 13.103 19.417 19.495 31.815 12.498 2.924-1.65 6.306-3.375 6.306-3.375l5.226 6.756-29.922 33.989h31.59v-14.016h12.121v25.127h-61.746v-8.528s16.539-16.837 22.013-26.066c-13.469-.49-24.323-8.865-28.208-22.116-2.28-6.97-1.255-22.922 1.717-29.788 4.961-11.463 18.548-20.76 30.962-21.296 20.828-1.376 31.893 12.96 37.409 23.562" style="display:inline;fill:#000;fill-opacity:1" transform="translate(-856.861 806.067)scale(.30468)"/><path d="M1525.465 462.617c2.879-5.776 4.976-11.701 5.348-18.038.342-2.331-1.075-2.37-1.288-.728-4.077 15.592-25.763 11.37-25.017-3.297.605-11.895 12.42-14.454 18.582-10.564 2.434 1.432 2.296.574.968-.912-9.155-10.212-3.61-23.362 8.761-23.603 13.38.794 16.851 14.87 8.644 23.149-1.02.994-3.283 4.191.123 1.956 8.287-5.888 19.788.443 19.553 9.52-.433 16.74-20.839 17.988-25.203 4.007-.42-1.55-1.63-2.33-1.295.304.605 4.766 1.856 11.953 5.437 18.206zm-.064-98.422c2.88-5.776 4.976-11.701 5.348-18.038.342-2.331-1.074-2.37-1.288-.728-4.076 15.593-25.762 11.37-25.017-3.297.605-11.894 12.42-14.453 18.583-10.564 2.433 1.433 2.296.574.967-.912-9.154-10.211-3.61-23.362 8.762-23.602 13.38.793 16.85 14.87 8.644 23.148-1.02.995-3.284 4.191.123 1.956 8.287-5.888 19.787.443 19.553 9.521-.433 16.739-20.84 17.987-25.204 4.006-.42-1.55-1.629-2.329-1.295.304.605 4.767 1.857 11.953 5.438 18.206zm14.702 139.962c-2.879 5.775-4.976 11.7-5.348 18.037-.341 2.332 1.075 2.37 1.288.728 4.077-15.592 25.763-11.37 25.018 3.297-.605 11.895-12.42 14.454-18.583 10.564-2.433-1.432-2.296-.574-.968.912 9.155 10.212 3.61 23.362-8.76 23.603-13.38-.794-16.852-14.87-8.645-23.149 1.02-.994 3.283-4.19-.123-1.956-8.287 5.888-19.787-.443-19.553-9.52.433-16.74 20.84-17.988 25.203-4.006.42 1.55 1.63 2.328 1.295-.305-.604-4.766-1.856-11.953-5.437-18.205zm-104.531-150.925c1.192-2.445 2.352-4.72 2.985-7.4.419-2.528-.439-1.59-.926.067-.72 2.298-2.722 3.344-4.58 3.37-3.37.045-5.052-2.605-4.948-5.455-.368-2.998 2.671-5.12 4.962-4.956 1.722.123 3.224 1.052 4.133 1.775.596.315 1.234.454.345-.359-1.678-1.833-3.077-2.964-3.046-5.71.029-2.58 2.233-5.269 5.155-5.184 3.652.105 5.312 2.89 5.304 5.48-.01 1.889-.954 3.627-2.412 4.703-.944.766-.68 1.34.398.615 1.035-.892 2.267-1.283 3.545-1.31 3.49-.055 4.855 2.961 4.655 5.764-.188 2.626-2.423 5.328-5.37 5.022-2.63-.301-4.012-2.51-4.804-4.777-.263-.695-.676-.882-.665.153.608 5.058 2.492 8.205 2.506 8.202zm195.076 162.358c-1.192 2.445-2.352 4.72-2.984 7.4-.42 2.528.438 1.59.925-.068.721-2.297 2.723-3.343 4.58-3.369 3.371-.045 5.053 2.605 4.948 5.454.368 2.999-2.67 5.12-4.962 4.957-1.722-.123-3.224-1.052-4.133-1.775-.596-.315-1.234-.455-.344.358 1.677 1.833 3.076 2.965 3.046 5.711-.03 2.579-2.234 5.268-5.156 5.184-3.651-.105-5.312-2.89-5.303-5.48.01-1.889.953-3.627 2.411-4.703.944-.766.68-1.34-.397-.615-1.035.892-2.268 1.283-3.545 1.31-3.49.055-4.855-2.962-4.655-5.764.187-2.626 2.422-5.329 5.369-5.023 2.63.302 4.013 2.51 4.805 4.777.262.695.676.883.664-.153-.607-5.057-2.491-8.204-2.505-8.201z" style="display:inline;fill:#000;fill-opacity:1" transform="translate(-1439.415 -282.856)scale(1.01201)"/></g></svg>