<svg xmlns="http://www.w3.org/2000/svg" viewBox="0 0 224.225 312.808"><g style="display:inline"><g transform="translate(-6480.66 2747.31)"><rect width="223.228" height="311.811" x="6481.158" y="-2746.811" rx="10.63" ry="10.63" style="display:inline;fill:#fff;fill-opacity:1;stroke:#000;stroke-width:.99673343;stroke-miterlimit:4;stroke-dasharray:none;stroke-opacity:1"/><path d="m2836.664-2519.89 8.46-6.112c7.354 11.737 15.563 19.474 28.119 18.143 18.845-1.267 26.648-20.66 22.703-35.284-3.809-13.103-19.417-19.496-31.815-12.499-2.923 1.65-6.305 3.688-6.305 3.688l-4.414-7.194 29.11-33.863h-31.59v14.015h-12.122v-25.127h61.746v8.528s-16.538 16.837-22.013 26.066c13.47.49 24.323 8.865 28.208 22.116 2.28 6.97 1.255 22.922-1.716 29.788-4.962 11.463-18.548 20.76-30.963 21.296-20.828 1.376-31.893-12.96-37.408-23.562m685.341 775.203-8.461 6.111c-7.354-11.737-15.562-19.474-28.118-18.143-18.845 1.267-26.649 20.66-22.704 35.285 3.81 13.103 19.417 19.495 31.815 12.498 2.924-1.65 6.306-3.375 6.306-3.375l5.226 6.756-29.922 33.989h31.59v-14.016h12.121v25.127h-61.746v-8.528s16.539-16.837 22.013-26.066c-13.469-.49-24.323-8.865-28.208-22.116-2.28-6.97-1.255-22.922 1.717-29.788 4.961-11.463 18.548-20.76 30.962-21.296 20.828-1.376 31.893 12.96 37.409 23.562" style="display:inline;fill:#d40000;fill-opacity:1" transform="translate(5635.595 -1948.954)scale(.30106)"/></g><path d="M1807.025 232.79c-1.583-3.472-1.757-9.405 2.971-10.208 3.562-.458 5.012 1.198 5.3 3.742.142.743.562.789.695-.058.204-2.61 2.787-4.133 4.806-3.75 5.527.945 5.204 7.028 3.399 11.155-2.731 5.48-5.6 8.938-8.245 14.452-3.038-5.74-6.507-10.405-8.926-15.333m89.758-31.927c7.144-.475 10.869 5.627 11.596 10.436.433.764.67.549.837-.042.349-6.174 5.874-11.22 10.992-10.53 8.328.108 13.39 9.375 11.966 17.219-1.738 9.581-6.9 15.35-10.807 21.293-4.422 6.152-10.373 15.04-12.29 19.316 0 0-6.049-9.204-13.918-20.03-5.261-7.238-9.473-15.081-9.865-21.835-.448-7.715 2.72-14.631 11.49-15.827m.063 98.422c7.144-.475 10.868 5.627 11.595 10.436.433.764.67.549.837-.042.35-6.174 5.875-11.22 10.993-10.53 8.328.108 13.389 9.375 11.966 17.218-1.739 9.582-6.9 15.351-10.808 21.293-4.421 6.153-10.373 15.04-12.29 19.317 0 0-6.048-9.204-13.917-20.03-5.262-7.238-9.473-15.082-9.865-21.835-.448-7.715 2.719-14.631 11.489-15.827m97.165 124.717c-1.583 3.472-1.757 9.406 2.971 10.208 3.562.459 5.012-1.198 5.3-3.742.142-.743.562-.788.695.059.204 2.609 2.787 4.132 4.806 3.75 5.527-.946 5.204-7.029 3.399-11.156-2.731-5.48-5.6-8.938-8.245-14.452-3.039 5.741-6.508 10.405-8.926 15.333m-97.229 31.458c7.144.474 10.869-5.628 11.596-10.437.433-.764.67-.549.837.042.349 6.174 5.874 11.22 10.992 10.53 8.328-.108 13.39-9.375 11.966-17.219-1.738-9.581-6.9-15.35-10.807-21.293-4.422-6.152-10.373-15.04-12.29-19.317 0 0-6.049 9.205-13.918 20.03-5.261 7.239-9.473 15.082-9.865 21.835-.448 7.716 2.72 14.632 11.49 15.828" style="display:inline;fill:#d40000;fill-opacity:1" transform="translate(-1796.784 -171.627)"/></g></svg>