<svg xmlns="http://www.w3.org/2000/svg" viewBox="0 0 224.225 312.808"><g style="display:inline"><g style="display:inline" transform="translate(-6480.66 2747.31)"><rect width="223.228" height="311.811" x="6481.158" y="-2746.811" rx="10.63" ry="10.63" style="display:inline;fill:#fff;fill-opacity:1;stroke:#000;stroke-width:.99673343;stroke-miterlimit:4;stroke-dasharray:none;stroke-opacity:1"/><path d="m2836.664-2519.89 8.46-6.112c7.354 11.737 15.563 19.474 28.119 18.143 18.845-1.267 26.648-20.66 22.703-35.284-3.809-13.103-19.417-19.496-31.815-12.499-2.923 1.65-6.305 3.688-6.305 3.688l-4.414-7.194 29.11-33.863h-31.59v14.015h-12.122v-25.127h61.746v8.528s-16.538 16.837-22.013 26.066c13.47.49 24.323 8.865 28.208 22.116 2.28 6.97 1.255 22.922-1.716 29.788-4.962 11.463-18.548 20.76-30.963 21.296-20.828 1.376-31.893-12.96-37.408-23.562m685.341 775.203-8.461 6.111c-7.354-11.737-15.562-19.474-28.118-18.143-18.845 1.267-26.649 20.66-22.704 35.285 3.81 13.103 19.417 19.495 31.815 12.498 2.924-1.65 6.306-3.375 6.306-3.375l5.226 6.756-29.922 33.989h31.59v-14.016h12.121v25.127h-61.746v-8.528s16.539-16.837 22.013-26.066c-13.469-.49-24.323-8.865-28.208-22.116-2.28-6.97-1.255-22.922 1.717-29.788 4.961-11.463 18.548-20.76 30.962-21.296 20.828-1.376 31.893 12.96 37.409 23.562" style="display:inline;fill:#000;fill-opacity:1" transform="translate(5635.595 -1948.954)scale(.30106)"/></g><path d="M1530.612 347.075c.015-2.026-1.587-2.065-1.569-.586-.134 7.429-6.416 11.086-10.98 10.219-7.036-1.338-9.282-8.322-9.215-12.436.207-12.696 12.988-22.058 24.52-38.334 8.45 14.69 22.397 26.23 23.223 37.585 1.098 15.099-18.009 20.73-20.737 3.133-.176-1.243-1.64-1.8-1.526-.065.415 4.823-.175 6.832 5.266 18.72h-14.222c3.15-5.555 5.025-12.375 5.24-18.236m.074 75.545c.015 2.027-1.587 2.065-1.569.587-.134-7.429-6.416-11.087-10.98-10.22-7.036 1.339-9.282 8.323-9.215 12.436.207 12.697 12.988 22.059 24.52 38.335 8.45-14.69 22.398-26.23 23.223-37.586 1.098-15.098-18.009-20.73-20.737-3.133-.176 1.243-1.64 1.802-1.526.065.415-4.822-.175-6.83 5.266-18.719h-14.222c3.15 5.555 5.026 12.375 5.24 18.236m-.063 98.681c.015 2.026-1.587 2.064-1.569.586-.134-7.429-6.416-11.087-10.98-10.219-7.037 1.338-9.282 8.322-9.215 12.436.207 12.696 12.988 22.058 24.52 38.334 8.45-14.69 22.397-26.23 23.223-37.586 1.098-15.098-18.009-20.73-20.737-3.132-.176 1.243-1.64 1.8-1.526.065.414-4.823-.175-6.832 5.266-18.72h-14.222c3.15 5.555 5.025 12.375 5.24 18.236m-91.428-173.442c.01-.87-.896-.464-1.018-.19-1.163 1.986-2.865 2.448-4.548 1.732-1.667-.709-2.604-2.28-2.454-4.522.31-3.438 3.035-7.2 4.355-9.326a69 69 0 0 0 4.077-7.154c1.697 3.363 2.558 4.32 4.405 7.391 1.626 2.705 3.892 5.353 4.067 8.623 0 2.485-1.046 4.832-3.399 5.26-1.331.241-2.579-.442-3.504-2.038-.282-.406-.849-.194-.84.362.166 2.094.956 3.984 2.83 6.212h-6.887c1.41-1.576 2.849-3.704 2.916-6.349m186.982 173.099c.01.872-.896.465-1.018.191-1.164-1.986-2.865-2.448-4.548-1.732-1.668.71-2.604 2.28-2.454 4.522.31 3.438 3.035 7.2 4.355 9.327a69 69 0 0 1 4.077 7.154c1.697-3.363 2.558-4.32 4.405-7.392 1.626-2.704 3.892-5.353 4.067-8.622 0-2.485-1.046-4.832-3.4-5.26-1.33-.241-2.578.442-3.503 2.037-.282.407-.849.195-.84-.362.166-2.093.956-3.983 2.83-6.211h-6.887c1.41 1.576 2.849 3.704 2.916 6.349" style="display:inline;fill:#000;fill-opacity:1" transform="translate(-1420.703 -277.642)"/></g></svg>