<svg xmlns="http://www.w3.org/2000/svg" viewBox="0 0 224.225 312.808"><g style="display:inline"><g style="display:inline" transform="translate(-6703.887 2747.31)"><rect width="223.228" height="311.811" x="6704.386" y="-2746.811" rx="10.63" ry="10.63" style="display:inline;fill:#fff;fill-opacity:1;stroke:#000;stroke-width:.99673343;stroke-miterlimit:4;stroke-dasharray:none;stroke-opacity:1"/></g><path d="M3650.172-2493.73v-9.344h8.587v-15.398h-42.932v-10.865l46.453-70.08 7.59.026v70.054h13.132v10.865h-13.132l-.252 15.399h7.197v9.343zm8.587-80.04-29.493 44.432h29.493zm614.398 807.676v9.344h-8.586v15.4h42.931v10.864l-46.452 70.08-7.59-.026v-70.054h-13.133v-10.865h13.132l.253-15.399h-7.198v-9.344zm-8.586 80.04 29.493-44.432h-29.493z" style="display:inline;fill:#000;fill-opacity:1" transform="translate(-1080.018 797.64)scale(.30106)"/><path d="M1797.658 361.522c2.88-5.776 4.976-11.701 5.349-18.037.341-2.332-1.075-2.371-1.289-.729-4.076 15.593-25.762 11.37-25.017-3.296.605-11.895 12.42-14.454 18.583-10.565 2.433 1.433 2.296.575.967-.912-9.154-10.211-3.61-23.361 8.762-23.602 13.38.793 16.85 14.87 8.644 23.148-1.02.995-3.284 4.192.123 1.957 8.287-5.888 19.787.442 19.553 9.52-.433 16.74-20.84 17.988-25.204 4.006-.42-1.55-1.629-2.329-1.295.304.605 4.767 1.857 11.954 5.438 18.206zm-99.532 0c2.879-5.776 4.976-11.701 5.348-18.037.341-2.332-1.075-2.371-1.288-.729-4.077 15.593-25.763 11.37-25.017-3.296.604-11.895 12.419-14.454 18.582-10.565 2.433 1.433 2.296.575.968-.912-9.155-10.211-3.61-23.361 8.76-23.602 13.38.793 16.852 14.87 8.645 23.148-1.02.995-3.283 4.192.123 1.957 8.287-5.888 19.787.442 19.553 9.52-.433 16.74-20.84 17.988-25.203 4.006-.42-1.55-1.63-2.329-1.295.304.605 4.767 1.856 11.954 5.437 18.206zm114.234 141.706c-2.879 5.775-4.975 11.7-5.348 18.037-.341 2.332 1.075 2.371 1.288.729 4.077-15.593 25.763-11.37 25.018 3.296-.605 11.895-12.42 14.454-18.583 10.565-2.433-1.433-2.296-.575-.968.912 9.155 10.211 3.61 23.361-8.76 23.602-13.38-.793-16.852-14.87-8.645-23.148 1.02-.995 3.283-4.192-.123-1.957-8.287 5.888-19.787-.442-19.553-9.52.433-16.74 20.84-17.988 25.203-4.006.42 1.55 1.63 2.328 1.295-.304-.604-4.767-1.856-11.954-5.437-18.206zm-99.532 0c-2.88 5.775-4.976 11.7-5.348 18.037-.342 2.332 1.074 2.371 1.288.729 4.076-15.593 25.762-11.37 25.017 3.296-.605 11.895-12.42 14.454-18.583 10.565-2.433-1.433-2.296-.575-.967.912 9.154 10.211 3.61 23.361-8.762 23.602-13.38-.793-16.85-14.87-8.644-23.148 1.02-.995 3.284-4.192-.123-1.957-8.287 5.888-19.787-.442-19.553-9.52.433-16.74 20.84-17.988 25.204-4.006.42 1.55 1.629 2.328 1.295-.304-.605-4.767-1.857-11.954-5.438-18.206zm-55.014-149.665c1.192-2.446 2.352-4.721 2.984-7.401.419-2.528-.438-1.589-.925.068-.722 2.297-2.723 3.344-4.58 3.369-3.371.045-5.053-2.605-4.948-5.454-.368-2.999 2.67-5.12 4.961-4.957 1.723.123 3.224 1.052 4.133 1.775.597.315 1.234.455.345-.358-1.677-1.833-3.076-2.964-3.046-5.711.03-2.579 2.234-5.268 5.156-5.184 3.651.106 5.312 2.89 5.303 5.48-.01 1.889-.954 3.627-2.411 4.703-.945.766-.68 1.34.397.615 1.035-.892 2.267-1.282 3.545-1.31 3.49-.054 4.855 2.962 4.655 5.764-.187 2.626-2.423 5.329-5.369 5.023-2.63-.302-4.013-2.51-4.805-4.777-.262-.695-.676-.883-.664.153.607 5.057 2.491 8.204 2.505 8.201zm195.307 161.257c-1.192 2.446-2.352 4.721-2.984 7.402-.42 2.527.438 1.588.925-.069.721-2.297 2.723-3.343 4.58-3.369 3.371-.045 5.053 2.605 4.948 5.454.368 2.999-2.67 5.12-4.962 4.957-1.722-.123-3.224-1.052-4.132-1.775-.597-.315-1.234-.455-.345.358 1.677 1.833 3.076 2.965 3.046 5.711-.03 2.579-2.234 5.268-5.156 5.184-3.651-.105-5.312-2.89-5.303-5.48.01-1.889.954-3.627 2.411-4.703.945-.766.68-1.34-.397-.615-1.035.892-2.267 1.283-3.545 1.31-3.49.055-4.855-2.962-4.655-5.764.187-2.626 2.423-5.329 5.369-5.023 2.63.302 4.013 2.51 4.805 4.777.262.695.676.883.664-.153-.607-5.057-2.491-8.204-2.505-8.201z" style="display:inline;fill:#000;fill-opacity:1" transform="translate(-1643.355 -277.642)"/></g></svg>