<svg xmlns="http://www.w3.org/2000/svg" viewBox="0 0 224.225 312.808"><g style="display:inline" transform="translate(-6703.887 2747.31)"><rect width="223.228" height="311.811" x="6704.386" y="-2746.811" rx="10.63" ry="10.63" style="display:inline;fill:#fff;fill-opacity:1;stroke:#000;stroke-width:.99673343;stroke-miterlimit:4;stroke-dasharray:none;stroke-opacity:1"/><g style="fill:#d40000;fill-opacity:1"><path d="M3706.588-2464.922c32.953-32.158 54.594-67.22 75.29-100.94 18.151 37.103 44.197 69.562 72.365 100.94-30.137 31.118-53.494 64.393-72.274 99.374-20.818-35.859-42.736-68.33-75.38-99.374m-.001 660.485c32.953-32.158 54.594-67.22 75.29-100.94 18.151 37.103 44.197 69.562 72.365 100.94-30.137 31.118-53.494 64.393-72.274 99.374-20.818-35.859-42.735-68.33-75.38-99.374m370.464-660.485c32.952-32.158 54.594-67.22 75.29-100.94 18.15 37.103 44.197 69.562 72.365 100.94-30.138 31.118-53.495 64.393-72.275 99.374-20.818-35.859-42.735-68.33-75.38-99.374m0 660.485c32.952-32.158 54.594-67.22 75.29-100.94 18.15 37.103 44.197 69.562 72.365 100.94-30.138 31.118-53.495 64.393-72.275 99.374-20.818-35.859-42.735-68.33-75.38-99.374m163.385-17.238c13.498-13.173 22.364-27.536 30.842-41.35 7.435 15.2 18.105 28.496 29.644 41.35-12.346 12.747-21.914 26.378-29.607 40.708-8.528-14.69-17.506-27.991-30.88-40.708m-621.86-614.865c13.499-13.173 22.364-27.536 30.842-41.349 7.436 15.199 18.105 28.495 29.644 41.349-12.346 12.747-21.914 26.378-29.607 40.708-8.528-14.69-17.506-27.991-30.879-40.708" style="fill:#d40000;fill-opacity:1" transform="translate(5623.293 -1949.67)scale(.30106)"/><path d="M3650.172-2493.73v-9.344h8.587v-15.398h-42.932v-10.865l46.453-70.08 7.59.026v70.054h13.132v10.865h-13.132l-.252 15.399h7.197v9.343zm8.587-80.04-29.493 44.432h29.493zm614.398 807.676v9.344h-8.586v15.4h42.931v10.864l-46.452 70.08-7.59-.026v-70.054h-13.133v-10.865h13.132l.253-15.399h-7.198v-9.344zm-8.586 80.04 29.493-44.432h-29.493z" style="display:inline;fill:#d40000;fill-opacity:1" transform="translate(5623.293 -1949.67)scale(.30106)"/></g></g></svg>