<svg xmlns="http://www.w3.org/2000/svg" viewBox="0 0 224.225 312.808"><g style="display:inline"><g transform="translate(-6703.887 2747.31)"><rect width="223.228" height="311.811" x="6704.386" y="-2746.811" rx="10.63" ry="10.63" style="display:inline;fill:#fff;fill-opacity:1;stroke:#000;stroke-width:.99673343;stroke-miterlimit:4;stroke-dasharray:none;stroke-opacity:1"/><path d="M3650.172-2493.73v-9.344h8.587v-15.398h-42.932v-10.865l46.453-70.08 7.59.026v70.054h13.132v10.865h-13.132l-.252 15.399h7.197v9.343zm8.587-80.04-29.493 44.432h29.493zm614.398 807.676v9.344h-8.586v15.4h42.931v10.864l-46.452 70.08-7.59-.026v-70.054h-13.133v-10.865h13.132l.253-15.399h-7.198v-9.344zm-8.586 80.04 29.493-44.432h-29.493z" style="display:inline;fill:#d40000;fill-opacity:1" transform="translate(5623.293 -1949.67)scale(.30106)"/></g><path d="M2029.267 233.12c-1.584-3.472-1.757-9.405 2.97-10.207 3.563-.459 5.012 1.198 5.3 3.741.143.743.562.789.695-.058.205-2.61 2.787-4.132 4.807-3.75 5.526.946 5.204 7.029 3.398 11.156-2.73 5.48-5.6 8.937-8.245 14.452-3.038-5.741-6.507-10.406-8.926-15.333m36.242-34.931c7.144-.474 10.868 5.627 11.595 10.437.433.763.67.548.837-.043.35-6.174 5.875-11.22 10.992-10.53 8.328.108 13.39 9.375 11.967 17.219-1.739 9.581-6.9 15.35-10.808 21.293-4.421 6.152-10.373 15.04-12.29 19.317 0 0-6.048-9.205-13.917-20.03-5.262-7.238-9.473-15.082-9.865-21.835-.448-7.716 2.719-14.632 11.489-15.828m109.532 0c7.145-.474 10.869 5.627 11.596 10.437.433.763.67.548.837-.043.349-6.174 5.875-11.22 10.992-10.53 8.328.108 13.39 9.375 11.967 17.219-1.739 9.581-6.9 15.35-10.808 21.293-4.421 6.152-10.373 15.04-12.29 19.317 0 0-6.049-9.205-13.918-20.03-5.261-7.238-9.473-15.082-9.865-21.835-.448-7.716 2.72-14.632 11.49-15.828m-109.533 256.34c7.144.475 10.868-5.627 11.595-10.436.433-.764.67-.549.837.042.35 6.174 5.875 11.22 10.992 10.53 8.328-.108 13.39-9.375 11.967-17.218-1.739-9.582-6.9-15.351-10.808-21.293-4.421-6.153-10.373-15.04-12.29-19.317 0 0-6.048 9.204-13.917 20.03-5.262 7.238-9.473 15.082-9.865 21.835-.448 7.715 2.719 14.631 11.489 15.827m109.532 0c7.145.475 10.869-5.627 11.596-10.436.433-.764.67-.549.837.042.349 6.174 5.875 11.22 10.992 10.53 8.328-.108 13.39-9.375 11.967-17.218-1.739-9.582-6.9-15.351-10.808-21.293-4.421-6.153-10.373-15.04-12.29-19.317 0 0-6.049 9.204-13.918 20.03-5.261 7.238-9.473 15.082-9.865 21.835-.448 7.715 2.72 14.631 11.49 15.827m41.444-31.297c-1.583 3.472-1.757 9.406 2.971 10.208 3.562.459 5.012-1.198 5.3-3.742.142-.743.562-.788.695.059.204 2.609 2.787 4.132 4.806 3.75 5.527-.946 5.204-7.029 3.399-11.156-2.731-5.48-5.6-8.938-8.245-14.452-3.038 5.741-6.507 10.405-8.926 15.333" style="display:inline;fill:#d40000;fill-opacity:1" transform="translate(-2020.012 -171.627)"/></g></svg>