<svg xmlns="http://www.w3.org/2000/svg" viewBox="0 0 224.225 312.808"><g style="display:inline"><g style="display:inline" transform="translate(-6703.887 2747.31)"><rect width="223.228" height="311.811" x="6704.386" y="-2746.811" rx="10.63" ry="10.63" style="display:inline;fill:#fff;fill-opacity:1;stroke:#000;stroke-width:.99673343;stroke-miterlimit:4;stroke-dasharray:none;stroke-opacity:1"/><path d="M3650.172-2493.73v-9.344h8.587v-15.398h-42.932v-10.865l46.453-70.08 7.59.026v70.054h13.132v10.865h-13.132l-.252 15.399h7.197v9.343zm8.587-80.04-29.493 44.432h29.493zm614.398 807.676v9.344h-8.586v15.4h42.931v10.864l-46.452 70.08-7.59-.026v-70.054h-13.133v-10.865h13.132l.253-15.399h-7.198v-9.344zm-8.586 80.04 29.493-44.432h-29.493z" style="display:inline;fill:#000;fill-opacity:1" transform="translate(5623.293 -1949.67)scale(.30106)"/></g><path d="M1698.34 344.402c.015-2.026-1.587-2.064-1.569-.586-.134 7.429-6.416 11.087-10.98 10.219-7.037-1.338-9.282-8.322-9.215-12.435.207-12.697 12.987-22.059 24.52-38.335 8.45 14.69 22.397 26.23 23.223 37.586 1.097 15.098-18.01 20.73-20.737 3.132-.176-1.243-1.64-1.8-1.526-.065.414 4.823-.175 6.832 5.265 18.72H1693.1c3.15-5.555 5.025-12.375 5.24-18.236m111.532 0c.015-2.026-1.586-2.064-1.568-.586-.135 7.429-6.417 11.087-10.98 10.219-7.037-1.338-9.283-8.322-9.216-12.435.208-12.697 12.988-22.059 24.52-38.335 8.45 14.69 22.398 26.23 23.224 37.586 1.097 15.098-18.01 20.73-20.737 3.132-.176-1.243-1.64-1.8-1.526-.065.414 4.823-.175 6.832 5.265 18.72h-14.221c3.15-5.555 5.025-12.375 5.24-18.236M1698.35 520.373c.015 2.026-1.586 2.065-1.568.586-.134-7.429-6.417-11.086-10.98-10.219-7.037 1.338-9.283 8.322-9.216 12.436.208 12.696 12.988 22.058 24.52 38.334 8.45-14.69 22.398-26.23 23.224-37.585 1.097-15.098-18.01-20.73-20.737-3.133-.176 1.243-1.64 1.801-1.526.065.414-4.823-.175-6.831 5.265-18.72h-14.221c3.15 5.555 5.025 12.375 5.24 18.236m111.532 0c.015 2.026-1.587 2.065-1.568.586-.135-7.429-6.417-11.086-10.981-10.219-7.036 1.338-9.282 8.322-9.215 12.436.207 12.696 12.988 22.058 24.52 38.334 8.45-14.69 22.398-26.23 23.223-37.585 1.098-15.098-18.009-20.73-20.737-3.133-.176 1.243-1.64 1.801-1.526.065.415-4.823-.175-6.831 5.266-18.72h-14.222c3.15 5.555 5.026 12.375 5.24 18.236m-149.449-172.182c.01-.871-.895-.464-1.017-.19-1.164 1.986-2.865 2.448-4.548 1.732-1.668-.71-2.604-2.28-2.454-4.522.31-3.438 3.035-7.2 4.355-9.327a69 69 0 0 0 4.077-7.154c1.697 3.364 2.558 4.321 4.405 7.392 1.626 2.704 3.892 5.353 4.067 8.622 0 2.485-1.046 4.832-3.4 5.26-1.33.242-2.578-.442-3.503-2.037-.282-.407-.849-.195-.84.362.166 2.093.956 3.983 2.83 6.211h-6.887c1.41-1.576 2.849-3.703 2.915-6.349m187.219 172.001c.01.871-.895.464-1.018.19-1.163-1.986-2.865-2.448-4.548-1.732-1.667.71-2.604 2.28-2.454 4.522.31 3.438 3.036 7.2 4.355 9.327a69 69 0 0 1 4.077 7.154c1.697-3.363 2.559-4.32 4.405-7.392 1.626-2.704 3.893-5.353 4.068-8.622 0-2.485-1.046-4.832-3.4-5.26-1.331-.241-2.578.442-3.503 2.037-.282.407-.85.195-.84-.362.166-2.093.956-3.983 2.83-6.211h-6.887c1.41 1.576 2.849 3.704 2.915 6.349" style="display:inline;fill:#000;fill-opacity:1" transform="translate(-1642.935 -277.642)"/></g></svg>