<svg xmlns="http://www.w3.org/2000/svg" viewBox="0 0 224.225 312.808"><g style="display:inline"><g style="display:inline" transform="translate(-6927.116 2747.31)"><rect width="223.228" height="311.811" x="6927.614" y="-2746.811" rx="10.63" ry="10.63" style="display:inline;fill:#fff;fill-opacity:1;stroke:#000;stroke-width:.99673343;stroke-miterlimit:4;stroke-dasharray:none;stroke-opacity:1"/></g><path d="m4561.226-2529.25 10.696-.094c2.034 6.458 6.55 13.042 12.678 14.86 17.312 4.064 28.458-5.605 32.128-16.763 4.452-13.53-.1-32.537-12.016-39.287-9.883-5.6-24.562-.877-31.296 11.09l-7.497-4.584 4.024-44.581h48.928v10.535h-39.652l-.622 18.572c8.52-5.986 21.65-5.928 30.178-1.727 16.159 7.702 23.663 25.22 20.518 45.873-4.353 20.538-13.942 32.174-35.599 33.846-24.064.208-32.564-16.335-32.468-27.74m687.134 786.335-10.695.094c-2.035-6.458-6.55-13.041-12.679-14.86-17.311-4.064-28.457 5.606-32.128 16.764-4.451 13.53.1 32.536 12.016 39.286 9.884 5.6 24.563.877 31.296-11.089l7.498 4.583-4.024 44.582h-48.929v-10.536h39.652l.622-18.571c-8.52 5.985-21.65 5.927-30.177 1.726-16.16-7.702-23.663-25.22-20.519-45.872 4.353-20.538 13.942-32.175 35.6-33.847 24.063-.208 32.563 16.336 32.467 27.74" style="display:inline;fill:#000;fill-opacity:1" transform="translate(-1364.459 799.497)scale(.30106)"/><path d="M1971.85 462.642c2.88-5.775 4.977-11.7 5.349-18.037.341-2.332-1.075-2.371-1.288-.729-4.077 15.593-25.763 11.37-25.017-3.296.605-11.895 12.42-14.454 18.582-10.565 2.433 1.433 2.296.575.968-.912-9.155-10.211-3.61-23.361 8.761-23.602 13.38.793 16.851 14.87 8.644 23.148-1.02.995-3.283 4.192.123 1.957 8.287-5.888 19.787.442 19.553 9.52-.433 16.74-20.84 17.988-25.203 4.006-.42-1.55-1.63-2.329-1.295.304.605 4.767 1.856 11.954 5.437 18.206zm49.244-99.262c2.878-5.776 4.975-11.701 5.348-18.037.341-2.332-1.075-2.371-1.289-.73-4.076 15.594-25.762 11.371-25.017-3.296.605-11.894 12.42-14.453 18.583-10.564 2.433 1.433 2.296.574.968-.912-9.155-10.211-3.61-23.362 8.76-23.602 13.38.793 16.852 14.87 8.645 23.148-1.02.995-3.284 4.191.123 1.956 8.287-5.888 19.787.443 19.553 9.521-.433 16.739-20.84 17.987-25.204 4.006-.42-1.55-1.629-2.329-1.295.304.605 4.767 1.857 11.954 5.438 18.206zm-98.682 0c2.88-5.776 4.976-11.701 5.348-18.037.342-2.332-1.074-2.371-1.288-.73-4.076 15.594-25.763 11.371-25.017-3.296.605-11.894 12.42-14.453 18.582-10.564 2.434 1.433 2.296.574.968-.912-9.155-10.211-3.61-23.362 8.761-23.602 13.38.793 16.852 14.87 8.645 23.148-1.02.995-3.284 4.191.123 1.956 8.286-5.888 19.787.443 19.552 9.521-.432 16.739-20.839 17.987-25.203 4.006-.42-1.55-1.629-2.329-1.295.304.605 4.767 1.857 11.954 5.438 18.206zm113.384 139.51c-2.88 5.776-4.976 11.701-5.349 18.037-.341 2.332 1.075 2.371 1.289.729 4.076-15.593 25.762-11.37 25.017 3.296-.605 11.895-12.42 14.454-18.583 10.565-2.433-1.433-2.296-.575-.968.912 9.155 10.211 3.61 23.362-8.76 23.602-13.38-.793-16.852-14.87-8.645-23.148 1.02-.995 3.283-4.191-.123-1.956-8.287 5.888-19.787-.443-19.553-9.521.433-16.739 20.84-17.987 25.203-4.006.42 1.55 1.63 2.329 1.295-.304-.604-4.767-1.856-11.954-5.437-18.206zm-98.682 0c-2.879 5.776-4.976 11.701-5.348 18.037-.342 2.332 1.075 2.371 1.288.729 4.077-15.593 25.763-11.37 25.017 3.296-.605 11.895-12.42 14.454-18.582 10.565-2.434-1.433-2.296-.575-.968.912 9.155 10.211 3.61 23.362-8.761 23.602-13.38-.793-16.851-14.87-8.644-23.148 1.02-.995 3.283-4.191-.123-1.956-8.287 5.888-19.788-.443-19.553-9.521.433-16.739 20.84-17.987 25.203-4.006.42 1.55 1.63 2.329 1.295-.304-.605-4.767-1.856-11.954-5.437-18.206zm-55.316-149.725c1.192-2.445 2.352-4.721 2.984-7.401.42-2.528-.438-1.589-.925.068-.721 2.298-2.723 3.344-4.58 3.369-3.371.046-5.053-2.604-4.948-5.454-.368-2.998 2.67-5.12 4.962-4.957 1.722.123 3.224 1.052 4.132 1.775.597.316 1.234.455.345-.358-1.677-1.833-3.076-2.964-3.046-5.71.03-2.58 2.234-5.269 5.156-5.185 3.651.106 5.312 2.89 5.303 5.481-.01 1.888-.954 3.626-2.411 4.703-.945.766-.68 1.34.397.614 1.035-.892 2.267-1.282 3.545-1.31 3.49-.054 4.855 2.962 4.655 5.765-.187 2.625-2.423 5.328-5.369 5.022-2.63-.302-4.013-2.51-4.805-4.777-.262-.695-.676-.883-.664.153.607 5.058 2.491 8.205 2.505 8.202zm194.797 162.003c-1.192 2.445-2.352 4.72-2.985 7.401-.419 2.528.439 1.589.926-.068.72-2.298 2.722-3.344 4.58-3.369 3.37-.046 5.052 2.604 4.948 5.454.368 2.998-2.671 5.12-4.962 4.957-1.722-.123-3.224-1.052-4.133-1.776-.596-.315-1.234-.454-.345.359 1.678 1.833 3.077 2.964 3.046 5.71-.029 2.58-2.233 5.269-5.155 5.185-3.652-.106-5.312-2.89-5.304-5.481.01-1.888.954-3.626 2.412-4.703.944-.766.68-1.34-.398-.615-1.035.893-2.267 1.283-3.545 1.31-3.49.055-4.855-2.961-4.655-5.764.187-2.625 2.423-5.328 5.37-5.022 2.63.301 4.012 2.51 4.804 4.777.262.695.676.883.665-.153-.608-5.058-2.492-8.205-2.506-8.202z" style="display:inline;fill:#000;fill-opacity:1" transform="translate(-1867.084 -277.642)"/></g></svg>