<svg xmlns="http://www.w3.org/2000/svg" viewBox="0 0 224.225 312.808"><g style="display:inline"><g transform="translate(-6927.116 2747.31)"><rect width="223.228" height="311.811" x="6927.614" y="-2746.811" rx="10.63" ry="10.63" style="display:inline;fill:#fff;fill-opacity:1;stroke:#000;stroke-width:.99673343;stroke-miterlimit:4;stroke-dasharray:none;stroke-opacity:1"/><path d="m4561.226-2529.25 10.696-.094c2.034 6.458 6.55 13.042 12.678 14.86 17.312 4.064 28.458-5.605 32.128-16.763 4.452-13.53-.1-32.537-12.016-39.287-9.883-5.6-24.562-.877-31.296 11.09l-7.497-4.584 4.024-44.581h48.928v10.535h-39.652l-.622 18.572c8.52-5.986 21.65-5.928 30.178-1.727 16.159 7.702 23.663 25.22 20.518 45.873-4.353 20.538-13.942 32.174-35.599 33.846-24.064.208-32.564-16.335-32.468-27.74m687.134 786.335-10.695.094c-2.035-6.458-6.55-13.041-12.679-14.86-17.311-4.064-28.457 5.606-32.128 16.764-4.451 13.53.1 32.536 12.016 39.286 9.884 5.6 24.563.877 31.296-11.089l7.498 4.583-4.024 44.582h-48.929v-10.536h39.652l.622-18.571c-8.52 5.985-21.65 5.927-30.177 1.726-16.16-7.702-23.663-25.22-20.519-45.872 4.353-20.538 13.942-32.175 35.6-33.847 24.063-.208 32.563 16.336 32.467 27.74" style="display:inline;fill:#d40000;fill-opacity:1" transform="translate(5562.581 -1947.812)scale(.30106)"/></g><path d="M2253.25 232.723c-1.582-3.472-1.756-9.405 2.972-10.208 3.562-.459 5.011 1.198 5.3 3.742.142.743.561.788.694-.059.205-2.609 2.788-4.132 4.807-3.75 5.526.946 5.204 7.029 3.398 11.156-2.73 5.48-5.6 8.938-8.245 14.452-3.038-5.741-6.507-10.405-8.925-15.333m34.543-32.675c7.144-.475 10.869 5.627 11.596 10.436.433.764.67.549.836-.042.35-6.174 5.875-11.22 10.993-10.53 8.328.108 13.39 9.375 11.966 17.219-1.738 9.581-6.9 15.35-10.807 21.293-4.422 6.152-10.373 15.04-12.29 19.317 0 0-6.049-9.205-13.918-20.03-5.262-7.239-9.473-15.082-9.865-21.835-.448-7.716 2.72-14.632 11.49-15.828m110.681 0c7.144-.475 10.868 5.627 11.595 10.436.433.764.67.549.837-.042.349-6.174 5.875-11.22 10.992-10.53 8.328.108 13.39 9.375 11.967 17.219-1.739 9.581-6.9 15.35-10.808 21.293-4.421 6.152-10.373 15.04-12.29 19.317 0 0-6.048-9.205-13.917-20.03-5.262-7.239-9.473-15.082-9.865-21.835-.448-7.716 2.719-14.632 11.489-15.828m-55.173 99.237c7.144-.475 10.869 5.627 11.596 10.436.433.764.67.549.837-.042.349-6.174 5.874-11.22 10.992-10.53 8.328.108 13.39 9.375 11.966 17.218-1.738 9.582-6.9 15.351-10.807 21.293-4.422 6.153-10.373 15.04-12.29 19.317 0 0-6.049-9.204-13.918-20.03-5.261-7.238-9.473-15.082-9.865-21.835-.448-7.715 2.72-14.631 11.49-15.827m-55.51 154.908c7.144.474 10.869-5.628 11.596-10.437.433-.764.67-.548.836.042.35 6.175 5.875 11.22 10.993 10.53 8.328-.108 13.39-9.375 11.966-17.218-1.738-9.582-6.9-15.351-10.807-21.293-4.422-6.153-10.373-15.04-12.29-19.317 0 0-6.049 9.204-13.918 20.03-5.262 7.238-9.473 15.082-9.865 21.835-.448 7.715 2.72 14.632 11.49 15.828m110.681 0c7.144.474 10.868-5.628 11.595-10.437.433-.764.67-.548.837.042.349 6.175 5.875 11.22 10.992 10.53 8.328-.108 13.39-9.375 11.967-17.218-1.739-9.582-6.9-15.351-10.808-21.293-4.421-6.153-10.373-15.04-12.29-19.317 0 0-6.048 9.204-13.917 20.03-5.262 7.238-9.473 15.082-9.865 21.835-.448 7.715 2.719 14.632 11.489 15.828m41.482-30.613c-1.583 3.473-1.756 9.406 2.971 10.209 3.562.458 5.012-1.199 5.3-3.742.143-.743.562-.789.695.058.205 2.61 2.787 4.133 4.807 3.75 5.526-.945 5.203-7.028 3.398-11.156-2.73-5.479-5.6-8.937-8.245-14.451-3.038 5.74-6.507 10.405-8.926 15.333" style="display:inline;fill:#d40000;fill-opacity:1" transform="translate(-2243.24 -171.627)"/></g></svg>