<svg xmlns="http://www.w3.org/2000/svg" style="display:inline" viewBox="0 0 224.225 312.808"><g style="display:inline"><g style="display:inline" transform="translate(-6927.116 2747.31)"><rect width="223.228" height="311.811" x="6927.614" y="-2746.811" rx="10.63" ry="10.63" style="display:inline;fill:#fff;fill-opacity:1;stroke:#000;stroke-width:.99673343;stroke-miterlimit:4;stroke-dasharray:none;stroke-opacity:1"/><path d="m4561.226-2529.25 10.696-.094c2.034 6.458 6.55 13.042 12.678 14.86 17.312 4.064 28.458-5.605 32.128-16.763 4.452-13.53-.1-32.537-12.016-39.287-9.883-5.6-24.562-.877-31.296 11.09l-7.497-4.584 4.024-44.581h48.928v10.535h-39.652l-.622 18.572c8.52-5.986 21.65-5.928 30.178-1.727 16.159 7.702 23.663 25.22 20.518 45.873-4.353 20.538-13.942 32.174-35.599 33.846-24.064.208-32.564-16.335-32.468-27.74m687.134 786.335-10.695.094c-2.035-6.458-6.55-13.041-12.679-14.86-17.311-4.064-28.457 5.606-32.128 16.764-4.451 13.53.1 32.536 12.016 39.286 9.884 5.6 24.563.877 31.296-11.089l7.498 4.583-4.024 44.582h-48.929v-10.536h39.652l.622-18.571c-8.52 5.985-21.65 5.927-30.177 1.726-16.16-7.702-23.663-25.22-20.519-45.872 4.353-20.538 13.942-32.175 35.6-33.847 24.063-.208 32.563 16.336 32.467 27.74" style="display:inline;fill:#000;fill-opacity:1" transform="translate(5562.581 -1947.812)scale(.30106)"/></g><path d="M1921.623 346.26c.015-2.026-1.587-2.065-1.569-.586-.134 7.429-6.416 11.087-10.98 10.219-7.037-1.338-9.282-8.322-9.215-12.436.207-12.696 12.988-22.058 24.52-38.334 8.45 14.69 22.397 26.23 23.223 37.586 1.098 15.098-18.009 20.73-20.737 3.132-.176-1.243-1.64-1.8-1.526-.065.414 4.823-.175 6.832 5.266 18.72h-14.222c3.15-5.555 5.025-12.375 5.24-18.236m110.681 0c.015-2.026-1.587-2.065-1.569-.586-.134 7.429-6.416 11.087-10.98 10.219-7.036-1.338-9.282-8.322-9.215-12.436.207-12.696 12.988-22.058 24.52-38.334 8.45 14.69 22.397 26.23 23.223 37.586 1.098 15.098-18.009 20.73-20.737 3.132-.176-1.243-1.64-1.8-1.526-.065.415 4.823-.175 6.832 5.266 18.72h-14.222c3.15-5.555 5.026-12.375 5.24-18.236m-55.243 99.262c.015-2.026-1.587-2.064-1.568-.586-.135 7.429-6.417 11.087-10.981 10.22-7.036-1.339-9.282-8.323-9.215-12.436.207-12.697 12.988-22.059 24.52-38.335 8.45 14.69 22.398 26.23 23.223 37.586 1.098 15.098-18.009 20.73-20.737 3.133-.176-1.243-1.64-1.802-1.526-.065.415 4.822-.175 6.83 5.266 18.719h-14.222c3.15-5.555 5.026-12.375 5.24-18.236m-55.427 74.514c.014 2.025-1.587 2.064-1.57.585-.133-7.428-6.416-11.086-10.98-10.218-7.036 1.337-9.282 8.322-9.214 12.435.207 12.696 12.987 22.058 24.52 38.335 8.45-14.691 22.397-26.23 23.223-37.586 1.097-15.098-18.01-20.73-20.737-3.133-.176 1.243-1.64 1.801-1.526.065.414-4.822-.175-6.831 5.265-18.72h-14.221c3.15 5.556 5.025 12.375 5.24 18.237m110.681 0c.015 2.025-1.587 2.064-1.569.585-.134-7.428-6.416-11.086-10.98-10.218-7.037 1.337-9.282 8.322-9.215 12.435.207 12.696 12.988 22.058 24.52 38.335 8.45-14.691 22.397-26.23 23.223-37.586 1.098-15.098-18.009-20.73-20.737-3.133-.176 1.243-1.64 1.801-1.526.065.414-4.822-.175-6.831 5.266-18.72h-14.222c3.15 5.556 5.025 12.375 5.24 18.237m-146.9-172.242c.01-.872-.895-.465-1.018-.19-1.163 1.985-2.865 2.447-4.548 1.731-1.667-.709-2.604-2.28-2.454-4.522.31-3.438 3.036-7.2 4.355-9.326a69 69 0 0 0 4.077-7.154c1.697 3.363 2.559 4.32 4.405 7.391 1.626 2.705 3.893 5.353 4.068 8.623 0 2.484-1.046 4.831-3.4 5.259-1.331.242-2.578-.442-3.503-2.037-.282-.406-.85-.195-.84.362.165 2.093.956 3.983 2.83 6.212h-6.887c1.41-1.576 2.848-3.704 2.915-6.35m186.708 172.747c.01.87-.895.464-1.018.19-1.163-1.986-2.865-2.448-4.548-1.732-1.667.709-2.604 2.28-2.454 4.522.31 3.438 3.036 7.2 4.355 9.326a69 69 0 0 1 4.077 7.154c1.697-3.363 2.559-4.32 4.405-7.391 1.626-2.705 3.893-5.353 4.068-8.623 0-2.484-1.046-4.831-3.4-5.259-1.331-.242-2.579.442-3.504 2.037-.281.406-.848.195-.839-.362.165-2.093.956-3.983 2.83-6.212h-6.887c1.41 1.576 2.848 3.704 2.915 6.35" style="display:inline;fill:#000;fill-opacity:1" transform="translate(-1867.16 -277.642)"/></g></svg>