<svg xmlns="http://www.w3.org/2000/svg" viewBox="0 0 224.225 312.808"><g style="display:inline"><g style="display:inline" transform="translate(-7150.344 2747.31)"><rect width="223.228" height="311.811" x="7150.843" y="-2746.811" rx="10.63" ry="10.63" style="display:inline;fill:#fff;fill-opacity:1;stroke:#000;stroke-width:.99673343;stroke-miterlimit:4;stroke-dasharray:none;stroke-opacity:1"/></g><path d="M1095.474-1380.217c-1.357-9.126-1.335-32.702-.22-39.668 3.419-21.353 11.733-31.12 25.652-34.32 13.514-3.108 32.514.351 36.683 18.208l-11.314.21c-6.112-12.069-21.575-8.843-30.279-3.595-6.953 4.192-10.093 21.655-8.75 22.73-.01 0 13.144-9.556 23.503-8.851 22.15 2.264 31.281 21.111 30.51 38.924-.7 21.423-7.623 38.539-31.094 39.681-22.315-.842-32.55-12.788-34.691-33.32m55.04-5.664c.123-14.865-6.755-25.984-19.762-27.211-13.007-1.228-26.12 11.232-25.211 26.381.91 15.202 6.904 28.007 22.674 27.936 16.96-.076 22.211-16.53 22.299-27.106m631.691 802.212c1.356 9.125 1.334 32.701.22 39.667-3.42 21.353-11.733 31.12-25.652 34.32-13.514 3.109-32.515-.351-36.684-18.208l11.315-.21c6.111 12.07 21.575 8.843 30.279 3.595 6.952-4.192 10.092-21.655 8.749-22.73.01 0-13.144 9.556-23.503 8.852-22.149-2.265-31.28-21.112-30.51-38.925.7-21.423 7.624-38.538 31.094-39.68 22.315.841 32.551 12.787 34.692 33.319m-55.04 5.663c-.123 14.865 6.755 25.984 19.762 27.212 13.006 1.227 26.119-11.233 25.211-26.382-.911-15.202-6.904-28.007-22.674-27.936-16.96.076-22.211 16.53-22.3 27.106" style="display:inline;fill:#000;fill-opacity:1" transform="translate(-321.184 452.03)scale(.30106)"/><path d="M2245.057 462.714c2.879-5.775 4.975-11.7 5.348-18.037.341-2.332-1.075-2.37-1.288-.729-4.077 15.593-25.763 11.37-25.018-3.296.605-11.895 12.42-14.454 18.583-10.565 2.433 1.433 2.296.575.968-.911-9.155-10.212-3.61-23.362 8.76-23.603 13.38.794 16.852 14.87 8.645 23.148-1.02.995-3.283 4.192.123 1.957 8.287-5.888 19.787.443 19.553 9.52-.433 16.74-20.84 17.988-25.203 4.006-.42-1.55-1.63-2.328-1.295.304.604 4.767 1.856 11.954 5.437 18.206zm-99.533 0c2.879-5.775 4.976-11.7 5.348-18.037.341-2.332-1.075-2.37-1.288-.729-4.077 15.593-25.763 11.37-25.017-3.296.605-11.895 12.42-14.454 18.582-10.565 2.434 1.433 2.296.575.968-.911-9.155-10.212-3.61-23.362 8.761-23.603 13.38.794 16.851 14.87 8.644 23.148-1.02.995-3.283 4.192.123 1.957 8.287-5.888 19.788.443 19.553 9.52-.433 16.74-20.84 17.988-25.203 4.006-.42-1.55-1.63-2.328-1.295.304.605 4.767 1.856 11.954 5.437 18.206zm99.533-98.894c2.879-5.775 4.975-11.7 5.348-18.037.341-2.331-1.075-2.37-1.288-.728-4.077 15.592-25.763 11.37-25.018-3.297.605-11.895 12.42-14.454 18.583-10.564 2.433 1.432 2.296.574.968-.912-9.155-10.212-3.61-23.362 8.76-23.603 13.38.794 16.852 14.87 8.645 23.149-1.02.994-3.283 4.191.123 1.956 8.287-5.888 19.787.443 19.553 9.52-.433 16.74-20.84 17.988-25.203 4.007-.42-1.55-1.63-2.329-1.295.304.604 4.767 1.856 11.953 5.437 18.206zm-99.533 0c2.879-5.775 4.976-11.7 5.348-18.037.341-2.331-1.075-2.37-1.288-.728-4.077 15.592-25.763 11.37-25.017-3.297.605-11.895 12.42-14.454 18.582-10.564 2.434 1.432 2.296.574.968-.912-9.155-10.212-3.61-23.362 8.761-23.603 13.38.794 16.851 14.87 8.644 23.149-1.02.994-3.283 4.191.123 1.956 8.287-5.888 19.788.443 19.553 9.52-.433 16.74-20.84 17.988-25.203 4.007-.42-1.55-1.63-2.329-1.295.304.605 4.767 1.856 11.953 5.437 18.206zm114.235 140.352c-2.88 5.775-4.976 11.7-5.349 18.037-.341 2.332 1.075 2.37 1.288.729 4.077-15.593 25.763-11.37 25.018 3.296-.605 11.895-12.42 14.454-18.583 10.565-2.433-1.433-2.296-.575-.968.911 9.155 10.212 3.61 23.362-8.76 23.603-13.38-.794-16.852-14.87-8.645-23.149 1.02-.994 3.283-4.19-.123-1.956-8.287 5.888-19.787-.443-19.553-9.52.433-16.74 20.84-17.988 25.203-4.006.42 1.55 1.63 2.328 1.295-.305-.604-4.766-1.856-11.953-5.437-18.205zm-99.533 0c-2.88 5.775-4.976 11.7-5.348 18.037-.342 2.332 1.074 2.37 1.288.729 4.076-15.593 25.762-11.37 25.017 3.296-.605 11.895-12.42 14.454-18.582 10.565-2.434-1.433-2.297-.575-.968.911 9.154 10.212 3.61 23.362-8.762 23.603-13.38-.794-16.85-14.87-8.644-23.149 1.02-.994 3.284-4.19-.123-1.956-8.287 5.888-19.787-.443-19.553-9.52.433-16.74 20.84-17.988 25.204-4.006.42 1.55 1.629 2.328 1.295-.305-.605-4.766-1.857-11.953-5.438-18.205zm-56.061-152.23c1.192-2.445 2.352-4.721 2.984-7.401.42-2.528-.438-1.589-.925.068-.721 2.297-2.723 3.344-4.58 3.369-3.371.045-5.053-2.604-4.948-5.454-.368-2.999 2.671-5.12 4.962-4.957 1.722.123 3.224 1.052 4.133 1.775.596.316 1.234.455.344-.358-1.677-1.833-3.076-2.964-3.046-5.711.03-2.579 2.234-5.268 5.156-5.184 3.651.106 5.312 2.89 5.303 5.48-.01 1.89-.953 3.627-2.411 4.703-.944.767-.68 1.34.398.615 1.034-.892 2.267-1.282 3.544-1.31 3.49-.054 4.855 2.962 4.655 5.764-.187 2.626-2.422 5.329-5.369 5.023-2.63-.302-4.013-2.51-4.805-4.777-.262-.695-.676-.883-.664.153.608 5.057 2.491 8.204 2.505 8.202zm196.905 162.003c-1.193 2.445-2.353 4.72-2.985 7.4-.42 2.528.438 1.59.925-.067.721-2.298 2.723-3.344 4.58-3.37 3.371-.045 5.053 2.605 4.948 5.455.368 2.998-2.67 5.12-4.962 4.956-1.722-.123-3.224-1.052-4.132-1.775-.597-.315-1.234-.454-.345.359 1.677 1.833 3.076 2.964 3.046 5.71-.03 2.58-2.234 5.269-5.156 5.184-3.651-.105-5.312-2.89-5.303-5.48.01-1.889.953-3.627 2.411-4.703.944-.766.68-1.34-.397-.615-1.035.892-2.267 1.283-3.545 1.31-3.49.055-4.855-2.961-4.655-5.764.187-2.626 2.422-5.328 5.369-5.022 2.63.301 4.013 2.51 4.805 4.777.262.695.676.882.664-.154-.607-5.057-2.491-8.204-2.505-8.201z" style="display:inline;fill:#000;fill-opacity:1" transform="translate(-2090.505 -277.642)"/></g></svg>