<svg xmlns="http://www.w3.org/2000/svg" viewBox="0 0 224.225 312.808"><g style="display:inline" transform="translate(-7150.344 2747.31)"><rect width="223.228" height="311.811" x="7150.843" y="-2746.811" rx="10.63" ry="10.63" style="display:inline;fill:#fff;fill-opacity:1;stroke:#000;stroke-width:.99673343;stroke-miterlimit:4;stroke-dasharray:none;stroke-opacity:1"/><g style="fill:#d40000;fill-opacity:1"><path d="M1180.246-1309.32c32.952-32.157 54.593-67.22 75.29-100.939 18.15 37.102 44.197 69.562 72.364 100.94-30.137 31.118-53.494 64.392-72.274 99.373-20.818-35.858-42.735-68.33-75.38-99.374m0 328.483c32.952-32.158 54.593-67.22 75.29-100.94 18.15 37.103 44.197 69.562 72.365 100.94-30.138 31.118-53.495 64.393-72.275 99.374-20.818-35.859-42.735-68.33-75.38-99.374m0 327.503c32.952-32.158 54.593-67.22 75.29-100.94 18.15 37.103 44.197 69.562 72.365 100.94-30.138 31.118-53.495 64.393-72.275 99.374-20.818-35.859-42.735-68.33-75.38-99.374m370.464-655.986c32.952-32.157 54.594-67.22 75.29-100.939 18.15 37.102 44.197 69.562 72.365 100.94-30.137 31.118-53.494 64.392-72.274 99.373-20.819-35.858-42.736-68.33-75.381-99.374m0 328.483c32.952-32.158 54.594-67.22 75.29-100.94 18.15 37.103 44.197 69.562 72.365 100.94-30.137 31.118-53.494 64.393-72.274 99.374-20.819-35.859-42.736-68.33-75.381-99.374m0 327.503c32.952-32.158 54.594-67.22 75.29-100.94 18.15 37.103 44.197 69.562 72.365 100.94-30.137 31.118-53.494 64.393-72.274 99.374-20.819-35.859-42.736-68.33-75.381-99.374" style="display:inline;fill:#d40000;fill-opacity:1" transform="translate(6829.277 -2295.28)scale(.30106)"/><path d="M1722.564-676.617c13.499-13.173 22.364-27.536 30.842-41.348 7.436 15.198 18.105 28.495 29.644 41.348-12.346 12.748-21.914 26.379-29.607 40.708-8.528-14.689-17.506-27.99-30.879-40.708M1095.4-1293.956c13.5-13.174 22.364-27.536 30.843-41.35 7.435 15.2 18.105 28.496 29.643 41.35-12.345 12.747-21.913 26.378-29.606 40.707-8.528-14.689-17.507-27.99-30.88-40.707" style="fill:#d40000;fill-opacity:1" transform="translate(6829.277 -2295.28)scale(.30106)"/><path d="M1095.474-1380.217c-1.357-9.126-1.335-32.702-.22-39.668 3.419-21.353 11.733-31.12 25.652-34.32 13.514-3.108 32.514.351 36.683 18.208l-11.314.21c-6.112-12.069-21.575-8.843-30.279-3.595-6.953 4.192-10.093 21.655-8.75 22.73-.01 0 13.144-9.556 23.503-8.851 22.15 2.264 31.281 21.111 30.51 38.924-.7 21.423-7.623 38.539-31.094 39.681-22.315-.842-32.55-12.788-34.691-33.32m55.04-5.664c.123-14.865-6.755-25.984-19.762-27.211-13.007-1.228-26.12 11.232-25.211 26.381.91 15.202 6.904 28.007 22.674 27.936 16.96-.076 22.211-16.53 22.299-27.106m631.691 802.212c1.356 9.125 1.334 32.701.22 39.667-3.42 21.353-11.733 31.12-25.652 34.32-13.514 3.109-32.515-.351-36.684-18.208l11.315-.21c6.111 12.07 21.575 8.843 30.279 3.595 6.952-4.192 10.092-21.655 8.749-22.73.01 0-13.144 9.556-23.503 8.852-22.149-2.265-31.28-21.112-30.51-38.925.7-21.423 7.624-38.538 31.094-39.68 22.315.841 32.551 12.787 34.692 33.319m-55.04 5.663c-.123 14.865 6.755 25.984 19.762 27.212 13.006 1.227 26.119-11.233 25.211-26.382-.911-15.202-6.904-28.007-22.674-27.936-16.96.076-22.211 16.53-22.3 27.106" style="display:inline;fill:#d40000;fill-opacity:1" transform="translate(6829.277 -2295.28)scale(.30106)"/></g></g></svg>