<svg xmlns="http://www.w3.org/2000/svg" viewBox="0 0 224.225 312.808"><g style="display:inline"><g transform="translate(-7150.344 2747.31)"><rect width="223.228" height="311.811" x="7150.843" y="-2746.811" rx="10.63" ry="10.63" style="display:inline;fill:#fff;fill-opacity:1;stroke:#000;stroke-width:.99673343;stroke-miterlimit:4;stroke-dasharray:none;stroke-opacity:1"/><path d="M1095.474-1380.217c-1.357-9.126-1.335-32.702-.22-39.668 3.419-21.353 11.733-31.12 25.652-34.32 13.514-3.108 32.514.351 36.683 18.208l-11.314.21c-6.112-12.069-21.575-8.843-30.279-3.595-6.953 4.192-10.093 21.655-8.75 22.73-.01 0 13.144-9.556 23.503-8.851 22.15 2.264 31.281 21.111 30.51 38.924-.7 21.423-7.623 38.539-31.094 39.681-22.315-.842-32.55-12.788-34.691-33.32m55.04-5.664c.123-14.865-6.755-25.984-19.762-27.211-13.007-1.228-26.12 11.232-25.211 26.381.91 15.202 6.904 28.007 22.674 27.936 16.96-.076 22.211-16.53 22.299-27.106m631.691 802.212c1.356 9.125 1.334 32.701.22 39.667-3.42 21.353-11.733 31.12-25.652 34.32-13.514 3.109-32.515-.351-36.684-18.208l11.315-.21c6.111 12.07 21.575 8.843 30.279 3.595 6.952-4.192 10.092-21.655 8.749-22.73.01 0-13.144 9.556-23.503 8.852-22.149-2.265-31.28-21.112-30.51-38.925.7-21.423 7.624-38.538 31.094-39.68 22.315.841 32.551 12.787 34.692 33.319m-55.04 5.663c-.123 14.865 6.755 25.984 19.762 27.212 13.006 1.227 26.119-11.233 25.211-26.382-.911-15.202-6.904-28.007-22.674-27.936-16.96.076-22.211 16.53-22.3 27.106" style="display:inline;fill:#d40000;fill-opacity:1" transform="translate(6829.277 -2295.28)scale(.30106)"/></g><path d="M2475.618 231.5c-1.583-3.473-1.757-9.406 2.97-10.208 3.563-.459 5.013 1.198 5.3 3.742.143.743.563.788.696-.059.204-2.61 2.787-4.132 4.806-3.75 5.527.946 5.204 7.029 3.399 11.156-2.731 5.48-5.601 8.937-8.246 14.452-3.038-5.741-6.507-10.405-8.925-15.333m35.288-31.011c7.144-.475 10.868 5.627 11.595 10.436.433.764.67.549.837-.042.35-6.174 5.875-11.22 10.992-10.53 8.329.108 13.39 9.375 11.967 17.218-1.739 9.582-6.9 15.351-10.808 21.294-4.421 6.152-10.373 15.039-12.29 19.316 0 0-6.048-9.204-13.917-20.03-5.262-7.238-9.473-15.082-9.865-21.835-.448-7.715 2.719-14.631 11.489-15.827m111.533 0c7.144-.475 10.868 5.627 11.595 10.436.433.764.67.549.837-.042.349-6.174 5.875-11.22 10.992-10.53 8.328.108 13.39 9.375 11.967 17.218-1.739 9.582-6.9 15.351-10.808 21.294-4.421 6.152-10.373 15.039-12.29 19.316 0 0-6.049-9.204-13.917-20.03-5.262-7.238-9.474-15.082-9.866-21.835-.447-7.715 2.72-14.631 11.49-15.827m0 98.893c7.144-.474 10.868 5.628 11.595 10.437.433.764.67.548.837-.043.349-6.174 5.875-11.22 10.992-10.53 8.328.109 13.39 9.376 11.967 17.22-1.739 9.58-6.9 15.35-10.808 21.292-4.421 6.153-10.373 15.04-12.29 19.317 0 0-6.049-9.205-13.917-20.03-5.262-7.238-9.474-15.082-9.866-21.835-.447-7.715 2.72-14.632 11.49-15.828m-111.533 0c7.144-.474 10.868 5.628 11.595 10.437.433.764.67.548.837-.043.35-6.174 5.875-11.22 10.992-10.53 8.329.109 13.39 9.376 11.967 17.22-1.739 9.58-6.9 15.35-10.808 21.292-4.421 6.153-10.373 15.04-12.29 19.317 0 0-6.048-9.205-13.917-20.03-5.262-7.238-9.473-15.082-9.865-21.835-.448-7.715 2.719-14.632 11.489-15.828m0 156.092c7.144.475 10.868-5.627 11.595-10.436.433-.764.67-.549.837.042.35 6.174 5.875 11.22 10.992 10.53 8.329-.108 13.39-9.375 11.967-17.218-1.739-9.582-6.9-15.352-10.808-21.294-4.421-6.152-10.373-15.04-12.29-19.316 0 0-6.048 9.204-13.917 20.03-5.262 7.238-9.473 15.082-9.865 21.835-.448 7.715 2.719 14.631 11.489 15.827m111.533 0c7.144.475 10.868-5.627 11.595-10.436.433-.764.67-.549.837.042.349 6.174 5.875 11.22 10.992 10.53 8.328-.108 13.39-9.375 11.967-17.218-1.739-9.582-6.9-15.352-10.808-21.294-4.421-6.152-10.373-15.04-12.29-19.316 0 0-6.049 9.204-13.917 20.03-5.262 7.238-9.474 15.082-9.866 21.835-.447 7.715 2.72 14.631 11.49 15.827m41.994-33.117c-1.583 3.473-1.757 9.406 2.971 10.208 3.562.459 5.012-1.198 5.3-3.741.142-.744.562-.789.695.058.204 2.61 2.787 4.132 4.806 3.75 5.527-.946 5.204-7.029 3.399-11.156-2.731-5.48-5.6-8.937-8.245-14.452-3.038 5.741-6.508 10.405-8.926 15.333" style="display:inline;fill:#d40000;fill-opacity:1" transform="translate(-2466.47 -171.627)"/></g></svg>