<svg xmlns="http://www.w3.org/2000/svg" viewBox="0 0 224.225 312.808"><g style="display:inline"><g style="display:inline" transform="translate(-7150.344 2747.31)"><rect width="223.228" height="311.811" x="7150.843" y="-2746.811" rx="10.63" ry="10.63" style="display:inline;fill:#fff;fill-opacity:1;stroke:#000;stroke-width:.99673343;stroke-miterlimit:4;stroke-dasharray:none;stroke-opacity:1"/><path d="M1095.474-1380.217c-1.357-9.126-1.335-32.702-.22-39.668 3.419-21.353 11.733-31.12 25.652-34.32 13.514-3.108 32.514.351 36.683 18.208l-11.314.21c-6.112-12.069-21.575-8.843-30.279-3.595-6.953 4.192-10.093 21.655-8.75 22.73-.01 0 13.144-9.556 23.503-8.851 22.15 2.264 31.281 21.111 30.51 38.924-.7 21.423-7.623 38.539-31.094 39.681-22.315-.842-32.55-12.788-34.691-33.32m55.04-5.664c.123-14.865-6.755-25.984-19.762-27.211-13.007-1.228-26.12 11.232-25.211 26.381.91 15.202 6.904 28.007 22.674 27.936 16.96-.076 22.211-16.53 22.299-27.106m631.691 802.212c1.356 9.125 1.334 32.701.22 39.667-3.42 21.353-11.733 31.12-25.652 34.32-13.514 3.109-32.515-.351-36.684-18.208l11.315-.21c6.111 12.07 21.575 8.843 30.279 3.595 6.952-4.192 10.092-21.655 8.749-22.73.01 0-13.144 9.556-23.503 8.852-22.149-2.265-31.28-21.112-30.51-38.925.7-21.423 7.624-38.538 31.094-39.68 22.315.841 32.551 12.787 34.692 33.319m-55.04 5.663c-.123 14.865 6.755 25.984 19.762 27.212 13.006 1.227 26.119-11.233 25.211-26.382-.911-15.202-6.904-28.007-22.674-27.936-16.96.076-22.211 16.53-22.3 27.106" style="display:inline;fill:#000;fill-opacity:1" transform="translate(6829.277 -2295.28)scale(.30106)"/></g><path d="M2144.734 346.7c.015-2.025-1.587-2.064-1.568-.585-.135 7.429-6.417 11.086-10.981 10.219-7.036-1.338-9.282-8.322-9.215-12.436.208-12.696 12.988-22.058 24.52-38.334 8.45 14.69 22.398 26.23 23.223 37.585 1.098 15.098-18.009 20.73-20.737 3.133-.175-1.243-1.64-1.801-1.526-.065.415 4.823-.174 6.831 5.266 18.72h-14.222c3.15-5.555 5.026-12.375 5.24-18.236m111.533-.001c.015-2.025-1.587-2.064-1.569-.585-.134 7.429-6.416 11.086-10.98 10.219-7.036-1.338-9.282-8.322-9.215-12.436.207-12.696 12.988-22.058 24.52-38.334 8.45 14.69 22.397 26.23 23.223 37.585 1.098 15.098-18.009 20.73-20.737 3.133-.176-1.243-1.64-1.801-1.526-.065.415 4.823-.175 6.831 5.266 18.72h-14.222c3.15-5.555 5.026-12.375 5.24-18.236m-111.522 76.018c.015 2.025-1.587 2.064-1.569.585-.134-7.428-6.416-11.086-10.98-10.218-7.036 1.337-9.282 8.322-9.215 12.435.207 12.696 12.988 22.058 24.52 38.335 8.45-14.691 22.397-26.23 23.223-37.586 1.098-15.098-18.009-20.73-20.737-3.133-.176 1.243-1.64 1.801-1.526.065.415-4.822-.175-6.831 5.266-18.72h-14.222c3.15 5.556 5.026 12.375 5.24 18.237m111.533 0c.015 2.025-1.587 2.064-1.569.585-.134-7.428-6.416-11.086-10.98-10.218-7.036 1.337-9.282 8.322-9.215 12.435.207 12.696 12.988 22.058 24.52 38.335 8.45-14.691 22.397-26.23 23.223-37.586 1.098-15.098-18.009-20.73-20.737-3.133-.176 1.243-1.64 1.801-1.526.065.415-4.822-.175-6.831 5.266-18.72h-14.222c3.15 5.556 5.025 12.375 5.24 18.237m0 98.598c.015 2.026-1.587 2.065-1.569.586-.134-7.429-6.416-11.086-10.98-10.219-7.036 1.338-9.282 8.322-9.215 12.436.207 12.696 12.988 22.058 24.52 38.334 8.45-14.69 22.397-26.23 23.223-37.586 1.098-15.098-18.009-20.73-20.737-3.132-.176 1.243-1.64 1.8-1.526.065.415-4.823-.175-6.832 5.266-18.72h-14.222c3.15 5.555 5.025 12.375 5.24 18.236m-111.533 0c.015 2.026-1.587 2.065-1.569.586-.134-7.429-6.416-11.086-10.98-10.219-7.036 1.338-9.282 8.322-9.215 12.436.207 12.696 12.988 22.058 24.52 38.334 8.45-14.69 22.397-26.23 23.223-37.586 1.098-15.098-18.009-20.73-20.737-3.132-.176 1.243-1.64 1.8-1.526.065.415-4.823-.175-6.832 5.266-18.72h-14.222c3.15 5.555 5.026 12.375 5.24 18.236m-36.963-174.747c.01-.871-.895-.464-1.018-.19-1.163 1.986-2.864 2.448-4.548 1.732-1.667-.71-2.604-2.28-2.453-4.522.31-3.438 3.035-7.2 4.355-9.326a69 69 0 0 0 4.076-7.155c1.698 3.364 2.559 4.321 4.406 7.392 1.626 2.704 3.892 5.353 4.067 8.622 0 2.485-1.046 4.832-3.4 5.26-1.33.242-2.578-.442-3.503-2.037-.282-.407-.849-.195-.84.362.166 2.093.956 3.983 2.83 6.211h-6.887c1.41-1.576 2.849-3.703 2.915-6.349m188.816 172.746c.01.872-.896.465-1.018.19-1.164-1.985-2.865-2.447-4.548-1.732-1.668.71-2.604 2.28-2.454 4.523.31 3.437 3.035 7.2 4.355 9.326a69 69 0 0 1 4.077 7.154c1.697-3.363 2.558-4.32 4.405-7.392 1.626-2.704 3.892-5.353 4.067-8.622 0-2.485-1.046-4.832-3.4-5.26-1.33-.241-2.578.442-3.503 2.038-.282.406-.849.194-.84-.362.166-2.094.956-3.984 2.83-6.212h-6.887c1.41 1.576 2.849 3.704 2.916 6.349" style="display:inline;fill:#000;fill-opacity:1" transform="translate(-2090.388 -277.642)"/></g></svg>