<svg xmlns="http://www.w3.org/2000/svg" viewBox="0 0 224.218 312.801"><g style="display:inline"><g style="display:inline" transform="translate(-6034.206 2435.495)"><rect width="223.228" height="311.811" x="6034.701" y="-2435" rx="10.63" ry="10.63" style="display:inline;fill:#fff;fill-opacity:1;stroke:#000;stroke-width:.99000001;stroke-miterlimit:3.79999995;stroke-dasharray:none;stroke-opacity:1"/></g><path d="M1984.51-1353.898c7.083-36.836 14.645-64.473 34.479-94.492h-40.307v12.922h-10.714v-24.35h58.972l7.27 11.428c-21.064 22.577-40.351 95.556-36.934 94.492zm659.478 726.728c-7.082 36.835-14.645 64.472-34.478 94.49h40.306v-12.92h10.714v24.35h-58.972l-7.269-11.43c21.064-22.576 40.35-95.555 36.934-94.49z" style="display:inline;fill:#000;fill-opacity:1" transform="translate(-584.917 454.613)scale(.30106)"/><path d="M1130.163 677.076c2.88-5.775 4.976-11.701 5.348-18.037.342-2.332-1.074-2.371-1.288-.729-4.076 15.593-25.763 11.37-25.017-3.296.605-11.895 12.42-14.454 18.582-10.565 2.434 1.433 2.296.575.968-.912-9.155-10.211-3.61-23.361 8.761-23.602 13.38.793 16.852 14.87 8.645 23.148-1.021.995-3.284 4.192.123 1.957 8.286-5.888 19.787.442 19.552 9.52-.432 16.74-20.839 17.988-25.203 4.006-.42-1.55-1.629-2.329-1.295.304.605 4.767 1.857 11.954 5.437 18.206zm0 100.248c2.88-5.775 4.976-11.7 5.348-18.037.342-2.332-1.074-2.37-1.288-.728-4.076 15.592-25.763 11.37-25.017-3.297.605-11.895 12.42-14.454 18.582-10.564 2.434 1.432 2.296.574.968-.912-9.155-10.212-3.61-23.362 8.761-23.603 13.38.794 16.852 14.87 8.645 23.149-1.021.994-3.284 4.19.123 1.956 8.286-5.888 19.787.443 19.552 9.52-.432 16.74-20.839 17.988-25.203 4.006-.42-1.55-1.629-2.328-1.295.305.605 4.766 1.857 11.953 5.437 18.205zm-101.533 0c2.88-5.775 4.976-11.7 5.348-18.037.342-2.332-1.074-2.37-1.288-.728-4.076 15.592-25.762 11.37-25.017-3.297.605-11.895 12.42-14.454 18.582-10.564 2.434 1.432 2.297.574.968-.912-9.154-10.212-3.61-23.362 8.762-23.603 13.38.794 16.85 14.87 8.644 23.149-1.02.994-3.284 4.19.123 1.956 8.287-5.888 19.787.443 19.553 9.52-.433 16.74-20.84 17.988-25.204 4.006-.42-1.55-1.629-2.328-1.295.305.605 4.766 1.857 11.953 5.438 18.205zm50.434-50.124c2.88-5.775 4.976-11.7 5.348-18.037.342-2.332-1.074-2.37-1.288-.729-4.076 15.593-25.763 11.37-25.017-3.296.605-11.895 12.42-14.454 18.582-10.565 2.434 1.433 2.296.575.968-.911-9.154-10.212-3.61-23.362 8.762-23.603 13.38.794 16.85 14.87 8.644 23.148-1.02.995-3.284 4.192.123 1.957 8.287-5.888 19.787.443 19.552 9.52-.432 16.74-20.839 17.988-25.203 4.006-.42-1.55-1.629-2.328-1.295.305.605 4.766 1.857 11.953 5.438 18.205zm-50.434-50.124c2.88-5.775 4.976-11.701 5.348-18.037.342-2.332-1.074-2.371-1.288-.729-4.076 15.593-25.762 11.37-25.017-3.296.605-11.895 12.42-14.454 18.582-10.565 2.434 1.433 2.297.575.968-.912-9.154-10.211-3.61-23.361 8.762-23.602 13.38.793 16.85 14.87 8.644 23.148-1.02.995-3.284 4.192.123 1.957 8.287-5.888 19.787.442 19.553 9.52-.433 16.74-20.84 17.988-25.204 4.006-.42-1.55-1.629-2.329-1.295.304.605 4.767 1.857 11.954 5.438 18.206zm116.235 141.706c-2.879 5.775-4.976 11.7-5.348 18.037-.342 2.332 1.075 2.371 1.288.729 4.076-15.593 25.763-11.37 25.017 3.296-.605 11.895-12.42 14.454-18.582 10.565-2.434-1.433-2.296-.575-.968.912 9.155 10.211 3.61 23.361-8.761 23.602-13.38-.793-16.851-14.87-8.644-23.148 1.02-.995 3.283-4.192-.123-1.957-8.287 5.888-19.788-.442-19.553-9.52.433-16.74 20.839-17.988 25.203-4.006.42 1.55 1.63 2.329 1.295-.304-.605-4.767-1.856-11.954-5.437-18.206zm-101.533 0c-2.879 5.775-4.976 11.7-5.348 18.037-.341 2.332 1.075 2.371 1.288.729 4.077-15.593 25.763-11.37 25.017 3.296-.605 11.895-12.42 14.454-18.582 10.565-2.434-1.433-2.296-.575-.968.912 9.155 10.211 3.61 23.361-8.761 23.602-13.38-.793-16.851-14.87-8.644-23.148 1.02-.995 3.283-4.192-.123-1.957-8.287 5.888-19.787-.442-19.553-9.52.433-16.74 20.84-17.988 25.203-4.006.42 1.55 1.63 2.329 1.295-.304-.605-4.767-1.856-11.954-5.437-18.206zM988.2 666.339c1.193-2.445 2.353-4.72 2.985-7.401.419-2.528-.439-1.589-.925.068-.722 2.298-2.723 3.344-4.58 3.37-3.372.045-5.053-2.605-4.948-5.455-.368-2.998 2.67-5.12 4.961-4.957 1.723.123 3.224 1.053 4.133 1.776.597.315 1.234.454.345-.359-1.677-1.833-3.076-2.964-3.046-5.71.03-2.58 2.234-5.269 5.156-5.184 3.651.105 5.312 2.89 5.303 5.48-.01 1.888-.954 3.626-2.412 4.703-.944.766-.679 1.34.398.615 1.035-.892 2.267-1.283 3.545-1.31 3.49-.055 4.855 2.961 4.655 5.764-.187 2.625-2.423 5.328-5.369 5.022-2.63-.301-4.013-2.51-4.805-4.777-.262-.695-.676-.883-.665.153.608 5.058 2.492 8.205 2.506 8.202zm196.905 162.003c-1.192 2.445-2.352 4.72-2.984 7.401-.42 2.528.438 1.589.925-.068.721-2.298 2.722-3.344 4.58-3.369 3.37-.046 5.052 2.604 4.948 5.454.368 2.998-2.671 5.12-4.962 4.957-1.722-.123-3.224-1.052-4.133-1.776-.596-.315-1.234-.454-.345.359 1.678 1.833 3.077 2.964 3.046 5.71-.029 2.58-2.233 5.269-5.155 5.185-3.652-.106-5.312-2.89-5.304-5.481.01-1.888.954-3.626 2.412-4.703.944-.766.68-1.34-.398-.615-1.035.893-2.267 1.283-3.545 1.31-3.49.055-4.855-2.961-4.655-5.764.188-2.625 2.423-5.328 5.37-5.022 2.63.301 4.012 2.51 4.804 4.777.263.695.676.883.665-.153-.608-5.058-2.492-8.205-2.505-8.202z" style="display:inline;fill:#000;fill-opacity:1" transform="translate(-974.543 -589.457)"/></g></svg>