<svg xmlns="http://www.w3.org/2000/svg" viewBox="0 0 224.225 312.808"><g style="display:inline"><g style="display:inline" transform="translate(-6257.43 2435.498)"><rect width="223.228" height="311.811" x="6257.929" y="-2435" rx="10.63" ry="10.63" style="display:inline;fill:#fff;fill-opacity:1;stroke:#000;stroke-width:.99673343;stroke-miterlimit:4;stroke-dasharray:none;stroke-opacity:1"/></g><path d="M2971.742-1386.815c.532-14.533 5.882-19.99 16.42-27.6-8.405-5.963-11.95-14.737-11.233-22.212 1.732-18.093 15.976-27.144 31.505-26.75s28.913 12.5 29.956 25.648c.908 11.437-2.559 16.948-10.82 22.97 9.81 8.11 16.078 13.452 15.84 27.768s-12.64 31.356-34.26 31.879-37.94-17.17-37.408-31.703m60.362.048c.927-13.16-10.922-22.04-24.292-22.178-13.028-.134-24.683 10.784-24.685 22.6 0 12.691 15.158 19.586 24.948 19.622 11.899.044 23.23-8.71 24.029-20.044m-4.278-47.078c.258-11.086-10.154-19.03-20.888-18.711-9.551.284-19.668 7.443-19.673 16.71-.01 11.592 11.5 17.38 21.315 17.598 8.903.198 19.05-7.223 19.246-15.597m639.922 833.281c-.532 14.533-5.882 19.99-16.421 27.6 8.406 5.963 11.95 14.737 11.234 22.212-1.732 18.092-15.976 27.144-31.505 26.75s-28.913-12.501-29.957-25.649c-.908-11.437 2.56-16.948 10.82-22.969-9.808-8.11-16.078-13.452-15.84-27.769s12.641-31.355 34.26-31.878c21.62-.523 37.94 17.17 37.409 31.703m-60.362-.048c-.927 13.16 10.922 22.04 24.292 22.178 13.028.134 24.683-10.784 24.685-22.6 0-12.692-15.158-19.586-24.948-19.622-11.9-.044-23.23 8.71-24.029 20.044m4.278 47.078c-.259 11.086 10.154 19.03 20.888 18.711 9.551-.284 19.667-7.443 19.672-16.71.01-11.592-11.5-17.38-21.314-17.598-8.903-.198-19.05 7.223-19.246 15.597" style="display:inline;fill:#000;fill-opacity:1" transform="translate(-888.089 455.566)scale(.30106)"/><path d="M1354.765 674.906c2.879-5.776 4.976-11.701 5.348-18.038.342-2.331-1.075-2.37-1.288-.728-4.077 15.593-25.763 11.37-25.017-3.297.605-11.894 12.42-14.453 18.582-10.564 2.434 1.433 2.296.574.968-.912-9.155-10.211-3.61-23.362 8.761-23.602 13.38.793 16.851 14.87 8.644 23.148-1.02.995-3.283 4.191.123 1.956 8.287-5.888 19.788.443 19.553 9.52-.433 16.74-20.839 17.988-25.203 4.007-.42-1.55-1.63-2.329-1.295.304.605 4.767 1.856 11.953 5.437 18.206zm0 100.248c2.879-5.775 4.976-11.7 5.348-18.037.342-2.332-1.075-2.371-1.288-.729-4.077 15.593-25.763 11.37-25.017-3.296.605-11.895 12.42-14.454 18.582-10.565 2.434 1.433 2.296.575.968-.912-9.155-10.211-3.61-23.361 8.761-23.602 13.38.793 16.851 14.87 8.644 23.148-1.02.995-3.283 4.192.123 1.957 8.287-5.888 19.788.442 19.553 9.52-.433 16.74-20.839 17.988-25.203 4.006-.42-1.55-1.63-2.328-1.295.304.605 4.767 1.856 11.954 5.437 18.206zm-103.533 0c2.88-5.775 4.976-11.7 5.348-18.037.342-2.332-1.074-2.371-1.288-.729-4.076 15.593-25.763 11.37-25.017-3.296.605-11.895 12.42-14.454 18.582-10.565 2.434 1.433 2.296.575.968-.912-9.155-10.211-3.61-23.361 8.761-23.602 13.38.793 16.852 14.87 8.645 23.148-1.02.995-3.284 4.192.123 1.957 8.286-5.888 19.787.442 19.552 9.52-.432 16.74-20.839 17.988-25.203 4.006-.42-1.55-1.629-2.328-1.295.304.605 4.767 1.857 11.954 5.438 18.206zm50.183-50.124c2.88-5.776 4.976-11.701 5.348-18.037.342-2.332-1.074-2.371-1.288-.729-4.076 15.593-25.762 11.37-25.017-3.296.605-11.895 12.42-14.454 18.582-10.565 2.434 1.433 2.297.575.968-.912-9.154-10.211-3.61-23.362 8.762-23.602 13.38.793 16.85 14.87 8.644 23.148-1.02.995-3.284 4.191.123 1.956 8.287-5.888 19.787.443 19.552 9.521-.432 16.739-20.839 17.987-25.203 4.006-.42-1.55-1.629-2.329-1.295.304.605 4.767 1.857 11.954 5.438 18.206zm-50.183-50.124c2.88-5.776 4.976-11.701 5.348-18.038.342-2.331-1.074-2.37-1.288-.728-4.076 15.593-25.763 11.37-25.017-3.297.605-11.894 12.42-14.453 18.582-10.564 2.434 1.433 2.296.574.968-.912-9.155-10.211-3.61-23.362 8.761-23.602 13.38.793 16.852 14.87 8.645 23.148-1.02.995-3.284 4.191.123 1.956 8.286-5.888 19.787.443 19.552 9.52-.432 16.74-20.839 17.988-25.203 4.007-.42-1.55-1.629-2.329-1.295.304.605 4.767 1.857 11.953 5.438 18.206zm118.235 141.706c-2.88 5.775-4.976 11.7-5.348 18.037-.342 2.332 1.074 2.37 1.288.728 4.076-15.592 25.763-11.37 25.017 3.297-.605 11.895-12.42 14.454-18.582 10.565-2.434-1.433-2.296-.575-.968.911 9.155 10.212 3.61 23.362-8.761 23.603-13.38-.794-16.852-14.87-8.645-23.149 1.021-.994 3.284-4.19-.123-1.956-8.286 5.888-19.787-.443-19.552-9.52.432-16.74 20.839-17.988 25.203-4.006.42 1.55 1.629 2.328 1.295-.305-.605-4.766-1.857-11.953-5.437-18.205zm-53.35-49.3c-2.879 5.776-4.976 11.701-5.348 18.038-.341 2.331 1.075 2.37 1.288.728 4.077-15.593 25.763-11.37 25.017 3.297-.605 11.895-12.42 14.454-18.582 10.564-2.434-1.433-2.296-.574-.968.912 9.155 10.211 3.61 23.362-8.761 23.602-13.38-.793-16.851-14.87-8.644-23.148 1.02-.994 3.283-4.191-.123-1.956-8.287 5.888-19.788-.443-19.553-9.52.433-16.74 20.84-17.988 25.203-4.007.42 1.55 1.63 2.329 1.295-.304-.605-4.767-1.856-11.953-5.437-18.206zm-50.183 49.3c-2.879 5.775-4.976 11.7-5.348 18.037-.342 2.332 1.075 2.37 1.288.728 4.077-15.592 25.763-11.37 25.017 3.297-.605 11.895-12.42 14.454-18.582 10.565-2.434-1.433-2.296-.575-.968.911 9.155 10.212 3.61 23.362-8.761 23.603-13.38-.794-16.851-14.87-8.644-23.149 1.02-.994 3.283-4.19-.123-1.956-8.287 5.888-19.788-.443-19.553-9.52.433-16.74 20.84-17.988 25.203-4.006.42 1.55 1.63 2.328 1.295-.305-.605-4.766-1.856-11.953-5.437-18.205zm-53.751-149.323c1.192-2.445 2.352-4.721 2.984-7.401.42-2.528-.438-1.589-.925.068-.721 2.298-2.723 3.344-4.58 3.369-3.371.046-5.053-2.604-4.948-5.454-.368-2.998 2.671-5.12 4.962-4.957 1.722.123 3.224 1.052 4.133 1.775.596.316 1.234.455.345-.358-1.678-1.833-3.077-2.964-3.046-5.71.029-2.58 2.233-5.269 5.155-5.185 3.651.106 5.312 2.89 5.303 5.481-.01 1.888-.953 3.626-2.411 4.703-.944.766-.68 1.34.398.614 1.034-.892 2.267-1.282 3.544-1.31 3.49-.054 4.855 2.962 4.655 5.765-.187 2.625-2.422 5.328-5.369 5.022-2.63-.302-4.013-2.51-4.805-4.777-.262-.695-.676-.883-.664.153.608 5.058 2.491 8.205 2.505 8.202z" style="display:inline;fill:#000;fill-opacity:1" transform="translate(-1198.227 -589.453)"/><path d="M90.785 1369.111c-1.192 2.445-2.352 4.72-2.985 7.401-.419 2.528.439 1.589.926-.068.72-2.297 2.722-3.344 4.58-3.369 3.37-.045 5.052 2.604 4.948 5.454.368 2.999-2.672 5.12-4.962 4.957-1.723-.123-3.224-1.052-4.133-1.775-.596-.316-1.234-.455-.345.358 1.678 1.833 3.077 2.964 3.046 5.71-.029 2.58-2.233 5.269-5.155 5.185-3.652-.106-5.312-2.89-5.304-5.48.01-1.89.954-3.627 2.412-4.703.944-.767.68-1.34-.398-.615-1.035.892-2.267 1.282-3.545 1.31-3.49.055-4.855-2.962-4.655-5.765.187-2.625 2.423-5.328 5.37-5.022 2.63.302 4.012 2.51 4.804 4.777.262.695.676.883.665-.153-.608-5.058-2.492-8.205-2.506-8.202z" style="display:inline;fill:#000;fill-opacity:1" transform="translate(119.484 -1130.222)"/></g></svg>