<svg xmlns="http://www.w3.org/2000/svg" viewBox="0 0 224.225 312.808"><g style="display:inline"><g style="display:inline" transform="translate(-6480.66 2435.498)"><rect width="223.228" height="311.811" x="6481.158" y="-2435" rx="10.63" ry="10.63" style="display:inline;fill:#fff;fill-opacity:1;stroke:#000;stroke-width:.99673343;stroke-miterlimit:4;stroke-dasharray:none;stroke-opacity:1"/></g><path d="m3799.815-1365.606 10.053-3.129c3.793 9.95 11.46 12.884 19.57 12.253 14.555-1.131 19.386-17.1 20.478-31.22-5.672 5.892-14.197 8.887-21.456 8.595-23.193-1.227-29.129-19.446-29.345-38.535-.644-16.097 6.137-27.754 17.765-33.094 6.152-2.712 20.244-2.712 26.438.494 14.223 7.361 19.487 20.091 18.532 50.458.015 24.99-5.396 54.1-32.676 54.723-15.77 2.14-27.743-9.898-29.359-20.545m39.485-27.382c4.732-2.941 7.403-5.7 9.525-9.839 1.741-3.396 2.33-5.159 1.834-12.191-1.279-18.12-10.959-28.392-24.993-26.352-7.828 1.138-12.101 5.442-14.558 13.446-4.536 14.778 1.214 32.077 11.986 36.062 4.86 1.797 12.339 1.277 16.206-1.126m644.879 801.674-10.054 3.128c-3.792-9.949-11.459-12.883-19.569-12.253-14.555 1.132-19.386 17.102-20.478 31.221 5.672-5.893 14.197-8.887 21.456-8.595 23.193 1.227 29.129 19.446 29.345 38.535.644 16.097-6.137 27.754-17.765 33.094-6.152 2.712-20.244 2.712-26.438-.494-14.223-7.361-19.487-20.091-18.532-50.458-.015-24.99 5.396-54.1 32.675-54.723 15.77-2.14 27.744 9.898 29.36 20.545m-39.485 27.382c-4.732 2.941-7.403 5.7-9.525 9.838-1.741 3.397-2.33 5.16-1.834 12.192 1.279 18.12 10.959 28.392 24.993 26.352 7.828-1.139 12.101-5.442 14.558-13.446 4.536-14.778-1.214-32.077-11.987-36.062-4.858-1.797-12.338-1.277-16.205 1.126" style="display:inline;fill:#000;fill-opacity:1" transform="translate(-1135.255 450.981)scale(.30106)"/><path d="M1576.285 741.275c2.879-5.776 4.976-11.701 5.348-18.037.342-2.332-1.075-2.371-1.288-.73-4.076 15.594-25.763 11.371-25.017-3.296.605-11.894 12.42-14.453 18.582-10.564 2.434 1.433 2.296.575.968-.912-9.155-10.211-3.61-23.362 8.761-23.602 13.38.793 16.851 14.87 8.644 23.148-1.02.995-3.283 4.191.123 1.956 8.287-5.888 19.788.443 19.553 9.521-.433 16.739-20.839 17.987-25.203 4.006-.42-1.55-1.63-2.329-1.295.304.605 4.767 1.856 11.954 5.437 18.206zm-50.82 27.153c2.879-5.776 4.976-11.701 5.348-18.038.341-2.331-1.075-2.37-1.288-.728-4.077 15.592-25.763 11.37-25.017-3.297.605-11.895 12.42-14.454 18.582-10.564 2.434 1.432 2.296.574.968-.912-9.155-10.212-3.61-23.362 8.761-23.603 13.38.794 16.851 14.87 8.644 23.149-1.02.994-3.283 4.191.123 1.956 8.287-5.888 19.788.443 19.553 9.52-.433 16.74-20.84 17.988-25.203 4.007-.42-1.55-1.63-2.329-1.295.304.605 4.766 1.856 11.953 5.437 18.206zm-50.713-27.153c2.88-5.776 4.976-11.701 5.348-18.037.342-2.332-1.074-2.371-1.288-.73-4.076 15.594-25.763 11.371-25.017-3.296.605-11.894 12.42-14.453 18.582-10.564 2.434 1.433 2.296.575.968-.912-9.155-10.211-3.61-23.362 8.761-23.602 13.38.793 16.852 14.87 8.645 23.148-1.021.995-3.284 4.191.123 1.956 8.286-5.888 19.787.443 19.552 9.521-.432 16.739-20.839 17.987-25.203 4.006-.42-1.55-1.629-2.329-1.295.304.605 4.767 1.857 11.954 5.437 18.206zm101.533-65.331c2.879-5.775 4.976-11.7 5.348-18.037.342-2.332-1.075-2.37-1.288-.729-4.076 15.593-25.763 11.37-25.017-3.296.605-11.895 12.42-14.454 18.582-10.565 2.434 1.433 2.296.575.968-.911-9.155-10.212-3.61-23.362 8.761-23.603 13.38.794 16.851 14.87 8.644 23.148-1.02.995-3.283 4.192.123 1.957 8.287-5.888 19.788.443 19.553 9.52-.433 16.74-20.839 17.988-25.203 4.006-.42-1.55-1.63-2.328-1.295.305.605 4.766 1.856 11.953 5.437 18.205zm-101.533 0c2.88-5.775 4.976-11.7 5.348-18.037.342-2.332-1.074-2.37-1.288-.729-4.076 15.593-25.763 11.37-25.017-3.296.605-11.895 12.42-14.454 18.582-10.565 2.434 1.433 2.296.575.968-.911-9.155-10.212-3.61-23.362 8.761-23.603 13.38.794 16.852 14.87 8.645 23.148-1.021.995-3.284 4.192.123 1.957 8.286-5.888 19.787.443 19.552 9.52-.432 16.74-20.839 17.988-25.203 4.006-.42-1.55-1.629-2.328-1.295.305.605 4.766 1.857 11.953 5.437 18.205zm14.702 140.192c-2.879 5.775-4.976 11.701-5.348 18.037-.342 2.332 1.075 2.371 1.288.729 4.076-15.593 25.763-11.37 25.017 3.296-.605 11.895-12.42 14.454-18.582 10.565-2.434-1.433-2.296-.575-.968.912 9.155 10.211 3.61 23.361-8.761 23.602-13.38-.793-16.851-14.87-8.644-23.148 1.02-.995 3.283-4.191-.123-1.956-8.287 5.888-19.788-.443-19.553-9.521.433-16.74 20.839-17.988 25.203-4.006.42 1.55 1.63 2.329 1.295-.304-.605-4.767-1.856-11.954-5.437-18.206zm101.533 0c-2.88 5.775-4.976 11.701-5.348 18.037-.342 2.332 1.074 2.371 1.288.729 4.076-15.593 25.763-11.37 25.017 3.296-.605 11.895-12.42 14.454-18.582 10.565-2.434-1.433-2.296-.575-.968.912 9.155 10.211 3.61 23.361-8.761 23.602-13.38-.793-16.852-14.87-8.645-23.148 1.021-.995 3.284-4.191-.123-1.956-8.286 5.888-19.787-.443-19.552-9.521.432-16.74 20.839-17.988 25.203-4.006.42 1.55 1.629 2.329 1.295-.304-.605-4.767-1.857-11.954-5.437-18.206zm0-65.106c-2.88 5.776-4.976 11.702-5.348 18.038-.342 2.332 1.074 2.37 1.288.728 4.076-15.592 25.763-11.37 25.017 3.297-.605 11.895-12.42 14.454-18.582 10.565-2.434-1.433-2.296-.575-.968.911 9.155 10.212 3.61 23.362-8.761 23.603-13.38-.794-16.852-14.87-8.645-23.149 1.021-.994 3.284-4.19-.123-1.956-8.286 5.888-19.787-.443-19.552-9.52.432-16.74 20.839-17.988 25.203-4.006.42 1.55 1.629 2.328 1.295-.305-.605-4.766-1.857-11.953-5.437-18.205zm-101.533 0c-2.879 5.776-4.976 11.702-5.348 18.038-.342 2.332 1.075 2.37 1.288.728 4.076-15.592 25.763-11.37 25.017 3.297-.605 11.895-12.42 14.454-18.582 10.565-2.434-1.433-2.296-.575-.968.911 9.155 10.212 3.61 23.362-8.761 23.603-13.38-.794-16.851-14.87-8.644-23.149 1.02-.994 3.283-4.19-.123-1.956-8.287 5.888-19.788-.443-19.553-9.52.433-16.74 20.839-17.988 25.203-4.006.42 1.55 1.63 2.328 1.295-.305-.605-4.766-1.856-11.953-5.437-18.205zm-55.041-88.326c1.192-2.445 2.352-4.721 2.984-7.401.42-2.528-.438-1.589-.925.068-.721 2.297-2.723 3.344-4.58 3.369-3.371.045-5.053-2.604-4.948-5.454-.368-2.999 2.671-5.12 4.962-4.957 1.722.123 3.224 1.052 4.133 1.775.596.316 1.234.455.345-.358-1.678-1.833-3.077-2.964-3.046-5.71.029-2.58 2.233-5.269 5.155-5.185 3.651.106 5.312 2.89 5.303 5.48-.01 1.89-.953 3.627-2.411 4.704-.944.766-.68 1.34.398.614 1.034-.892 2.267-1.282 3.544-1.31 3.49-.054 4.855 2.962 4.655 5.765-.187 2.625-2.422 5.328-5.369 5.022-2.63-.302-4.013-2.51-4.805-4.777-.262-.695-.676-.883-.664.153.608 5.058 2.491 8.205 2.505 8.202zm196.904 164.673c-1.192 2.445-2.352 4.72-2.984 7.4-.42 2.528.438 1.59.925-.068.721-2.297 2.723-3.343 4.58-3.369 3.371-.045 5.053 2.605 4.948 5.454.368 2.999-2.67 5.12-4.962 4.957-1.722-.123-3.224-1.052-4.133-1.775-.596-.315-1.234-.455-.344.358 1.677 1.833 3.076 2.965 3.046 5.711-.03 2.579-2.234 5.268-5.156 5.184-3.651-.105-5.312-2.89-5.303-5.48.01-1.889.953-3.627 2.411-4.703.944-.766.68-1.34-.397-.615-1.035.892-2.268 1.283-3.545 1.31-3.49.055-4.855-2.962-4.655-5.764.187-2.626 2.422-5.329 5.369-5.023 2.63.302 4.013 2.51 4.805 4.777.262.695.676.883.664-.153-.607-5.057-2.491-8.204-2.505-8.201z" style="display:inline;fill:#000;fill-opacity:1" transform="translate(-1420.753 -589.453)"/></g></svg>