<svg xmlns="http://www.w3.org/2000/svg" viewBox="0 0 224.225 312.808"><g style="display:inline"><g transform="translate(-6480.66 2435.498)"><rect width="223.228" height="311.811" x="6481.158" y="-2435" rx="10.63" ry="10.63" style="display:inline;fill:#fff;fill-opacity:1;stroke:#000;stroke-width:.99673343;stroke-miterlimit:4;stroke-dasharray:none;stroke-opacity:1"/><path d="m3799.815-1365.606 10.053-3.129c3.793 9.95 11.46 12.884 19.57 12.253 14.555-1.131 19.386-17.1 20.478-31.22-5.672 5.892-14.197 8.887-21.456 8.595-23.193-1.227-29.129-19.446-29.345-38.535-.644-16.097 6.137-27.754 17.765-33.094 6.152-2.712 20.244-2.712 26.438.494 14.223 7.361 19.487 20.091 18.532 50.458.015 24.99-5.396 54.1-32.676 54.723-15.77 2.14-27.743-9.898-29.359-20.545m39.485-27.382c4.732-2.941 7.403-5.7 9.525-9.839 1.741-3.396 2.33-5.159 1.834-12.191-1.279-18.12-10.959-28.392-24.993-26.352-7.828 1.138-12.101 5.442-14.558 13.446-4.536 14.778 1.214 32.077 11.986 36.062 4.86 1.797 12.339 1.277 16.206-1.126m644.879 801.674-10.054 3.128c-3.792-9.949-11.459-12.883-19.569-12.253-14.555 1.132-19.386 17.102-20.478 31.221 5.672-5.893 14.197-8.887 21.456-8.595 23.193 1.227 29.129 19.446 29.345 38.535.644 16.097-6.137 27.754-17.765 33.094-6.152 2.712-20.244 2.712-26.438-.494-14.223-7.361-19.487-20.091-18.532-50.458-.015-24.99 5.396-54.1 32.675-54.723 15.77-2.14 27.744 9.898 29.36 20.545m-39.485 27.382c-4.732 2.941-7.403 5.7-9.525 9.838-1.741 3.397-2.33 5.16-1.834 12.192 1.279 18.12 10.959 28.392 24.993 26.352 7.828-1.139 12.101-5.442 14.558-13.446 4.536-14.778-1.214-32.077-11.987-36.062-4.858-1.797-12.338-1.277-16.205 1.126" style="display:inline;fill:#d40000;fill-opacity:1" transform="translate(5345.453 -1984.517)scale(.30106)"/></g><path d="M1805.866 542.262c-1.583-3.472-1.757-9.406 2.97-10.208 3.563-.459 5.013 1.198 5.3 3.742.143.743.563.788.696-.059.204-2.609 2.787-4.132 4.806-3.75 5.527.946 5.204 7.029 3.399 11.156-2.731 5.48-5.601 8.938-8.246 14.452-3.038-5.741-6.507-10.405-8.925-15.333m36.268-29.65c7.144-.474 10.869 5.628 11.595 10.437.434.764.671.548.837-.043.35-6.174 5.875-11.22 10.993-10.53 8.328.109 13.39 9.376 11.966 17.219-1.738 9.582-6.9 15.351-10.808 21.293-4.42 6.152-10.372 15.04-12.29 19.317 0 0-6.048-9.205-13.917-20.03-5.262-7.238-9.473-15.082-9.865-21.835-.448-7.716 2.72-14.632 11.49-15.828m109.532 0c7.144-.474 10.868 5.628 11.595 10.437.433.764.67.548.837-.043.35-6.174 5.875-11.22 10.993-10.53 8.328.109 13.39 9.376 11.966 17.219-1.738 9.582-6.9 15.351-10.808 21.293-4.421 6.152-10.373 15.04-12.29 19.317 0 0-6.048-9.205-13.917-20.03-5.262-7.238-9.473-15.082-9.865-21.835-.448-7.716 2.72-14.632 11.489-15.828m0 65.331c7.144-.475 10.868 5.627 11.595 10.436.433.764.67.549.837-.042.35-6.174 5.875-11.22 10.993-10.53 8.328.108 13.39 9.375 11.966 17.219-1.738 9.581-6.9 15.35-10.808 21.293-4.421 6.152-10.373 15.04-12.29 19.317 0 0-6.048-9.205-13.917-20.03-5.262-7.239-9.473-15.082-9.865-21.835-.448-7.716 2.72-14.632 11.489-15.828m-54.82 33.153c7.144-.475 10.868 5.627 11.595 10.436.433.764.67.549.837-.042.35-6.174 5.875-11.22 10.993-10.53 8.328.108 13.39 9.375 11.966 17.218-1.738 9.582-6.9 15.351-10.808 21.293-4.421 6.153-10.373 15.04-12.29 19.317 0 0-6.048-9.204-13.917-20.03-5.262-7.238-9.473-15.082-9.865-21.835-.448-7.715 2.72-14.631 11.489-15.827m-54.713-33.153c7.144-.475 10.869 5.627 11.595 10.436.434.764.671.549.837-.042.35-6.174 5.875-11.22 10.993-10.53 8.328.108 13.39 9.375 11.966 17.219-1.738 9.581-6.9 15.35-10.808 21.293-4.42 6.152-10.372 15.04-12.29 19.317 0 0-6.048-9.205-13.917-20.03-5.262-7.239-9.473-15.082-9.865-21.835-.448-7.716 2.72-14.632 11.49-15.828m109.532 124.39c7.144.474 10.868-5.627 11.595-10.436.433-.764.67-.549.837.042.35 6.174 5.875 11.22 10.993 10.53 8.328-.108 13.39-9.375 11.966-17.219-1.738-9.581-6.9-15.35-10.808-21.293-4.421-6.152-10.373-15.04-12.29-19.317 0 0-6.048 9.205-13.917 20.03-5.262 7.239-9.473 15.082-9.865 21.835-.448 7.716 2.72 14.632 11.489 15.828m0 65.106c7.144.474 10.868-5.628 11.595-10.437.433-.764.67-.549.837.042.35 6.175 5.875 11.22 10.993 10.53 8.328-.108 13.39-9.375 11.966-17.218-1.738-9.582-6.9-15.351-10.808-21.293-4.421-6.153-10.373-15.04-12.29-19.317 0 0-6.048 9.204-13.917 20.03-5.262 7.238-9.473 15.082-9.865 21.835-.448 7.715 2.72 14.632 11.489 15.827m-109.533.001c7.144.474 10.869-5.628 11.595-10.437.434-.764.671-.549.837.042.35 6.175 5.875 11.22 10.993 10.53 8.328-.108 13.39-9.375 11.966-17.218-1.738-9.582-6.9-15.351-10.808-21.293-4.42-6.153-10.372-15.04-12.29-19.317 0 0-6.048 9.204-13.917 20.03-5.262 7.238-9.473 15.082-9.865 21.835-.448 7.715 2.72 14.632 11.49 15.827m-.001-65.105c7.144.474 10.869-5.627 11.595-10.436.434-.764.671-.549.837.042.35 6.174 5.875 11.22 10.993 10.53 8.328-.108 13.39-9.375 11.966-17.219-1.738-9.581-6.9-15.35-10.808-21.293-4.42-6.152-10.372-15.04-12.29-19.317 0 0-6.048 9.205-13.917 20.03-5.262 7.239-9.473 15.082-9.865 21.835-.448 7.716 2.72 14.632 11.49 15.828m152.546 30.787c-1.583 3.472-1.757 9.405 2.971 10.207 3.562.459 5.012-1.198 5.3-3.741.142-.743.562-.789.695.058.204 2.61 2.787 4.133 4.806 3.75 5.527-.946 5.204-7.029 3.399-11.156-2.731-5.48-5.6-8.937-8.245-14.452-3.038 5.742-6.508 10.406-8.926 15.333" style="display:inline;fill:#d40000;fill-opacity:1" transform="translate(-1796.784 -483.438)"/></g></svg>