<svg xmlns="http://www.w3.org/2000/svg" viewBox="0 0 224.225 312.808"><g style="display:inline"><g style="display:inline" transform="translate(-6480.66 2435.498)"><rect width="223.228" height="311.811" x="6481.158" y="-2435" rx="10.63" ry="10.63" style="display:inline;fill:#fff;fill-opacity:1;stroke:#000;stroke-width:.99673343;stroke-miterlimit:4;stroke-dasharray:none;stroke-opacity:1"/><path d="m3799.815-1365.606 10.053-3.129c3.793 9.95 11.46 12.884 19.57 12.253 14.555-1.131 19.386-17.1 20.478-31.22-5.672 5.892-14.197 8.887-21.456 8.595-23.193-1.227-29.129-19.446-29.345-38.535-.644-16.097 6.137-27.754 17.765-33.094 6.152-2.712 20.244-2.712 26.438.494 14.223 7.361 19.487 20.091 18.532 50.458.015 24.99-5.396 54.1-32.676 54.723-15.77 2.14-27.743-9.898-29.359-20.545m39.485-27.382c4.732-2.941 7.403-5.7 9.525-9.839 1.741-3.396 2.33-5.159 1.834-12.191-1.279-18.12-10.959-28.392-24.993-26.352-7.828 1.138-12.101 5.442-14.558 13.446-4.536 14.778 1.214 32.077 11.986 36.062 4.86 1.797 12.339 1.277 16.206-1.126m644.879 801.674-10.054 3.128c-3.792-9.949-11.459-12.883-19.569-12.253-14.555 1.132-19.386 17.102-20.478 31.221 5.672-5.893 14.197-8.887 21.456-8.595 23.193 1.227 29.129 19.446 29.345 38.535.644 16.097-6.137 27.754-17.765 33.094-6.152 2.712-20.244 2.712-26.438-.494-14.223-7.361-19.487-20.091-18.532-50.458-.015-24.99 5.396-54.1 32.675-54.723 15.77-2.14 27.744 9.898 29.36 20.545m-39.485 27.382c-4.732 2.941-7.403 5.7-9.525 9.838-1.741 3.397-2.33 5.16-1.834 12.192 1.279 18.12 10.959 28.392 24.993 26.352 7.828-1.139 12.101-5.442 14.558-13.446 4.536-14.778-1.214-32.077-11.987-36.062-4.858-1.797-12.338-1.277-16.205 1.126" style="display:inline;fill:#000;fill-opacity:1" transform="translate(5345.453 -1984.517)scale(.30106)"/></g><path d="M1473.963 658.824c.015-2.025-1.587-2.064-1.569-.586-.134 7.43-6.416 11.087-10.98 10.22-7.037-1.338-9.282-8.323-9.215-12.436.207-12.697 12.987-22.059 24.52-38.335 8.45 14.691 22.397 26.23 23.223 37.586 1.097 15.098-18.01 20.73-20.737 3.133-.176-1.243-1.64-1.801-1.526-.065.414 4.822-.175 6.831 5.265 18.72h-14.221c3.15-5.556 5.025-12.375 5.24-18.237m111.532 0c.015-2.025-1.586-2.064-1.568-.586-.134 7.43-6.417 11.087-10.98 10.22-7.037-1.338-9.283-8.323-9.216-12.436.208-12.697 12.988-22.059 24.52-38.335 8.45 14.691 22.398 26.23 23.224 37.586 1.097 15.098-18.01 20.73-20.737 3.133-.176-1.243-1.64-1.801-1.526-.065.414 4.822-.175 6.831 5.265 18.72h-14.221c3.15-5.556 5.025-12.375 5.24-18.237m-.001 65.331c.015-2.026-1.586-2.065-1.568-.586-.134 7.429-6.417 11.087-10.98 10.219-7.037-1.338-9.283-8.322-9.216-12.436.208-12.696 12.988-22.058 24.52-38.334 8.45 14.69 22.398 26.23 23.224 37.586 1.097 15.098-18.01 20.73-20.737 3.132-.176-1.243-1.64-1.8-1.526-.065.414 4.823-.175 6.832 5.265 18.72h-14.221c3.15-5.555 5.025-12.375 5.24-18.236m-111.533 0c.015-2.026-1.587-2.065-1.569-.586-.134 7.429-6.416 11.087-10.98 10.219-7.037-1.338-9.282-8.322-9.215-12.436.207-12.696 12.987-22.058 24.52-38.334 8.45 14.69 22.397 26.23 23.223 37.586 1.097 15.098-18.01 20.73-20.737 3.132-.176-1.243-1.64-1.8-1.526-.065.414 4.823-.175 6.832 5.265 18.72h-14.221c3.15-5.555 5.025-12.375 5.24-18.236m111.543 109.126c.015 2.026-1.587 2.065-1.568.586-.135-7.428-6.417-11.086-10.981-10.219-7.036 1.338-9.282 8.323-9.215 12.436.207 12.696 12.988 22.058 24.52 38.334 8.45-14.69 22.398-26.23 23.223-37.585 1.098-15.098-18.009-20.73-20.737-3.133-.176 1.243-1.64 1.801-1.526.065.415-4.823-.175-6.831 5.266-18.72h-14.222c3.15 5.556 5.026 12.375 5.24 18.236m0-65.105c.015 2.026-1.587 2.064-1.568.586-.135-7.429-6.417-11.087-10.981-10.219-7.036 1.338-9.282 8.322-9.215 12.436.207 12.696 12.988 22.058 24.52 38.334 8.45-14.69 22.398-26.23 23.223-37.586 1.098-15.098-18.009-20.73-20.737-3.132-.176 1.243-1.64 1.8-1.526.065.415-4.823-.175-6.832 5.266-18.72h-14.222c3.15 5.555 5.026 12.375 5.24 18.236m-55.088-33.76c.015 2.026-1.587 2.065-1.569.586-.134-7.429-6.416-11.086-10.98-10.219-7.037 1.338-9.282 8.322-9.215 12.436.207 12.696 12.988 22.058 24.52 38.334 8.45-14.69 22.397-26.23 23.223-37.585 1.098-15.098-18.009-20.73-20.737-3.133-.176 1.243-1.64 1.801-1.526.065.414-4.823-.175-6.831 5.266-18.72h-14.222c3.15 5.555 5.025 12.375 5.24 18.236m-56.445 33.76c.015 2.026-1.586 2.064-1.568.586-.134-7.429-6.417-11.087-10.98-10.219-7.037 1.338-9.283 8.322-9.216 12.436.208 12.696 12.988 22.058 24.52 38.334 8.45-14.69 22.398-26.23 23.224-37.586 1.097-15.098-18.01-20.73-20.737-3.132-.176 1.243-1.64 1.8-1.526.065.414-4.823-.175-6.832 5.265-18.72h-14.221c3.15 5.555 5.025 12.375 5.24 18.236m-.001 65.105c.015 2.026-1.586 2.065-1.568.586-.134-7.428-6.417-11.086-10.98-10.219-7.037 1.338-9.283 8.323-9.216 12.436.208 12.696 12.988 22.058 24.52 38.334 8.45-14.69 22.398-26.23 23.224-37.585 1.097-15.098-18.01-20.73-20.737-3.133-.176 1.243-1.64 1.801-1.526.065.414-4.823-.175-6.831 5.265-18.72h-14.221c3.15 5.556 5.025 12.375 5.24 18.236m-35.944-175.948c.01-.872-.895-.465-1.018-.19-1.163 1.985-2.864 2.447-4.548 1.731-1.667-.71-2.604-2.28-2.453-4.522.31-3.438 3.035-7.2 4.355-9.326a69 69 0 0 0 4.076-7.154c1.698 3.363 2.559 4.32 4.405 7.391 1.626 2.704 3.893 5.353 4.068 8.622 0 2.485-1.046 4.832-3.4 5.26-1.33.242-2.578-.442-3.503-2.037-.282-.407-.849-.195-.84.362.166 2.093.956 3.983 2.83 6.212h-6.887c1.41-1.576 2.849-3.704 2.915-6.35m188.816 172.746c.01.872-.896.465-1.018.19-1.164-1.985-2.865-2.447-4.548-1.731-1.668.709-2.604 2.28-2.454 4.522.31 3.438 3.035 7.2 4.355 9.326a69 69 0 0 1 4.077 7.154c1.697-3.363 2.558-4.32 4.405-7.391 1.626-2.705 3.892-5.353 4.067-8.623 0-2.485-1.046-4.832-3.4-5.26-1.33-.241-2.578.442-3.503 2.038-.282.406-.849.194-.84-.362.166-2.094.956-3.983 2.83-6.212h-6.887c1.41 1.576 2.849 3.704 2.916 6.35" style="display:inline;fill:#000;fill-opacity:1" transform="translate(-1420.703 -589.453)"/></g></svg>