<svg xmlns="http://www.w3.org/2000/svg" viewBox="0 0 224.225 312.808"><g style="display:inline"><g style="display:inline" transform="translate(-6034.202 2747.31)"><rect width="223.228" height="311.811" x="6034.701" y="-2746.811" rx="10.63" ry="10.63" style="display:inline;fill:#fff;fill-opacity:1;stroke:#000;stroke-width:.99673343;stroke-miterlimit:4;stroke-dasharray:none;stroke-opacity:1"/></g><path d="M1033.986-2499.928v-9.092h8.839l18.814-97.227h10.705l20.736 97.227h7.134v9.092h-24.307v-9.092h6.566l-2.616-14.9h-24.531l-1.894 14.9h6.566v9.092zm43.772-34.598-10.657-52.05-9.987 52.05zm649.632 764.279v9.091h-8.838l-18.814 97.227h-10.705l-20.736-97.227h-7.134v-9.091h24.307v9.091h-6.566l2.616 14.9h24.531l1.894-14.9h-6.566v-9.091zm-43.771 34.598 10.657 52.05 9.987-52.05z" style="display:inline;fill:#000;fill-opacity:1" transform="translate(-303.56 799.198)scale(.30106)"/><path d="M1078.011 462.617c2.88-5.776 4.976-11.701 5.348-18.038.342-2.331-1.074-2.37-1.288-.728-4.076 15.592-25.762 11.37-25.017-3.297.605-11.895 12.42-14.454 18.582-10.564 2.434 1.432 2.297.574.968-.912-9.154-10.212-3.61-23.362 8.762-23.603 13.38.794 16.85 14.87 8.644 23.149-1.02.994-3.284 4.191.123 1.956 8.287-5.888 19.787.443 19.552 9.52-.432 16.74-20.839 17.988-25.203 4.007-.42-1.55-1.629-2.33-1.295.304.605 4.766 1.857 11.953 5.438 18.206zm-91.354-109.295c1.192-2.445 2.352-4.72 2.984-7.401.42-2.528-.438-1.588-.925.068-.721 2.298-2.722 3.344-4.58 3.37-3.37.045-5.052-2.605-4.948-5.455-.368-2.998 2.671-5.12 4.962-4.957 1.722.123 3.224 1.053 4.133 1.776.596.315 1.234.454.345-.359-1.678-1.833-3.077-2.964-3.046-5.71.029-2.58 2.233-5.269 5.155-5.184 3.652.105 5.312 2.89 5.304 5.48-.01 1.888-.954 3.626-2.412 4.703-.944.766-.68 1.34.398.615 1.035-.892 2.267-1.283 3.545-1.31 3.49-.055 4.855 2.961 4.655 5.764-.188 2.625-2.423 5.328-5.37 5.022-2.63-.301-4.012-2.51-4.804-4.777-.263-.695-.676-.883-.665.153.608 5.058 2.492 8.205 2.505 8.202zm196.469 161.833c-1.192 2.445-2.352 4.72-2.984 7.4-.42 2.528.438 1.59.925-.068.721-2.297 2.723-3.343 4.58-3.368 3.371-.046 5.053 2.604 4.948 5.453.368 2.999-2.67 5.12-4.962 4.957-1.722-.123-3.224-1.052-4.133-1.775-.596-.315-1.234-.455-.344.359 1.677 1.832 3.076 2.964 3.046 5.71-.03 2.58-2.234 5.268-5.156 5.184-3.651-.105-5.312-2.89-5.303-5.48.01-1.889.953-3.627 2.411-4.703.944-.766.68-1.34-.397-.615-1.035.892-2.268 1.283-3.545 1.31-3.49.055-4.855-2.961-4.655-5.764.187-2.626 2.422-5.329 5.369-5.022 2.63.301 4.013 2.51 4.805 4.776.262.696.676.883.664-.153-.607-5.057-2.491-8.204-2.505-8.201z" style="display:inline;fill:#000;fill-opacity:1" transform="translate(-973.25 -277.642)"/></g></svg>