<svg xmlns="http://www.w3.org/2000/svg" style="display:inline" viewBox="0 0 224.225 312.808"><g style="display:inline"><g style="display:inline" transform="translate(-6034.202 2747.31)"><rect width="223.228" height="311.811" x="6034.701" y="-2746.811" rx="10.63" ry="10.63" style="display:inline;fill:#fff;fill-opacity:1;stroke:#000;stroke-width:.99673343;stroke-miterlimit:4;stroke-dasharray:none;stroke-opacity:1"/><path d="M1033.986-2499.928v-9.092h8.839l18.814-97.227h10.705l20.736 97.227h7.134v9.092h-24.307v-9.092h6.566l-2.616-14.9h-24.531l-1.894 14.9h6.566v9.092zm43.772-34.598-10.657-52.05-9.987 52.05zm649.632 764.279v9.091h-8.838l-18.814 97.227h-10.705l-20.736-97.227h-7.134v-9.091h24.307v9.091h-6.566l2.616 14.9h24.531l1.894-14.9h-6.566v-9.091zm-43.771 34.598 10.657 52.05 9.987-52.05z" style="display:inline;fill:#000;fill-opacity:1" transform="translate(5730.642 -1948.112)scale(.30106)"/></g><path d="M1083.077 445.392c.015-2.026-1.587-2.064-1.569-.586-.134 7.429-6.416 11.087-10.98 10.22-7.036-1.339-9.282-8.323-9.215-12.436.207-12.697 12.988-22.059 24.52-38.335 8.45 14.69 22.398 26.23 23.223 37.586 1.098 15.098-18.009 20.73-20.737 3.133-.176-1.243-1.64-1.802-1.526-.065.415 4.822-.175 6.83 5.266 18.719h-14.222c3.15-5.555 5.026-12.375 5.24-18.236m-92.802-97.442c.01-.87-.896-.464-1.018-.19-1.163 1.986-2.865 2.448-4.548 1.732-1.667-.709-2.604-2.28-2.454-4.522.31-3.438 3.036-7.2 4.355-9.326a69 69 0 0 0 4.077-7.154c1.697 3.363 2.558 4.32 4.405 7.391 1.626 2.705 3.892 5.353 4.067 8.623 0 2.485-1.046 4.831-3.399 5.26-1.331.241-2.579-.443-3.504-2.038-.282-.406-.848-.194-.839.362.165 2.093.955 3.983 2.83 6.212h-6.888c1.41-1.576 2.85-3.704 2.916-6.35m188.38 172.576c.01.871-.896.465-1.018.19-1.163-1.985-2.865-2.447-4.548-1.732-1.667.71-2.604 2.28-2.454 4.523.31 3.437 3.035 7.2 4.355 9.326a69 69 0 0 1 4.077 7.154c1.697-3.363 2.558-4.32 4.405-7.392 1.626-2.704 3.892-5.353 4.067-8.622 0-2.485-1.046-4.832-3.4-5.26-1.33-.241-2.578.442-3.503 2.037-.282.407-.849.195-.84-.361.166-2.094.956-3.984 2.83-6.212h-6.887c1.41 1.576 2.849 3.704 2.916 6.349" style="display:inline;fill:#000;fill-opacity:1" transform="translate(-972.253 -277.642)"/></g></svg>