<svg xmlns="http://www.w3.org/2000/svg" xmlns:xlink="http://www.w3.org/1999/xlink" viewBox="0 0 223.228 311.811"><defs><pattern xlink:href="#a" id="b" patternTransform="rotate(135 -142.426 -15.397)scale(.15641)"/><pattern id="a" width="108.618" height="110.741" patternTransform="translate(-254.024 74.426)" patternUnits="userSpaceOnUse"><path d="m-1016.046 25.72-10.764 16.121 7.177 18.006-18.658-5.255-14.907 12.39-.767-19.369-16.39-10.349 18.184-6.714 4.777-18.786 12.005 15.218z" style="fill:#131f67;fill-opacity:1;stroke:none" transform="translate(1070.355 -11.764)"/><path d="m-1016.046 25.72-10.764 16.121 7.177 18.006-18.658-5.255-14.907 12.39-.767-19.369-16.39-10.349 18.184-6.714 4.777-18.786 12.005 15.218z" style="fill:#131f67;fill-opacity:1;stroke:none" transform="rotate(30 -588.091 2050.257)"/><path d="m-1016.046 25.72-10.764 16.121 7.177 18.006-18.658-5.255-14.907 12.39-.767-19.369-16.39-10.349 18.184-6.714 4.777-18.786 12.005 15.218z" style="fill:#131f67;fill-opacity:1;stroke:none" transform="translate(1124.664 -11.764)"/><path d="m-1016.046 25.72-10.764 16.121 7.177 18.006-18.658-5.255-14.907 12.39-.767-19.369-16.39-10.349 18.184-6.714 4.777-18.786 12.005 15.218z" style="fill:#131f67;fill-opacity:1;stroke:none" transform="rotate(30 -560.936 2151.6)"/></pattern></defs><g style="display:inline" transform="translate(259.614 -501.316)"><rect width="222.228" height="310.811" x="-259.114" y="501.816" rx="10.63" ry="10.63" style="fill:#fff;stroke:#000;stroke-width:1;stroke-opacity:1"/><rect width="197.052" height="286.644" x="-246.526" y="513.9" ry="0" style="fill:none;stroke:#131f67;stroke-width:4.95238304;stroke-linecap:round;stroke-linejoin:miter;stroke-miterlimit:4;stroke-dasharray:none;stroke-opacity:1"/><path d="M-242.139 517.769h188.277v278.906h-188.277z" style="fill:url(#b);fill-opacity:1;stroke:#131f67;stroke-width:1;stroke-linecap:round;stroke-linejoin:miter;stroke-miterlimit:4;stroke-dasharray:none;stroke-opacity:1"/></g></svg>