<svg xmlns="http://www.w3.org/2000/svg" viewBox="0 0 224.225 312.808"><title>Vectorized Playing Cards 1.0</title><g style="display:inline"><g style="display:inline" transform="translate(-2313.832 -589.453)"><rect width="223.228" height="311.811" x="2314.331" y="589.952" rx="10.63" ry="10.63" style="display:inline;fill:#fff;fill-opacity:1;stroke:#000;stroke-width:.99673343;stroke-miterlimit:4;stroke-dasharray:none;stroke-opacity:1"/></g><g style="display:inline"><path d="m4797.469-237.312-533.75 2.593 67.781 128.407c138.724-12.477 260.293-1.382 386.938 2.75zm-364.532 451.468c-.556.748-22.205 6.338-20 11.25 56.525 121 81.77 219.456 105.376 343.813 11.931-9.683 31.233-9.294 31.233-9.294-9.522-46.18 48.702-51.939 49.082-3.625 11.177 2.592 22.673 2.63 32.762 13.92 4.534-135.897 53.307-276.504 116.292-373.93-71.78 28.403-177.09 99.195-177.09 99.195s-87.637-36.19-137.654-81.329m436.282 14.469c-95.528 90.664-132.915 342.344-126.063 345.813-123.135-4.108-160.455 131.603-53.719 204.78-4.218 14.194-14.642 25.742-22.718 38.282 11.008 6.302 23.027 7.648 35.031 8.969 9.114 10.796 18.073 23.255 27.969 24.281 10.738-6.763 18.369-16.66 27.312-25.219 11.158-2.838 22.225-5.979 32.813-10.812-9.379-13.081-20.496-26.308-20.782-38.563 92.803-65.404 80.067-154.345-3.593-199.875 24.923-149.78 61.276-245.46 103.468-313.5zm-657.907 115.719c-12.135 5.92-18.756 18.414-27.562 28.219-12.09.55-23.733 4.679-35.25 9.812 0 0 27.682 38.225 25.969 40.281-89.76 58.768-89.027 144.668-2.844 201.25 14.6 122.251-89.315 315.716-94.562 310.094l-.188 40c72.31-79.977 113.234-225.265 120.406-344.594 147.692-9.829 152.924-152.471 51.25-206.125-7.816-7.165 25.563-40.312 25.563-40.312-8.474-8.341-22.65-9.288-35.063-10.313-7.831-9.355-14.66-18.682-27.718-28.312m624.657 98.719c20.886 46.433 97.17-10.145 110.406 14.562 10.744 14.012 34.145 15.448 32.875-8.156-4.396-23.378-19.792-28.56-80.875-18.375-23.172 3.863-32.672 6.15-32.531-4.406-16.03-19.344-29.778 6.968-29.875 16.375m70.851 67.759c-17.125-.016-20.038 66.924-19.789 87.022-49.584 78.276 101.715 69.378 36.284-15.895 2.28-11.142-8.34-29.31-8.048-37.343-5.362-.683-7.717-30.907-8.447-33.784m-872.257 40.24c-26.832.677-56.333 25.305-13.313 60.72 2.87.984-1.446 8.451.031 19.937 12.126 26.156 8.846 64.886 17.875 58.937 10.438-6.877 19.157-35.772 16.906-76.125-.147-2.647-3.655-5.45-3-8.312 24.147-39.823 3.732-55.717-18.5-55.157zm274.562 75c-6.89 130.744-38.935 259.023-111.542 370.266 62.5-29.122 123.157-66.695 181.855-98.86l137.165 84.877c7.944-3.447 13.444-5.143 18.71-10.345-63.21-92.42-82.774-225.444-110.313-345.781-10.48 7.426-30.187 11.156-30.187 11.156-1.41 41.739-45.203 55.266-54.147.83zm-331.062 102c-14.632.927-25.634 37.137 15.812 42.5 29.249 4.136 66.703-10.26 85.281-3.593 21.601 34.445 40.993-16.26 12.125-24.532-31.01-8.886-94.17 14.296-101.156-5.406-3.591-6.727-7.966-9.228-12.062-8.968m248.78 566.313-82.75 146.125 529.063-3.187L4604 1297.937c1.182-1.546-231.07 27.607-377.156-3.562" style="fill:#e2cf00;fill-opacity:1" transform="translate(-562.525 66.308)scale(.15087)"/><path d="m4351.592-95.113 8.296 20.623c113.836-12.087 232.918-24.585 351.502 7.407 0 0 9.006-18.826 8.891-20.198-110.493-29.816-358.594-26.1-368.69-7.832m110.804 289.544 107.116 71.506s52.314-35.83 74.61-50.989l-13.112-19.872c-47.194 100.135-126.422 19.25-155.873-28.616 0 0-8.455 18.252-12.741 27.971m289.936 38.054c7.495-.05 11.606 2.897 15.262 10.578 4.127 8.672 5.782 6.573 3.203-4.205-4.065-16.995 14.08-27.753 30.86-16.202 12.116 8.341 11.294 28.086-2.129 31.55-10.84 2.8-11.163 5.627-1.67 5.304 17.03-.581 21.226 22.185 8.955 33.11-14.108 12.562-31.725 3.258-33.114-12.773-.677-4.537-1.635-4.487-3.168-1.946-4.403 7.324-4.94 16.92-4.23 25.626l-24.916-15.961c9.016-4.3 14.511-6.898 21.08-13.525.858-.864 1.503-1.496 1.5-1.88 0-.683-2.802.192-7.934.652-15.213 1.362-26.76-8.654-23.437-22.907 2.827-12.127 9.205-17.34 19.738-17.421m-116.604 392.913c27.805-30.887 62.061-50.473 109.225-46.98 7.903-130.997 55.06-246.9 129.394-350.856l-79.4-49.313-32.418 18.918c-78.875 108.48-128.37 246.86-126.8 428.231m-595.91-315.025s-54.81 39.819-80.287 59.065l-4.031 361.468 6.969 2.5c.487.778-.534-5.368 2.719-8.125 2.658-2.253 6.86-4.793 9.343-5.656 7.007-2.435 7.384-7.077.938-11.187-5.001-3.19-6.852-8.034-6.156-16.032.49-5.643.269-6.88-2.032-10.75-2.859-4.81-3.018-10.844-.437-17.062 1.198-2.889 1.099-3.672-.906-7.625-2.554-5.034-2.789-10.42-.75-16.188.779-2.205 1.39-7.041 1.374-10.781-.055-14.4 11.971-23.777 33.97-26.469 8.598-1.052 8.866-1.402 5.03-8.656-21.642-40.926 28.614-61.358 32.257-54.804zm683.776 30.096c20.293 0 36.75 16.425 36.75 36.719 0 20.293-16.457 36.75-36.75 36.75-20.294 0-36.75-16.457-36.75-36.75 0-20.294 16.456-36.72 36.75-36.72m.25 6.562c-16.249 0-29.407 13.158-29.407 29.406 0 16.25 13.158 29.438 29.407 29.438 16.248 0 29.437-13.189 29.437-29.437 0-16.25-13.189-29.407-29.437-29.407m.625 9.344c11.018 0 19.968 8.92 19.968 19.938s-8.95 19.968-19.968 19.968-19.938-8.95-19.938-19.969c0-11.018 8.92-19.937 19.938-19.937m-729.532 4.5c1.495-.005 3.083.245 4.688.781 9.113 3.043 12.195 11.15 7.125 18.719-3.982 5.945-3.543 6.466 3.312 4.031 5.392-1.914 8.114-1.246 12.282 3 12.495 12.733-6.682 33.555-18.907 20.594-6.054-6.42-6.666-4.563-2.562 6.375 1.328 3.54 3.53 9.045 3.53 9.045l-18.192-.529s2.932-7.211 4.287-10.61c3.268-8.198 3.39-9.402-3.25-4.312-14.973 11.477-31.466-8.773-17.656-21.656 2.809-2.621 7.258-2.677 13.406-.157 4.48 1.836 5.041.613 1.719-3.687-7.227-9.354-.244-21.56 10.219-21.594m376.597 37.868c-8.101 48.332-2.632 116.401-3.317 152.723 19.671 4.045 19.697 17.485 22.485 34.23 9.637-3.204 30.395 11.264 33.283 10.06 2.897-49.114-20.586-192.147-52.45-197.013m326.601 53.3c27.971 2.651 22.292 24.2 13.822 32.963-4.017 4.5-3.315 6.56 1.062 4 11.931-6.973 21.242-1.676 24.875 10.688 6.207 21.121-21.698 38.834-33.75 19.781-4.083-6.455-6.662-5.046-5.736 1.66.536 6.458 6.644 19.909 6.644 19.909l-27.442-2.861s8.598-13.843 10.126-17.582c3.173-7.758 1.588-9.861-4.373-3.657-17.411 15.474-40.929-5.003-29.531-25.688 5.619-10.197 15.754-13.375 26.531-5.03 7.27 4.9 8.886 2.845 2.406-3.063-12.11-11.042-1.103-32.682 15.366-31.12M3994.844 459c.314-.01.619-.01.937 0 2.353.08 4.81.768 7.25 2.188 6.771 3.938 8.533 11.538 4.156 18.062-2.516 3.755-1.835 6.154 1.063 3.719 3.88-3.26 12.307-.933 15.531 4.281 8.28 13.392-8.527 30.514-18.937 19.313-4.595-4.945-6.378-5.168-5.884-1.957 1.433 6.033 5.24 16.346 5.24 16.346l-19.033.054s4.265-10.725 5.256-16.185c.764-4.32-.973-3.715-5.58 1.335-4.48 4.912-8.496 5.369-14.062 1.563-13.734-9.392-2.284-32.827 12.063-24.688 4.942 2.804 5.663 1.235 1.844-3.969-6.821-9.293.427-19.732 10.156-20.062m988.063 5.92c-31.264 31.38-21.33 12.705-7.402 37.172-.18 15.998 8.974 28.653 1.21 53.792-2.445 4.897-2.688 7.242-1.46 12.223-2.665 27.856-25 27.176-46.785 31.187 3.604-.184 33.593 57.196-23.966 60.816l-2.707 231.456 91.116-65.153 4.854-361.277zm-678.273 112.37c-25.799 16.1-62.302 56.74-107.33 47.141-7.56 144.323-56.576 255.426-125.571 350.52 23.138 14.137 48.59 31.072 72.305 42.035 20.332-10.117 31.728-14.29 51.77-30.3 83.091-124.356 110.856-261.216 108.826-409.396m211.83 29.493c3.485 74.228 14.532 144.633 52.293 201.537l4.9-157.571c-13.7-3.492-24.834-12.54-28.48-37.798zm-279.45 39.701 25.771.983s-6.018 11.568-8.644 18.046c-3.191 7.917-1.755 9.56 4.203 4.112 7.755-7.091 19.959-7.583 26.281-1.063 16.788 17.314-1.433 44.869-21.406 32.375-8.551-5.348-10.02-3.618-3.281 3.875 13.136 12.55-1.028 30.14-16.59 29.991-11.253-.209-18.412-9.31-19.153-19.234-.341-6.24 2.881-12.45 8.336-15.413 5.688-3.088 1.677-5.208-4.5-2-20.167 10.475-33.156-17.37-17.828-32.883 8.839-8.946 18.04-7.967 26.766.82 6.092 6.137 8.313 5.631 6.673-1.546-1.64-8.075-6.627-18.063-6.627-18.063m695.548 31.81 18.47.29c-1.884 4.543-4.298 9.169-5.838 13.665-1.66 4.898-.506 5.543 4.456.855 12.856-8.363 26.31.386 23.353 13.885-2.04 9.314-9.929 13.782-18.906 9.594-7.915-3.693-5.38-2.123-.93 3.393 5.295 6.562 3.816 14.108-3.382 19.013-12.734 8.677-29.163-6.286-20.637-19.014 5.027-7.569 2.761-6.773-1.77-3.142-6.791 4.818-16.847-2.288-16.906-11.938-.574-13.888 13.547-21.494 23.281-11.531 4.646 4.028 5.825 3.561 3.784-2.23-1.886-4.212-2.449-8.702-4.975-12.84m-.476 100.938 19.361.06s-.292 1.477-3.355 7.036c-3.6 6.533-3.164 13.35.563 8.78 6.287-7.71 19.37-5.346 23.53 4.25 4.847 11.183-5.092 23.313-15.156 18.5-6.54-3.127-7.002-2.48-2.718 3.907 4.168 6.215 2.17 13.747-4.813 18.063-13.72 8.48-29.767-9.079-18.281-20 3.075-2.924 2.143-4.383-1.562-2.438-15.127 7.938-25.9-12.5-12.75-24.187 5.599-4.976 9.818-4.567 18.812 1.843 2.8 1.996 3.372-.01 1.406-5-3.35-8.501-5.037-10.814-5.037-10.814m-718.774 1.705c21.55 0 39 17.452 39 39 0 21.55-17.45 39.032-39 39.032-21.548 0-39.03-17.483-39.03-39.032s17.482-39 39.03-39m.344 6.97c-17.702 0-32.062 14.328-32.062 32.03S4195.954 852 4213.656 852c17.703 0 32.063-14.36 32.063-32.063 0-17.702-14.36-32.03-32.063-32.03m.188 12.312c10.898 0 19.719 8.82 19.719 19.718s-8.821 19.75-19.72 19.75c-10.897 0-19.75-8.852-19.75-19.75s8.853-19.718 19.75-19.718m-50.411 93.806 22.36 11.336s-10.774 8.51-15.077 12.913c-5.5 5.672-5.164 8.371 2.19 5.726 14.024-5.044 27.879 3.015 27.93 17.495.069 19.326-22.92 28.294-33.68 13.505-3.199-4.397-7.068-6.263-5.593-2.688 3.589 8.701 1.16 19.557-5.375 23.938-5.232 3.507-14.726 4.422-19.47 1.875-16.314-8.76-16.893-27.715-1.062-34.969 7.959-3.647 8.272-7.168.469-5.344-16.247 3.8-25.402-15.93-13.531-29.218 12.6-14.105 32.76-10.857 34.687 10.312.343 3.766 2.946 1.083 4.174-4.66 1.438-4.26 1.978-20.22 1.978-20.22m209.46 34.827s-83.149 45.726-80.666 47.743c.483.294 17.91 25.588 17.91 25.588 42.26-92.11 139.128-13.914 154.137 33.645 3.374 2.147 3.963 1.556 7.64 3.269.397-3.336 7.67-36.113 7.67-36.113zm-137.199 338.92c-4.206 5.112-18.242 19.575-16.509 20.153 120.817 27.81 245.838 27.555 373.27 15.593l-9.267-30.701c-126.103 30.19-347.494-5.045-347.494-5.045" style="fill:#d40000;fill-opacity:1" transform="rotate(-.832 4953.86 38856.808)scale(.15087)"/><path d="m3951.766-256.566-17.313 1703.925 1063.64 11.688 18.345-1702.203zm323.29 16.837 530.497 5.538c-25.81 64.233-98.948 165.246-95.559 165.538-110.08-19.835-223.691-30.687-351.293-5.364zm-311.243-.365 297.687 3.938 95.625 177.406s5.606 11.065 1.995 22.506c-3.94 12.484-7.253 18.003-10.728 24.354.392-3.646-28.186-7.684-26.146 16.862 1.38 16.615 22.244 26.303 38.067 13.622 2.501-.173 2.448 2.145 1.843 6.187-1.581 9.485-12.113 39.503-19.065 41.404-34.827-29.412-48.17 23.184-24.558 34.052 13.668 6.292 34.9 1.564 45.03-14.83 7.748-12.542 6.88-10.465 9.04 4.924.804 5.723 1.96 12.359 2.563 15.344 1.883 9.335-.16 11.11-15.885 15.106-12.676 4.727-25.49 7.252-38.531 9.875-23.813 3.55-36.216 21.295-37.125 43.094-.196 4.712-.063 6.895-1.094 8.281-101.062 36.686-208.642 88.513-322 178.032zm668.843 427.657c-3.717-6.212-15.42-38.716-18.563-52.25-7.774-65.517-8.303-143.163-16.74-204.167l12.26 1.555s4.362 17.692 8.637 65.377c2.12 23.638 3.977 72.742 5.701 95.33 2.615 33.562 16.982 87.376 26.168 101.042 14.98 22.286 45.942 8.461 36.037-17.887-5.14-13.67-25.838-11.77-23.177 2.378.015 2.516 1.99-1.77 5.052-4.378 8.98-3.253 18.895 6.187 13.49 17.303-6.72 14.194-25.892 7.393-32.021-10.71-7.323-21.624 18.633-37.38 37.685-23.979 21.223 14.928 20.73 51.983 3.297 63.427-29.208 10.174-48.655-11.281-57.826-33.041m71.435 28.3c-1.161-.707.082-2.941 1.596-8.269 5.663-19.919 2.507-35.574-10.219-50.469-7.09-8.298-9.78-9.777-5.983-11.208 8.049-3.033 25.544 10.063 30.22 22.757 4.617 12.464 5.63 25.3-1.326 39.216-4.74 2.938-12.131 8.862-14.288 7.974m22.086-13c.016-2.339 1.696-9.696 2.111-13.3 1.604-13.933-4.716-28.194-16.1-39.438-9.555-9.435-10.43-10.406-1.258-10.427 23.655-.055 38.182 38.398 26.995 57.076-2.854 2.944-11.51 8.928-11.748 6.09m20.213-12.648c7.437-32.494-23.773-54.677-24.424-53.67 1.68-7.281 14.138-2.9 18.362.004 15.782 10.932 24.54 39.033 14.527 54.788-1.092 1.936-2.415 3.037-4.15 4.065-3.319 2.016-5.282 3.65-5.93 2.192-.491-1.104 1.406-5.822 1.615-7.379M4470.562 80.438c3.342-3.185 4.329-3.263 10.625-.781 19.728 7.776 35.776-6.224 31.313-21.25-1.617-5.442-8.964-11.429-13.532-11.97-7.462-.883-7.67 3.061.344 6.188 9.844 3.842 10.692 14.358 1.906 18.969-10.333 6.762-26.84-11.021-39.156-9.719-5.903 1.671-9.744 7.112-6.484 13.875 2.553 4.747 11.355 7.727 14.984 4.688m-21.971-2.462c-6.832-3.293-9.453-3.27-8.029-10.757.938-4.928 8.465-38.072 12-50.875 10.587-38.34 1.475-59.809-26.804-68.824-19.164-6.11-35.78-3.396-55.543 6.749l-3.37-10.933c82.531-20.314 222.778-13.505 222.266-12.68 2.609 11.106 3.503 22.188 4.425 33.27 0 0-26.102-13.278-39.755-17.77-21.035-6.782-54.531-.165-60.625 11.876-3.455 6.827-1.776 11.437 12.531 4 23.416-12.174 70.73-1.951 87.26 11.556 3.81 3.112 3.605 3.777 3.627 7.362.033 5.466.35 5.791-7.2 1.613-39.58-20.966-73.691-19.096-85.836 7.497-2.695-.857-13.01-2.787-13.01-2.787l10.864 16.579 1.862 17.215s17.995 10.327 27.935 14.734c9.781 4.314 4.181-.207-7.78-8.79-8.78-6.302-1.695-8.177 4.122-5.73 11.996 2.936 29.544 6.697 50.098-5.937 6.385-3.925 20.814-.23 21.015 1.592 0 0 1.71 15.055 3.168 46.44.69 14.845 2.234 34.249 3.156 42.218 2.786 24.076 3.666 25.456-8.812 13.75-4.187-3.928-11.162-10.443-11.25-10.062-1.712 7.428 16.753 20.789 21.031 25.343 6.493 6.913 11.53 24.441 8.875 25.438-1.681.63-19.184-14.656-32.937-28.375-5.153-5.14-12.837-12.041-13.063-11.813-2.912 1.88 8.611 15.27 19.438 25.313 12.634 11.72 14.099 12.774 9.77 14.45-7.992 3.094-15.085-1.002-34.145-17.231-1.856-1.58-9.085-6.868-9.438-6.5-1.793 2.321 15.76 19.43 19.781 20.937 7.468 2.8 9.525 10.084 3.563 12.844-3.98 1.842-18.592-6.443-30.25-16.844-2.089-1.864-7.917-5.07-8.313-4.656-2.363 1.47 10.672 13.077 23.157 20.844 12.222 7.603 14.17 9.465 10.937 15.593-3.02 6.315-29.87-8.799-43.187-24.156-2.834-3.268-5.09-4.69-4.532-3.594 5.658 16.427 24.89 28.418 39.255 33.29 2.564.881 6.284 1.975 7.947 3.337 4.063 3.325 3.105 6.71-1.377 8.558-15.455 4.095-39.456-14.898-56.536-34.678-1.999-.861-.836 1.712-.318 2.565 14.146 23.321 41.623 41.308 58.37 38.269 9.793-1.777 17.594 1.276 17.624 4.553.024 2.685-5.422 6.886-15.933 7.481-23.781 1.348-60.52-25.181-81.75-58.593-.662-1.042-1.459-1.434-1.52-.808-.691 7.007 12.558 24.409 22.77 34.401 30.339 29.688 59.277 39.993 82.202 23.85 12.934-9.727 25.612-31.219 6.663-38.737-10.035-3.982-16.619 9.815-7.931 5.977 11.359-1.2 13.845 4.85 12.287 10.482-3.029 9.665-12.67 11.068-20.43 6.874-13.504-7.569-10.247-32.792 7.437-36.95 15.934-3.603 29.592 10.058 31.227 22.852 2.54 19.874-20.148 41.012-38.169 46.09-61.47 17.32-108.038-68.416-108.286-70.344-2.985-5.953-6.634-9.135-9.063-2.281-2.65 9.938-16.889 38.988-24.276 38.704 2.45-10.285 12.388-27.49 10.258-42.719-4.267 12.419-13.266 38.918-29.95 52.859-4.327 3.827-16.93 8.228-8.157-1.657 10.629-14.49 24.549-34.314 22-53.156-2.826 4.184-4.487 14.859-7.75 21.875-8.168 17.567-25.757 38.3-37.219 41.531-8.463 2.387-7.634-.446 1.125-9.406 9.391-9.606 26.184-37.967 25.282-50.312-.388-5.452-17.674 46.849-48.938 60.78-8.43 2.945-13.14-.984-13.14-.984 12.31-6.85 46.513-39.601 43.878-77.414 0 0-1.88 5.566-4.656 13.914-11.956 35.879-36.866 59.22-56.039 60.905-15.306 1.344-25.887-4.975-22.057-7.644 19.814.434 36.199-6.179 49.202-25.307 13.215-19.442 18.493-50.913 11.142-84.409-6.63-30.208-7.789-57.302-9.835-86.277 21.603 7.73 43.375 12.982 64.636 5.029-2.246 8.592-5.791 9.612-11.463 16.04-4.115 4.701-2.75 5.853 13.207-5.071 4.643-3.179 6.338-5.756 7.156-4.875 1.327 1.429-.898 10.277-5.75 27.906-7.254 26.363-5.498 28.285 19.782 38.625 4.716 1.93 6.461 3.776 8.093 5.782.764.938 4.827 8.51 5.22 8.78.919.635.795-7.648.312-9.75-1.284-5.578-4.228-9.794-6.832-11.478-4.923-4.668-12.116-5.177-16.702-7.358m474.956 352.137.653-27.473 26.42 19.325-.459 9.064zm-45.707 5.31 6.401-508.227s20.686-13.316 31.024-19.91c6.105 20.242 5.435 63.447 2.756 82.652-4.191 12.471-6.79 68.21-2.654 96.65 3.297 22.672 2.087 60.071-1.594 77.926-1.438 6.977-.882 39.778 1.19 70.145 1.584 23.208.725 44.274-2.25 56.295-2.344 9.474-2.073 43.547.252 56.65 3.422 19.276 3.158 81.036 1.452 84.366-4.473 4.918-38.909 5.118-36.577 3.452m48.313-531.255s20.435 13.929 30.29 20.888l-.181 21.897-29.537-19.9zm-308.525 30.907 12.75.978c4.7 26.538 6.464 56.653 8.051 86.842-.028 46.514 5.001 95.644 15.455 127.95l-9.527 9.701c-15.44-37.07-15.853-95.202-18.845-134.585-.919-44.26-7.523-90.597-7.884-90.886m310.557-.128 27.479 19.186-.058 23.817-27.691-18.953zm-292.167 2.143 11.19 1.38c2.952 31.47 7.87 52.867 9.356 87.509 1.923 44.805 9.15 81.677 13.466 116.715l-8.433 2.667c-5.657 2.507-14.373-38.952-17.303-122.777-.886-25.37-4.766-53.947-8.276-85.494m16.936 1.427 13.35 2.593c4.763 79.62 13.032 154.451 22.204 197.395l-11.651.6C4663.31 77.725 4663.4 6.93 4652.954-61.482m19.293 3.1 12.27 2.312c12.154 182.1 21.317 179.887 24.068 187.079l-13.392 5.207c-13.633-52.476-15.467-126.205-22.946-194.598m53.25 179.465c-2.191 6.096-7.17 5.454-12.622 6.004-5.85-16.804-9.121-36.78-11.393-56.326-4.99-42.934-6.43-83.143-11.665-125.517l14.65 1.715c-.48.316 8.246 149.297 21.03 174.124M4412.126-43.375c19.327 1.215 35.245 10.128 36.605 22.854.306 2.863-1.94 1.442-4.53-.603-16.448-12.989-35.319-17.236-58.294-9.345-5.006 1.72-9.123 4.485-11.344 4.063-1.98-1.306-2.554-4.414-.988-6.947 5.46-8.833 28.987-10.623 38.551-10.022m-45.217 24.86c.122 20.039-4.912 31.013-15.49 35.489-12.768 5.402-28.862-6.798-20.763-20.067 6.123-10.032 16.352-6.833 18.155 3.826l16.64-35.656s1.487 11.39 1.458 16.408m588.808 5.338-.476 20.644-29.455-20.31 2.273-19.823zM4428.094-23.53c14.57 6.016 19.846 13.184 20.344 16.343-.88 2.337-2.322.712-12.938-5.218-16.332-10.345-37.786-12.305-56.844.25-4.717.861-5.162-1.814-.375-6.813 14.543-11.052 34.408-10.923 49.813-4.562m111.344-2.25c12.899-.22 28.264 3.28 41.187 10 5.715 2.972 10.855 4.847 14.559 8.222 2.978 1.608 3.114 8.42.91 8.903-1.966.247-5.153-1.329-9.906-4.75-30.642-20.535-52.934-18.385-71-6.281-1.002.668-4.087 1.328-5.301 1.218-3.406-.306-3.562-1.705-2.112-3.532 8.414-9.234 20.855-13.566 31.663-13.78M4925.77-5.71l29.506 21.262-.313 20.482-31.373-22.495zm-538.189.507 4.35.19c9.789 24.729 22.698 12.243 28.128 2.477l5.288.94c-8.775 32.806-42.292 15.087-37.766-3.607m-7.457 3.17c4.918.665 4.663 6.236 6.147 10.315 3.316 9.116-9.646 1.254-11.854-.986-3.737-4.048 1.728-8.976 5.707-9.328m147.552 1.185c12.566 19.738 20.147 8.271 27.596-.137l3.475 1.166c-1.123 14.024-24.971 28.644-35.764-.753zm39.488 2.785c1.377.041 4.122 1.067 6.645 2.13 6.987 2.944 6.587 5.02-1.248 8.37-12.528 5.355-16.867 6.01-13.026-1.757 2.198-3.546 3.686-8.264 7.629-8.743M4518.29 4.21c3.1 2.347 5.12 4.925 5.421 9.073.213 2.924-9.458-.582-9.373-5.234.352-2.953 1.987-5.328 3.952-3.84m-86.143-.138c6.352 2.459 5.543 5.49 1.054 8.184-8.054 4.337-11.46 3.41-6.194-3.515 2.43-3.195 2.966-4.633 5.14-4.669m491.229 17.442 31.952 23.16-.589 20.827-31.935-22.451c-1.37-8.948.132-14.93.572-21.536M4365.03 45.656c1.53.061 2.062 5.13 2.313 12.532.417 12.307-12.352 29.252-25.094 34.968-15.346 6.884-31.522-3.316-28.576-18.042 2.716-13.572 22.058-13.854 22.607-1.27-1.928 3.28.667 6.086 1.75 5.812 4.992-1.262 16.872-11.64 21.813-23.375 1.925-4.572 3.123-9.29 4.469-10.344.26-.204.5-.29.718-.28m557.065 4.25 31.918 24.004-.157 20.7-31.671-22.47c-1.13-9.242-.485-15.814-.09-22.234M4530.202 77c-2.498 4.06-.604 11.429 4.486 5.25 13.07-14.773 31.413 4.218 21.28 15.969-9.195 10.664-20.266 7.027-43.624-2.281-17.016-6.781-19.745-4.595-24.031.062-3.53 3.834-1.875 11.684 2.625 11.656 13.82 3.348 25.783 6.588 40.093 9.781 30.249 6.664 49.318-32.144 21.813-46.906-6.58-3.53-20.367.733-22.642 6.469m-133.96 2.556c-11.982 10.434-2.685 38.452 14.696 41.194 3.639.574 9.086.503 15.293-1.191 12.238-3.34 25.769-10.353 26.38-14.544 2.778-19.045-25.88-2.347-29.673-.14-9.037 5.307-18.507 4.465-23.188-2.063-10.549-14.712 8.982-31.134 20.438-13.156 2.89 4.537 1.96-3.091-1.188-8.312-4.446-7.371-16.21-7.068-22.757-1.788m527.535 1.65 30.011 21.867-.461 19.928-29.091-21.62zm1.847 29.21 28.415 21.07.19 20.72-29.847-20.272c.698-7.449.942-14.456 1.242-21.518m-161.16 9.56c25.238.782 38.942 38.288 25.402 53.615-4.028 4.56-7.206 5.75-8.975 4.003-.38-.377.314-4.54.64-9.25 1.04-15.023-2.007-25.362-12.841-36.942-8.127-8.686-11.207-11.383-4.227-11.426m-310.964 1.43c-4.793 1.63-9.887 5-13.781 4.094-3.846-.895-5.72.987-7.274 3.99-5.948 11.49-4.214 15.259 7.336 8.854 5.481-3.04 7.367-1.894 21.875 1.062 10.368 2.113 17.442 2.022 26.625-.219 11.415-2.784 18.198-2.916 23.907.313s9.582 7.621 9.78 4.094c-.58-4.14-4.032-14.76-4.812-18.281-.375-1.695-3.226-.25-5.906-.094-9.437.547-20.559-8.096-27.906-3.719-5.88 3.503-6.665 4.432-14.594-.375-5.904-3.58-10.062-1.483-15.25.281m304.053 7.01c16.887 14.524 21.083 27.253 19.273 37.621-.958 7.547-1.642 15.89-9.117 20.332-1.374.632-3.418 1.006-5.312 1.257 6.06-21.39-.435-40.717-24.305-61.584 7.082-3.379 14.236-2.112 19.46 2.374m-385.584-5.635a7.8 7.8 0 0 1 2.437.438c2.953 1.02 3.308 8.788.938 11.187-2.37 2.4-4.227.365-6.844-5.844-1.961-3.388.18-5.819 3.469-5.78m-15.875 5.813c6.242-.038 8.526 5.712 9.531 10.281.856 3.894-.463 15.462-3.719 11.375-.76-2.465-4.036-10.435-6.718-12.531-5.976-4.67-5.311-9.087.906-9.125m-17.656 5.5c.912-.013 2.082.116 3.5.375 9.72 1.773 16.957 17.39 14.562 26.156-5.294 9.39-7.11 2.98-8.687-5.625-1.28-3.577-5.19-9.21-7.594-12.125-4.99-6.05-5.736-8.727-1.781-8.781m585.95 4.002 29.363 21.694-.284 22.76-30.75-21.32c.808-7.955 1.273-15.577 1.671-23.134m-605.294.435c14.533.239 26.693 17.312 21.875 33.531-5.927 16.903-34.161 12.869-29.219-4 1.422-4.851 6.673-8.34 11.594-5.218 7.107 4.508 6.423-2.671 1.906-5.281-6.971-4.03-16.669-1.792-18.937 6.125-7.909 27.6 27.572 37.562 47.375 9.218 7.237-10.359 15.11-21.443 19.437-26.156 3.888-4.234 4.698-3.772 4 1.75-2.844 25.71-21.263 57.624-54.906 55.375-32.676-3.583-42.401-38.441-17.375-59.75 4.205-3.58 8.603-5.312 12.844-5.562.473-.028.937-.04 1.406-.032m173.361 3.922c-12.058 5.624-22.94 7.66-34.651 2.358-8.657-3.92-8.58.2-4.843 3.636 10.81 9.477 30.779 5.55 39.383.428 2.792-1.662 3.775-6.578.111-6.422m460.947 47.855-.207 20.702-32.801-22.67c-.451-4.96.214-12.48 1.416-20.237zm-32.031 6.45 31.24 21.225.535 20.529-30.37-19.447zm1.784 28.804 29.825 21.274.11 22.4-29.565-20.07zm-735.061 12.875-19.25 55.438 12.062.906 7.938 14.813 8.594-14.938 12.718-.781zm735.865 18.122 28.75 20.373.14 20.69-29.867-21.29zm-1.547 25.306 29.458 21.932.272 21.98-33.412-22.966zm-666.224 2.76L4237.063 344l10.312-1.25 9.406 16.094 9.938-14.188 9.219.656zm-137.5 2.438-18.25 59.03 11.656.126 9.625 15.094 8.844-14.313 13.218-.156zm799.444 22.528 34.581 25.013-.05 23.337-33.536-23.174zm33.732 55.917.092 20.44-29.093-21.347-2.859-22.736zm-623.708-5.54-22.218 59.938 14.312.344 8.469 14.594 7.156-14.438 11.5.281zm596.497 14.672 27 19.085-.514 20.979-26.59-18.375zM4404.24 610.925l-15.321-15.157c-.175-1.222 12.813-7.282 20.697-3.192 10.41 5.4 15.523 24.353 3.638 34.119-9.457 7.771-23.624.987-23.891.053zm-13.47-24.826c.608-23.062-11.454-29.16-21.433-33.978 0 0 .444-146.194.726-150.559 0 .638-2.346-15.867-2.625-16.843 0 .01-2.403-.678-2.402-.653.207 14.827-1.03 166.723-1.28 167.705-18.834 1.897-24.27 14.547-26.22 31.61-14.654-1.312-24.324 7.379-24.64 8.84-5.308-7.518-1.112-18.418-5.276-26.242-13.657 45.261 11.226 72.823 33.324 70.609 2.907 43.69 50.858 52.278 49.993-.679 58.2-2.568 39.275-56.313-.168-49.81m-270.551-187.474-21.907 58.719 14.782-1.469 5.218 10.969c23.941-20.485 35.407 11.848 23.782-15.906zm798.768 116.647c2.718-.162 6.257 2.338 6.923 5.686.371 9.972-12.992 7.54-13.325 1.24-.236-4.472 3.848-6.775 6.402-6.926m7.81 64.93c5.844-4.654 14.999-1.844 15.043 5.3.039 6.33-7.248 8.31-12.875 4.672-4.363-2.745-4.57-7.754-2.168-9.971m.56 17.575c31.624 2.869 55.49-18.29 45.625-33.87 8.658-10.565 1.81-16.806 4.225-22.9 6.82-6.793 1.415-21.69-.268-21.77-1.09-19.902-6.828-22.533-15.272-33.251-2.538-3.108 6.11-5.986 9.492-11.216-8.797 3.233-17.295-3.381-17.226-4.86l-3.658-4.676c-58.667 1.88-111.368 5.206-110.536 84.722-8.923 33.615 4.93 63.873 45.982 55.184 9.075-7.871 3.342-19.555 2.325-25.143-3.272-15.384.907-25.29 2.137-32.457 3.806-22.168 20.387-42.555 21.652-7.704 2.918-4.33 1.58-4.995 6.318-6.74 11.295-3.887 11.114 7.466 8.746 12.014-1.513 2.333-3.739 2.101-6.022 1.805-3.263-.44-7.514-1.712-7.567-2.911-.933 3.602 5.792 10.427 5.03 13.809-.95 3.207-1.52 2.937 1.492.848 14.25-9.88 22.75 12.784 2.383 9.913 9.975 5.512-5.13 21.007 5.142 29.203m-19.112-121.614c11.127-.405 13.791-.465 13.19 5.36 1.951 10.796 4.578 15.827 18.63 14.902 14.17-1.635 18.672-2.454 4.31 5.888-7.234 3.062-9.58 3.644-18.09 2.754-8.578-.898-7.91-1.752-12.856 1.107-2.765 1.598-5.787 3.548-8.023 3.92-3.31.55-9.149 1.737-9.149 1.737-3.549 16.668-8.704 25.012-15.745 32.855-9.962 10.993-14.96 12.868-2.933 12.21 4.438.34 2.172-1.92 3.85 16.129.588 6.321 1.663 13.657 2.562 16.126 3.004 8.256 3.363 12.345-8.522 12.755-29.677 1.813-36.178-27.137-32.018-41.821.375-2.314 1.838-9.968 2.219-16.054.208-3.325-.424-6.152-.29-9.553 1.075-27.479 7.698-34.628 32.361-52.143 7.44-5.283 20.67-6.199 30.505-6.172m26.018 1.86c13.689-.084 26.814 6.681 20.157 10.851-4.303 2.695-19.68 1.327-23.911-1.776-5.46-4.004-3.316-9.032 3.754-9.076M4323.688 492.5l-5.563 9.531-6.312 44.656.874 9.094 10.986 14.838 9.077-15.088 13.932.445zm639.91 4.833c8.837 1.903 9.07 9.997 6.745 14.944-5.112 10.878-38.347 15.693-38.347 15.698-.198-4.706.524-9.228-2.848-14.568 0 0 22.164-5.456 26.897-9.646 3.16-2.799 5.101-6.371 7.553-6.428m6.197 25.006c3.211.09 4.887 2.44 5.687 7.188.376 2.544-.613 4.695-2.719 7.437-8.554 9.023-32.303 15.013-40.813 12.564-.592-.801 1.003-10.412 1.684-14.688 11.373.509 30.68-9.304 36.16-12.5m-338.079 51.419c-11.068-16.47-36.182-14.444-33.508-13.263.382-13.963-1.729-33.178-22.896-35.526-21.354-1.929-32.75 26.11-24.81 38.166-13.116-5.668-33.103 7.773-33.121 9.062-1.686.031-17.388 39.768 28.338 42.49 3.891 18.925 10.893 28.152 25.406 36.125l-1.875 153.97 5.065 7.062 2.8-161.34c23.432-.697 26.71-27.45 25.062-33.654 10.395.605 19.872-1.35 27.916-7.301l2.355 26.34s5.628-9.2 4.49-14.139c-7.994-151.357 49.082-314.138 122.437-419.125 3.903-4.395 5.151-9.692 7.054-9.704 17.649-9.18 28.804-15.368 28.804-15.368 28.678 14.296 79.756 48.54 79.756 48.54l-2.292 215.479c-.77-2.131 96.245-9.412 94.752-6.815 0 0-8.441-3.445-8.489-9.116l4.802-504.246-41.986-28.3S4886.595-84.64 4876.734-77l-3.245 296.862-74.44-45.069s1.353-10.481 1.513-13.887c-.612-40.523-20.306-54.404-58.344-42.937-5.097 1.536-8.645 2.896-11.098.785-15.265-46.833-20.659-169.4-20.638-169.399l109.482-179.458 181.281 1.635-6.913 691.641 1.294 362.602-93.496 66.03 2.022-232.235s-13.163-6.528-16.627-7.006c-1.302-.12-3.029 2.773-.693 4.31 3.368 2.215 11.69 5.373 11.69 5.373l-1.38 230.188s-36.317 23.684-52.548 33.534c-12.097 7.276-50.293 25.821-72.913 36.49-8.776 4.14-17.626 7.436-18.447 8.088-30.786 12.7-58.506 21.505-84.203 34.703-17.701 6.943-16.805-.1-20.468-5.906-36.191-36.84-83.567-39.676-122.219-23.469-5.984 2.12-13.384 3.933-18.406 7.312-1.454 1.041-3.975 2.195-5.625 2.563-3.38.752-7.088 2.19-10.219 4.594-5.584 4.285-9.364 11.352-12.625 18.375-2.018 4.346-8.185 24.672-9.052 30.712-.145 1.012 1.95.817 2.021.918.261.374 6.264-24.634 8.568-29.349 4.923-10.07 11.03-16.05 14.231-16.96 1.457-.225 2.691 2.05.667 5.593-4.024 7.04-7.43 22.085-8.48 28.875-.941 6.267-1.184 11.306-.016 11.54.205.201 6.033-18.925 8.63-25.67 6.767-17.584 10.98-24.848 17.307-28.528 6.488-3.773 8.008-3.208 6.68.884-9.843 18.522-13.994 32.577-16.157 52.425-.344 3.959 1.659 4.102 3.34-2.44 5.545-20.789 13.144-48.907 30.268-57.085 7.303-3.174 10.522-2.969 9.71-.64-20.613 25.272-26.085 53.592-25.98 62.76.035 3.06 1.282 2.47 3.975-4.113 7.222-25.098 17.695-46.383 29.91-56.721 4.727-4.001 10.395-5.04 15.136-5.558 14.322-1.566 14.731 3.74 2.184 10.803-14.293 8.046-31.121 37.836-33.268 60.353-.743 7.793 2.004 8.678 4.107-1.696 9.057-44.688 47.906-73.754 78.5-59.585 13.765 6.374 16.152 14.99 4.147 11-24.301-8.078-51.66 8.827-63.187 32.803-10.422 21.676-10.376 33.142-3.694 62.47 4.453 27.065 13.396 61.694 9.896 88.086-3.432 5.09-13.927-2.315-26.424-4.038-7.531-1.522-16.751-2.014-24.68.888-6.912 2.53-10.82 3.13-12.04-.585-.393-1.199 5.405-6.933 7.995-10.115 4.141-5.086 1.822-5.941-3.99-.438-2.846 2.694-8.97 9.004-10.627 9.314-3.631.68-3.719-3.403-.646-13.747 10.837-40.178 8.103-40.902-9.362-49.326-17.328-6.889-11.767-10.154-19.388-16.866-5.5 4.17 6.757 23.842 20.884 28.308 11.556 3.653 10.055 9.567 4.74 25.455-5.479 22.267-14.705 51.711-9.904 71.626 10.087 41.842 52.427 41.608 85.092 25.23l3.8 10.684c-27.57 10.7-172.182 18.084-220.789 11.782-3.571-13.21-3.897-16.6-5.197-32.109 0 0 29.88 14.017 44.86 16.59 18.7 3.213 47.567 3.771 55.209-13.382 2.337-5.026.075-9.338-6.436-6.5-11.968 5.215-32.349 8.908-48.75 7.656-13.77-1.051-33.335-6.869-41.751-12.106-4-2.489-7.338-7.291-4.089-13.215 2.81-.58 6.45 2.568 8.614 3.72 24.684 12.906 38.287 15.542 54.575 10.965 12.355-3.472 29.123-16.501 25.084-20.325-4.176 1.385-18.129 12.76-27.67 15.146-19.64 4.913-40.384-3.35-60.516-16.807-6.193-5.532-3.271-9.457 4.347-4.996 30.22 15.766 42.768 26.115 72.21 5.033 6.577-4.73 10.197-4.06 13.977-1.082 14.928 13.765 14.991 6.158 4.116-8.074-2.47-3.234-4.686-7.743-6.125-12.532-1.063-3.54-1.262-7.07-3.245-9.417-3.38-3.998-9.537-6.004-16.563-9.217-10.147-4.64-13.57-2.525-6.09 1.256 13.104 6.623 19.43 13.612 3.093 9.657-14.778-6.869-39.669-3.505-53.861 6.042-11.11 5.219-16.054 10.907-18.481-1.299-5.087-25.475.73-59.852-5.939-104.275-1.271-8.47-2.897-13.851-1.112-14.981 2.291-1.45 7.873 4.1 14.752 14.06 3.135 4.539 9.368 13.277 9.357 11.478.379-9.381-13.962-27.204-25.91-34.318-6.563-3.907-10.804-21.592-3.287-17.604 5.804 2.93 35.83 30.108 41.483 39.72 2.626 4.467 4.94 1.676 2.17-3.57-1.663-3.149-8.682-12.428-15.528-19.308-12.146-12.21-13.584-11.668-11.183-14.099 4.753-4.81 14.684 1.622 32.31 18.043 4.499 5.85 10.482 11.159 9.778 8.275 1.893-4.475-15.71-23.957-26.244-29.261-1.965-1.271-2.216-2.585-1.997-4.972 1.14-9.065 21.475 4.567 38.285 20.381 6.297 5.924 1.166-5.123-6.116-12.684-5.724-5.944-14.984-13.366-21.298-15.958-6.27-2.693-6.584-8.197-1.604-10.433 17.089-.473 34.464 17.232 44.773 31.103 2.846 3.81 5.464 6.752 2.55-.424-9.42-21.62-29.488-34.016-43.475-36.672-11.363-2.159-10.962-12.435-.274-11.116 11.758 1.45 30.889 12.358 46.996 29.045 4.686 4.854 12.53 15.833 10.974 9.434-.01-1.737-4.934-8.61-10.634-15.248-13.18-13.474-28.555-25.438-44.988-29.174-7.674-2.29-30.61 1.789-30.69-2.18-.017-2.929 2.46-4.648 9.78-6.966 28.406-8.996 69.434 15.892 91.526 53.557 1.581 2.696 4.63 3.876 4.826 3.277-10.48-30.67-44.03-58.821-70.967-63.953-18.326-3.213-36.913 1.204-45.898 13.453-10.11 13.783-6.503 32.47 8.396 31.192 7.817-.608 7.26-5.046 7.118-5.192-.522-.532-5.093 1.534-7.89.942-10.145-2.145-8.813-20.527 6.053-18.495 17.096 2.336 19.121 29.377-.098 34.777-17.74 4.985-24.095-3.175-28.788-12.815-6.875-14.119 1.05-36.605 13.654-45.087 35.277-23.744 79.15-2.778 103.762 21.633 12.176 12.077 20.992 26.354 26.439 41.688 1.404 3.566 4.032 3.395 3.147-.42-33.797-90.054-138.41-101.253-154.968-32.78 0 0-.573 2.09-10.438-12.376-15.99-23.448-40.304-28.974-70.57-13.586-30.514 10.959-40.854 18.072-62.055 28.649-3.083 1.041-22.733 14.18-25.812 11.343-29.516-20.195-55.404-27.31-69.344-42 .525-2.652-1.406-42.843-1.406-42.843l3.21-173.134c.236-1.686-15.793.918-42.47 4.705-70.982 13.1-64.25-24.032-73.577-26.786-4.933-1.061-4.599 1.065-4.007-132.442.172-38.776.392-106.948.469-151.5.076-44.551.466-81.659.875-82.437.408-.779 4.434-4.133 9.062-7.313 17.423-11.97 27.216-19.224 65.375-47.468 8.642-6.397 10.813-7.47 10.813-7.47 3.167 80.264-1.942 164.43-.813 233.407l3.188.063 2.125-231.532c-6.486-1.801 150.156-90.433 235.705-118.682 1.603-.53 5.559 1.301 5.559 1.301 47.984 60.58 176.793 44.32 188.213-28.417 20.652 44.742 112.966 132.438 157.232 28.99 0 0 15.06 30.12 28.325 32.285 29.822 4.4 33.203-.266 99.432-31.206-76.85 112.984-120.068 233.164-127.5 379.362m-39.554-29.023c1.572 5.062 2.035 11.582.548 16.703-1.978 3.99-4.838 3.892-4.838 3.892l-14.382-12.657-14.438 13.001s-8.588-8.907-3.625-21.012c9.357-16.875 30.175-13.502 36.735.073m376.298 3.457c9.331-.454 4.358 10.202-9.54 17.268-8.722 4.434-15.917 5.618-19 3.924-1.63-5.061-.122-9.633.971-11.66 5.929-2.934 22.172-8.002 27.569-9.532m-602.148 11.464c10.355-.101 19.219 7.403 19.362 20.468.057 5.323-2.75 10.558-2.75 10.558l-17.11-12.997-13.418 13.894c-2.264.754-10.21-9.456-4.487-20.358 4.16-7.925 11.319-11.495 18.404-11.565m249.986 9.628c14.454 6.807 16.682 27.185 2.418 34.815-6.779 3.627-17.391 5.548-22.234-2.058l14.526-15.383-16.216-14.049c-.632-.65 12.685-7.48 21.506-3.325m349.305-.275c2.506.032 3.13 1.001 3.817 3.353 1.946 6.673-3.339 13.283-12.326 15.267-8.306 1.835-7.532 2.814-11.344-4.638-2.987-5.839-3.811-5.607 1.022-7.37 5.837-1.802 12.084-3.911 18.83-6.612m-413.944 3.968s-10.478 10.34-15.057 14.661l15.302 16.433c.72 1.98-18.07 10.16-27.708-2.73-6.256-8.368-2.437-24.057 6.693-29.326 9.326-5.383 22.513-.607 20.77.962m22.278-1.508c9.172 0 16.594 7.422 16.594 16.594 0 9.171-7.422 16.625-16.594 16.625-9.171 0-16.625-7.454-16.625-16.625 0-9.172 7.454-16.594 16.625-16.594m-227.41 24.647-15.123 15.377 15.856 17.764s-12.776 1.897-17.291.984c-21.87-4.422-19.35-30.106-2.292-36.661 7.195-2.407 12.504-1.489 18.85 2.536m-292.462 1.05s2.451 33.076 4.966 44.396c-1.95 12.85-10.404 21.493-14.344 34.657-2.081 5.853-9.703 13.65-11.03 5.343-5.269-10.315.092-22.894-4.282-30.25-2.168-6.833-1.433-10.753-2.844-17.906-3.22-5.842-5.836-8.619-5.312-13.875-.549-23.365-6.45-18.82-16.844-17.062-8.583 2.692-20.137 3.66-26.969 8.562-14.83 10.12-6.928 16.165-12.687 31.688.773 6.85 2.408 9.34 1.125 15.218-6.068 27.797 4.417 25.636 4.093 26.063-4.446 6.344.72 20.832 2.813 20.125 12.71 3.313 7.954 12.56 12.031 17.563 4.094 4.838 3.842 7.246 21.313 7.937 31.537 2.925 81.775-1.038 93.178-39.373 7.551-54.18 18.131-101.852-45.207-93.086m313.966-.76c8.857 0 16.031 7.175 16.031 16.032s-7.174 16.03-16.03 16.03-16.032-7.174-16.032-16.03 7.175-16.032 16.031-16.032m-300.187 4.063c5.969.014 12.983 1.371 18.687 7 12.22 12.058 12.6 22.836 6.438 68.468-1.736 12.856-6.427 23.555-12.5 28.157-12.2 9.244-27.065 15.744-39.282 18.562-6.444 1.487-12.03 1.44-16.375 1.344-4.69-.104-7.397-2.312-7.687-6.25 1.187-10.629-9.667-11.823-15.969-11.312-11.228.282-12.391 1.445-5.312-3.875 8.079-6.073 26.493-5.895 29.937-2.22 7.285-7.084 14.789-7.814 23.969-8.75-1.329-2.013-4.498-10.035-2.25-15.124 4.868-8.276 13.068-22.882 21.531-28.282 8.45-10.722 1.336-5.923-3.812-5.812-2.941.063-2.677-.901-3.125-2.875-1.925-8.479-4.644-24.314-4.532-33.719.054-4.532 4.313-5.327 10.282-5.312m-53 10.937c3.198 2.928 3.1 6.948-.349 9.892-3.944 3.367-11.648 1.366-11.745-5.08.61-6.493 8.217-8.22 12.094-4.812m559.16 31.01c-13.465.476-24.334-14.079-19.052-28.348 2.833-3.843 4.023-3.268 4.023-3.268l15.119 13.905 14.916-15.156c11.894 14.78 1.253 32.013-15.006 32.868m-575.558-30.644c-1.164 4.181.225 8.386.377 10.429-2.694 1.86-14.1 5.014-20.233 7.923-4.253 1.393-7.26-2.628-6.621-6.249 1.701-6.738 11.713-11.01 18.969-13 2.236-.514 5.914-.665 7.508.897m2.21 19.384c4.102-.434 2.77 8.468 1.166 13.007-1.574 3.239-6.084 3.038-10.143 3.215-7.172.314-16.32 8.447-20.179 7.06-1.275-.614-2.145-4.025-2.25-6.188 1.014-11.897 20.86-15.977 31.406-17.094m21.469 12.719c-1.397 1.975-5.803 2.876-9.469 1.812-5.993-1.738-6.792-10.39-1.469-13.28 9.373-2.95 14.85 5.881 10.938 11.468M4617 632.844l-8.344 12.312-12.406-.406 19.156 61.812 9.625-23.906c1.409-11.036 3.033-22.045 4.344-33.094zm-264.017 1.353 15.678 13.172 13.809-13.714c9.795 22.714-2.02 32.875-14.426 32.422-13.686-.5-28.092-13.685-15.061-31.88m-348.64 18.272c5.042-.883 2.693 12.672 1.987 13.053-3.225 1.137-17.089 2.745-22.986 7.572-12.552 9.541-17.762 3.532-11.844-8.032 5.541-6.693 25.635-12.569 32.844-12.593m15.782.875c5.54-.437 9.327 5.737 5.866 11.517-4.645 4.193-12.642.953-12.522-5.08.026-3.791 3.197-6.288 6.656-6.437m-8.656 34.343c.712 3.182-.383 2.185-6.219 3.813-3.216.897-8.282 2.961-13.563 5.531-7.744 3.77-9.931 5.826-12.656 5.344-2.161-.505-4.647-1.478-5.286-3.685-2.55-8.817 4.73-17.661 21.474-23.565 3.482-1.228 9.69-2.17 11.815-2.375 5.653.098-.515 8.69 4.435 14.937m10.031-13.062c8.052 0 9.406 10.708 3.355 12.5-14.155 3.44-12.728-12.647-3.355-12.5m-10.5 39.219c2.234 2.206 2.502 5.774-.062 7.593-4.684 2.228-22.515.014-22.562-5-.02-3.308 5.967-4.34 11.518-4.368 5.55-.027 9.32.01 11.106 1.775m806.219 17.187-15 19.469 19.031 49.719 18.906-59.594-14.25 5.406zm-833.314 38.697c1.195 152.287-4.448 501.135-4.448 501.135l42.9 30.081 46.096-32.118c1.127-109.814 1.786-185.564 2.828-287.232l66.313 37.687s2.008 2.988 1.5 16.719c-5.17 37.87 31.16 63.03 55.718 48.406 9.45-3.81 10.225-4.5 12.17-1.505 5.355 8.242 11.016 43.279 11.723 65.59 1.067 33.617 8.913 102.24 11.037 102.73l-111.479 182.767-169.617-1.64 8.02-685.615c8.66 10.51 12.582 17.377 27.24 22.995m631.532-5.51-8.343 12.345-9.844-.157 16.344 63.969 21.812-62-11.5-1.594zm-552.156 500.19s-21.392 14.886-28.219 19.155c-3.574 1.281-5.3 1.504-6.093-1.907-.976-4.192.804-12.076 2.469-25.125 1.538-12.065 1.54-12.746-.22-30-1.837-18.02-2.077-18.778-.03-42.5 2.282-26.458 3.022-52.172 1.156-68.125-1.774-15.166-1.244-49.689.563-68.937 2.212-23.567 1.903-44.275-.938-61.438-5.065-30.599-5.823-41.122.25-64 2.273-8.561 3.407-13.116 3.169-27.51-.265-16.004-.487-21.232-5.7-56.74-3.001-20.44-3.213-23.245.344-55.469.717-6.502.992-10.854 3.504-12.884 2.932-2.371 33.156-3.69 33.156-3.69zm-72.25-494.002 32.896.12c-2.688 10.262-3.371 18.09-3.74 25.537l-28.937-19.625zm.29 13.168 28.648 19.301c-.083 7.968-.789 15.556.253 23.535l-29.035-19.879zm-.381 29.96 30.649 21.608c1.087 8.26 3.486 16.628 4.347 24.05l-34.749-24.254zm1000.83 22.874-7.208 607.904-308.133-3.093-94.935-189.047s1.244-17.244 3.787-26.016c3.074-10.603 3.887-12.912 7.99-13.356 10.88 5.836 23.207-1.536 27.068-9.79 4.754-10.164-4.347-25.784-18.61-29.347-6.29-1.594-13.225 1.143-20.274 6.36-4.099 3.32-5.006 3.688-5.77.736-1.723-6.648 4.42-24.564 15.157-39.863 5.973-8.51 7.59-10.956 9.435-7.66 7.46 13.333 23.912 10.834 30.247 3.454 7.665-8.93 6.39-29.563-10.599-35.272-33.24-11.172-49.057 22.116-48.638 22.039l-6.565-40.278c40.345-9.266 63.601-12.41 76.546-24.412 10.188-9.446 15.218-25.965 14.192-40.732 0 0 112.336-43.74 165.006-71.147 90.692-47.192 171.303-110.48 171.303-110.48m-170.114 1.936-8.468 14.406-11.72-.156 22.813 61.687 19.032-63.781-11.313.844Zm-829.704 5.562 35.11 24.969c.66 7.95 1.576 15.036.382 24.017l-36.976-25.236zM4684 846.438l-9 11.593-10.156-1.218 19.062 61.03c6.32-17.467 12.187-41.225 18.438-58.718l-9.438.313zm-693.125 28.687 36.343 24.839c.032 7.508.284 14.584-2.406 19.848l-34.312-22.718Zm761.281 14.563-9.156 17-11.844-1.782 20.375 58.532 24.032-57.344-14.376.562zm-761.625 13.75 31.479 23.826c.452.342-1.933 10.633-1.51 16.486l-30-19.094zm.438 28.906 29.375 20.812c-.046 7.728.376 15.002 1.5 21.594l-31.906-21.375zm-.938 29.437 33.946 24.914 1.529 19.65-36.006-23.376zm282.25 12.282c32.74 12.75 62.696 75.792 60.571 156.817-1.475 56.251 14.357 136.803 14.054 135.87 0 0-9.565 1.14-12.236-1.018-11.799-41.49-15.296-85.201-16.73-121.232-1.17-30.046-2.469-59.535-4.271-66.443-5.059-24.29-10.508-52.623-25.716-71.25-11.857-14.052-25.569-16.668-34.011-1.204-6.915 12.666 6.947 33.993 18.813 27.142 2.866-1.556 4.603-4.237.875-4.214-12.237 1.633-20.192-15.375-12.349-23.312 13.814-13.978 37.162 17.952 25.866 35.174-4.973 7.447-17.715 8.589-27.857 5.67-22.484-11.277-27.775-38.162-19.94-55.712 5.975-13.385 18.78-21.244 32.931-16.289m-39.937 7.468c2.672.163.778 5.07-1.804 12.727-6.093 18.355 4.415 47.159 19.46 53.086 4.495 3.155 4.233 4.324 1.179 5.982-9.957 5.406-27.639-11.497-32.101-30.106-3.229-13.463-2.155-29.282 4.39-35.908 3.58-3.622 6.409-5.514 8.313-5.75.199-.024.385-.042.563-.03m-243.063 7.344 36.282 24.469c1.595 7.495.73 15.445-.532 23.468l-36.293-26.078zm221.032 2.906c2.717-.046 1.639 4.49.762 12.787-2.031 19.211 3.729 33.286 17.148 45.097 5.66 4.982 7.21 6.541 4.706 9.076-3.556 3.598-13.524-1.438-21.28-9.76-14.199-15.237-18.564-43.676-7.18-53.793 2.498-2.221 4.42-3.383 5.843-3.407m407.352 9.255c15.66-.381 28.784 5.88 29.96 25.027 1.722 28.031-24.594 42.965-42.562 26.624-16.08-16.376.822-41.401 19.56-29.29 9.421 6.136-2.124 19.642-9.713 12.463-3.423-3.238-4.975-1.28-2.563 2.437 7.282 11.22 22.074 2.192 21.167-7.61-1.784-19.271-25.432-19.366-34.445-11.961-12.334 10.133-23.288 25.162-31.454 36.11-6.696 9.504-8.1 9.228-6.959-2.617 3.014-31.304 32.579-50.589 57.01-51.183m-426.321-.067c2.494-.054 1.452 3.506 1.509 12.723.661 23.67 10.42 38.543 22.95 46.969 4.17 4.742-1.303 7.982-9.247 5.602-18.091-5.86-36.077-45.169-20.431-61.732 2.196-2.324 3.912-3.534 5.219-3.562m-17.781 7.5c2.52-.124 1.022 5.083 1.116 14.955.198 20.777 6.48 30.845 21.74 43.746 4.973 4.203 5.606 3.748 3.586 6.008-5.379 6.016-23.174-2.869-30.634-15.42-8.879-14.936-9.891-37.287-1.308-45.602 2.4-2.325 4.18-3.623 5.5-3.687m-17.72 9.75c2.086.04.868 3.776 1.059 12.75.463 21.76 5.273 32.596 18.928 42.857 8.58 6.447 10.715 4.582 8.027 7.044-4.708 4.313-17.359.366-26.772-7.817-14.111-12.265-17.689-42.067-5.929-52.084 2.097-1.787 3.596-2.772 4.688-2.75m-166.374.656 34.844 24.906-1.295 20.583-34.674-24.208zm614.844 47.562c-14.29-3.142-19.559-13.561-17.647-25.251.64-3.907 2.96-6.112 5.34-.962 1.991 8.151 7.245 19.487 14.621 21.781 2.97.924.418 5.033-2.314 4.432m-307.79-28.794c15.568 40.908 14.635 85.352 16.704 127.386 2.751 55.872 12.08 93.61 15.215 99.993 0 0-15.782-.048-16.548-2.344 0 0-13.814-74.242-11.04-110.816.756-40.962-6.696-77.088-11.335-93.34-4.942-14.413-5.303-4.944 7.004-20.879m-307.686 11.42 33.538 22.624c-.588 7.569-.767 15.143-.781 22.72l-32.851-23.97zm455.351 4.718c.01 1.233 4.862 2.341 12.526.607 8.506-1.926 16.947-1.44 23.431.443 6.898 2.002 7.692-.22 1.47-3.044-3.035-1.378-7.85-4.482-15.128-4.458s-22.315 3.768-22.299 6.452m137.174 1.138c.804 1.53 3.332 4.984 5.594 7.687 4.283 5.118 5.509 5.17 3.497 7.207-4.634 4.69-14.124-2.344-15.025-11.151-.801-6.434 2.461-10.444 5.934-3.743m-303.22-2.674c15.485 22.765 17.051 75.655 16.83 113.23-.2 33.839 10.348 95.994 11.276 95.741-3.286 1.872-7.66 1.136-11.75-.51-3.99-5.356-6.266-20.242-10.404-60.519-1.068-10.39-2.978-43.426-3.13-70.004-.134-23.448-12.492-74.37-12.492-74.37s5.137-3.54 9.67-3.568m-17.684 5.38c13.947 32.368 15.827 64.336 15.913 103.094.08 36.661 7.598 79.72 10.403 98.712-4.874.434-10.014.764-12.023-1.456-1.272-1.796-2.26-4.595-2.845-8.194-6.096-31.796-7.162-66.287-8.62-95.469-2.162-45.223-2.725-56.416-8.804-79.033-3.449-12.829-4.727-12.58-1.95-14.998 2.112-1.839 6.109-2.719 7.926-2.656m161.936 9.75c.18 14.972 2.194 8.902 7.512 6.594 3.986-.281 7.205 1.942 14.564 4.765 9.371 3.595 8.505 4.743 15.174 1.591 4.113-1.944 7.38-2.589 9.31-.974 7.65 6.401 17.694 3.005 23.39-2.007 4.42-2.227 9.193-.909 12.903-.514 5.35.57 4.004-2.865 4.763-9.624.674-6.001-1.613-6.561-7.859-4.625-6.391 1.981-12.711 2.187-18.208.421-14.056-4.514-24.43-1.865-31.446-.866-16.569 2.358-17.426.678-21.14-1.745-2.769-1.806-7.334-5.129-8.93-5.054s-1.146 5.5-.033 12.038m146.754-4.746c1.584-.78 2.278 1.367 4.426 4.25 3.592 4.821 4.627 7.083 1.553 7.483-8.135 1.057-10.142.179-9.783-4.862.286-4.02 1.193-5.583 3.804-6.87M4243.36 1065c11.743 12.18 13.788 79.572 14.933 94.091 3.155 78.63 10.45 90.024 6.532 95.865-4.51-.141-6.108 1.506-8.996-2.48-9.782-28.928-8.76-58.495-9.974-88.544-1.754-39.798-5.39-61.394-10.698-81.182-3.53-13.157-3.481-13.373 3.282-16.875 1.2-.621 3.85-.928 4.921-.875m-16.19 9.235c4.056 9.606 11.86 53.101 12.46 90.565.477 29.746 6.735 87.984 8.045 88.32-4.341.331-9.532-.625-11.59-3.94-12.168-57.502-7.219-113.001-21.41-170.853.936-2.78 5.757-7.32 12.494-4.092m-238.263 3.609 34.75 25.687.438 21.5-35.469-25.949zm521.98 4.87c-19.937 7.406-25.161 13.645-22.123 19.239 2.56 4.711 10.471 3.185 31.718-5.32 15.88-6.357 20.79-3.41 23.85 6.577-.37 14.68-14.635 16.182-22.642 14.047-3.453-.182-2.944.144.67 4.798 16.156 13.061 36.57-11.722 26.81-27.766-7.61-14.638-21.079-18.969-38.283-11.575m-124.538 4.15c-16.543 12.6-11.036 35.811 2.527 39.48 3.76 1.979 9.42 1.153 11.656-.282 2.062-1.323 2.076-3.525-2.093-4.281-12.608-2.285-19.652-11.658-13.407-20.969 6.06-9.035 17.017-7.124 38 2.281 18.142 8.132 26.181 5.819 28.469-3.593 1.01-4.156-.091-8.082-8.844-8.534-24.345-1.257-40.282-16.308-56.308-4.102m218.426 38.584c-.99-6.672-11.91 0-19.252 11.69-7.223 11.5-7.98 13.15-9.24 1.08-1.88-17.996 16.971-31.777 28.61-32.058 14.033-1.412 23.122 6.557 23.35 15.592.446 17.785-20.771 17.654-23.468 3.696m-617.055-19.573 36.819 26.075s1.057 13.707.15 21.05l-37-24.438zm446.406 15.062c-16.332 10.733-7.118 30.888 4.162 33.305 11.893 2.548 12.852-5.763 1.032-8.39-6.303-2.582-7.838-8.64-5.299-13.264 5.79-9.169 16.159-3.03 22.199-.057 13.402 6.617 20.361 9.066 24.687 4.688 7.688-7.781 1.138-21.942-8.937-17.125-2.72 1.3-4.768 2.54-10.488 1.034-8.688-1.95-19.117-4.048-27.356-.19m-446.531 15.303 36.219 25.572-1.438 22.125-33.98-25.694zm.312 30.447 34.051 25.018c-.644 9.35-.463 13.077-.176 19.045l-34.468-22.97zm608.38 13.554c27.554 3.098 17.948 34.656-1.192 25.821-5.083-3.939-6.634-3.65-12.544 10.17-7.56 17.675-9.32 16.204-8.019-4.326 1.027-20.104 10.439-31.673 21.755-31.665m-217.454 1.667c.652.026 1.177.142 1.5.407 1.833 2.118-3.882 10.31-8.696 15.095-3.53 2.243-11.938-4.076-9.831-7.067 2.453-2.905 12.573-8.048 17.027-8.435m36.578 16.857-4.94.635c-7.207-16.696-22.734-13.12-27.734 2.212l-6.79-.872c7.144-18.785 31.81-30.013 39.464-1.976m138.865 5.805-8.35.38c-7.226-18.108-17.79-20.95-27.034-3.302l-6.438-1.96c11.453-22.563 30.08-24.117 41.822 4.882m-41.422-21.134c4.274-.196 3.693 1.763-.84 7.774-3.94 5.226-4.891 6.041-8.732 3.103-6.299-4.82 4.369-10.602 9.572-10.877m39.534 1.105c.816.06 1.766.154 2.844.437 8.57 2.251 12.459 6.382 8.164 11.55-2.677 3.22-5.258 4.46-6.958 2.253-5.664-9.653-8.808-14.596-4.05-14.24m-130.028 3.777c.848 3.575-2.01 6.065-5.109 3.057-1.263-1.225-2.345-3.302-2.165-4.814 1.996-1.824 6.677-.218 7.273 1.757m-435.203 5.919 35.007 25.92c1.032 8.966 1.172 15.766 1.03 21.877l-36.068-24.659zm515.545 15.187c20.174 14.257 44.07 14.417 59.194 2.372 3.38-2.692 6.297-2.767 6.314-.132-2.27 9.756-28.438 21.93-48.63 14.522-11.093-4.07-20.198-8.076-27.362-18.597-4.25-6.845 4.634-2.34 10.484 1.835m-8.723 6.679c29.41 26.123 53.191 19.332 71.324 6.637 2.658-.623 2.668 1.762 3.194 6.206.673 5.694-4.086 8.432-17.045 12.108-25.055 7.106-54.204-1.499-59.232-18.304-.57-3.298-1.773-7.588 1.759-6.647m-507.384 8.022 35.51 25.123-1.416 18.783-34.594-24.125zm.156 28.813 33.523 23.439-.335 15.56-32.594-23.937Zm245.813 10.874c143.968 34.775 246.562 20.744 347.28 4.5l86.47 175.844-536.359-7.07c35.85-56.22 65.892-117.823 102.609-173.273" style="fill:#131f67;fill-opacity:1" transform="rotate(-.832 4953.86 38856.808)scale(.15087)"/><path d="M3780.375-345.312v19.03h19.469v165.563h-19.469v20.5h56.563v-20.5h-15v-46.969l22.718-31.468 34.063 78.437h-21.75v20.5h61.687v-20.5h-14.75l-45.156-100.843 42.906-65.032 15.906.313v-19.031h-61.25v19.03h17.657l-52.031 79.844v-79.843h15.437v-19.031zm475.5 102.218 26.73 49.966.058 2.35 14.775 28.855 2.229 1.43 3.332 6.286.371 3.057 8.25 13.194-.053 2.833 34.996 65.092c28.864-10.775 265.96-30.175 353.75 1.562l12.786-21.67 3.06-.021 22.547-39.554-.36-3.327 7.589-8.652 1.102-3.94 24.88-38.935.088-6.276 31.12-51.875zm536.844 7.469s-16.23 31.201-24.594 43.813c-6.768-5.339-26.39-1.714-25.219 18.968-31.986-12.116-39.7 26.037-14.968 34.625-12.692 11.08-24.82-1.451-34.443-9.95-9.412 2.332-28.952 9.247-40.017-11.103 0 0 4.625 2.497 9.24 5.21 26.164 7.953 28.274-27.346 8.813-33.125-2.45-.645-7.062-.907-7.062-.907 6.541-27.145-35.456-36.622-36.25-4 0 0-4.993-.815-8.782-.125-22.262 4.058-17.161 36.884 5.594 35.313a25.2 25.2 0 0 1 5.938.344c-.371 5.257-27.911 15.302-47.75-2.782-9.409 7.166-24.302 16.148-43.719-1.719 12.77-.519 25.015-4.152 24.875-18.625-.091-9.422-8.565-17.833-20.781-18.28-.693-10.529-8.533-20.574-18.719-21.345-12.431.726-18.788 10.754-18.875 21.344-10.57 1.092-20.46 10.408-18.187 21.094 3.1 14.578 14.334 16.372 27.156 13.594-15.596 25.068-40.988 11.992-48.813 4-9.322 8.696-25.575 20.471-45.593 4.375 10.668-1.826 22.533-8.083 20.53-22.969-1.577-11.731-14.746-15.214-20.468-14.594-.013-7.75-5.868-20.54-19.687-19.219-15.08 1.442-14.178 20.506-14 20.657-12.453-1.027-21.49 13.619-17.938 22.969 4.322 11.377 13.372 14.915 30 11.843-19.4 18.205-31.723 11.139-42.312 7.313-9.374 9.822-21.889 12.99-34.72 4.281 28.7 1.368 24.135-49.365-9.906-30.969-2.942-9.517-7.328-21.234-25.156-18.5l-20.312-39.219zm-657.188 32.438a86 86 0 0 0-4.469.187c-54.977 3.514-75.275 41.725-72.687 75.563 1.747 22.835 14.207 42.33 32.312 52.906 7.767 5.916 9.397 8.136 8.032 10.906-1.611 3.269-3.787 2.954-8.188-1.094-62.894-60.167-151.459 10.514-112.281 88.532 31.154 62.039 118.569 47.682 137.312-22.125 1.49-5.55 3.89-7.96 6.47-6.438 1.831 1.08.38 8.274-1.095 19.219.106 39.518-41.022 101.713-43.343 103.812l107.843-.093c-24.736-33.777-39.248-66.908-42.25-115.125-.3-14.59 5.162-11.482 9.782 5.062 21.076 75.483 117.072 74.779 138.843 1.25 20.314-68.603-56.079-125.934-106.718-79.75-7.282 6.64-12.213 7.873-12.313 3.031-.045-2.061 6.758-9.696 13-14.562 12.635-9.849 23.17-28.287 23.281-46.969.227-37.749-27.85-74.839-73.53-74.312m-57.937 321.468h-.125c-.02.08.043.075.125 0m447.656-303.906c1.388-.058 2.864.23 4.313.969 4.488 2.284 5.33 6.269 2.593 12.156-.962 2.068-2.35 4.44-2.125 6.625 31.604 58.28 101.286 32.233 107.844 5.156.416-1.717-.382-3.597-1.281-5.437-2.679-4.455-2.325-8.103 1.156-11.156 7.416-6.505 18.054 1.172 13.75 9.937-1.136 2.312-2.332 4.845-1.469 7.938 17.891 40.616 53.513 43.668 83.407 27.593-13.772 24.653-67.149 39.769-89.563-19.594-35.774 48.361-92.545 47.448-118.312-7.156-23.175 55.852-93.085 57.174-118.532 10.781-23.162 53.073-76.879 41.032-92.093 7.813 49.899 36.109 82.778-1.586 88.687-17.656 0 0-1.16-1.877-2.75-3.438-6.385-6.266-6.21-13.637.406-16.562 8.475-3.748 16.413 4.388 12.063 12.375-1.219 2.237-2.3 2.727-1.5 4.656 15.53 36.19 92.008 46.705 107.5-4.062.525-2.901.225-5.582-1.094-7.782-3.635-6.063.986-12.906 7-13.156m-223.25 20.5c12.063.685 8.698 11.056 6.281 11.844zm447.938 6.469c.081.195-7.438 13.437-7.438 13.437-3.982-6.358-2.948-14.273 7.438-13.437m-40.782 66.906s-7.703 17.037-10.25 18.469c-142.886-36.6-342.253-4.776-347.156-1.25l-8.781-16.531c125.284-25.03 250.198-19.683 366.187-.688m-864.562-5.781c-4.425.053-9.091 1.065-13.906 3.25-24.846 11.274-26.976 39.77-4.657 62.281 3.556 3.586 6.489 6.992 6.5 7.563.053 2.539-2.473 2.078-8.562-1.594-34.143-20.586-67.471 4.12-53.594 39.75 11.208 28.777 55.48 24.412 62.344-6.156.913-4.079 3.862-6.58 5.156-4.375 1.104 1.88-2.144 17.445-5.437 26.093-4.325 11.356-6.894 17.302-9.5 21.938-3.177 5.65-3.395 7.506-.938 8.093 3.536.847 42.238-.216 42.219-1.156-.01-.52-1.635-4.3-3.625-8.437-7.778-16.17-13.708-44.161-10.031-47.344 2.07-1.791 2.758-.878 5.562 7.406 13.849 40.954 65.33 31.075 64.344-12.343-.67-29.538-27.697-42.51-52.063-25-5.542 3.982-7.182 4.203-7.687 1.125-.204-1.23.76-2.646 2.719-3.97 30.854-20.859 12.127-67.497-18.844-67.124m623.187 258.969c-13.794 53.207-47.192 58.621-87.531 65.093-49.963 8.016-82.523-10.186-97.75-38 0 0-71.456 27-97.531 42.688 54.215 24.837 125.844 79.834 166.562 142.281 14.506 19.041 13.774 14.733 13.75 56.5-.057 90.575.156 124.25.156 124.25 22.37 3.351 23.595 18.733 22.375 36.01 17.955-7.929 35.23 1.773 35.153 18.715-.14 31.14-30.738 22.68-37.092 19.248 9.951 27.448-1.73 38.812-13.654 40.16-14.7 1.662-31.564-5.405-26.648-36.82-16.026 6.227-36.319-5.087-39.133-24l-.782-32.032c39.639-74.577-10.121-135.215-56.843-155.156 0 0 13.218-27.328 30.312-35 1.739-.524-10.365-18.275-30.719-14.406-9.367.193-7.187.129-16-11.313-17.42-22.618-25.62-24.168-42.593.031-7.472 10.653-9.258 10.943-18.094 11.125-9.736.201-24.675 7.192-27.875 13.438-.733 1.429 3.084 2.888 8.156 8.812 7.297 8.525 18.557 20.235 16.781 32.157-38.476 15.652-102.3 84.338-35.187 172.281l-48.531.625-2.313-313.063-33.75 18.782 1.5 245.218-9.625-3.187c.74-78.218-.44-156.383-2.906-234.563l-89 64.844 3.969 367.688 9.468 2c7.024 50.098 106.268 15.06 112.063 19.406l1.187 204.312-4.343 10.125 78.968 43.157 72.438-37.563s9.777-1.759 13.437-3.687c30.037-15.826 52.421-12.276 68.75 10.937 10.074 14.321 11.782 16.438 11.782 16.438 6.105-41.319 42.745-56.547 78.28-45.75 26.138 7.94 61.853 33.985 72.782 65.781 0 0 1.965 4.785 3.906 6.938l1.5.656c-.093-.829-1.725-4.792-2.343-6.719-36.654-84.174-139.942-97.084-155.876-28.313l-14.624-20.5 76.906-47.156 105.093 69.156s-4.94 24.311-5.5 34.813l1.813.844c.513-1.325 1.259-6.37 1.719-9.531 1.669-11.483 4.713-21.129 8.843-28.5 2.488-4.443 5.37-8.058 8.594-10.75 6.277-3.646 12.098-3.272 18.469-9.25l-15.344-11.47-.343-36.812 30.843 43.188c9.698-2.243 47.471-13.514 69.875-1.032 2.53.783 35.387-8.583 55.844 37.25l98.5-40.906s6.28-3.536 6.344-4.469c-98.218-36.241-197.388-164.56-187.844-166.625 0 0-.29-13.166.469-45.468.795-36.007.362-72.763.968-108.89-33.425-10.672-25.116-37.61-25.116-37.61-20.092 4.407-23.296.505-28.383-3.032l-3.47-34.093c12.05-10.252 19.28-11.206 34.188-7.938 0 0-7.229-14.812-.656-27 5.534-9.64 20.268-15.724 32.031-8.937 15.206 10.358 10.358 32.062 8.188 35.093 15.804-7.078 35.125.81 39.875 16.438 2.366-46.21 6.383-97.944 15.656-138.25 17.099-72.747 45.092-148.932 80.156-208.844 5.736-10.008 13.059-20.035 18.969-29.406 5.485-8.346 8.094-13.75 8.094-13.75s-7.5 4.13-15.438 6.344c-11.415 3.095-20.01 6.041-21.312 7.343-8.35 7.028-19.304 12.236-28.25 16.125-31.547 12.277-52.754-6.032-65.852-33.993-7.29 35.512-39.835 65.56-87.833 46.887-27.118-14.392-35.643-23.594-61.003-61.144-2.13-3.838-7.625-8.25-7.625-8.25m1.046 5.803c17.946 35.48 44.811 60.617 70.926 70.666 46.627 15.284 77.384-14.567 86.056-41.991l8.998 15.236-70.597 50.12-106.528-67.72c1.782-1.632 11.308-25.492 11.145-26.31m320.58 2.446-31.626 18.625s-21.006 33.894-28.062 46.657c-36.895 65.159-64.59 136.048-79.031 206.375-5.836 25.753-12.03 72.792-14.094 95.406-3.293 36.075-3.136 50.887-2.188 83.969l2.469 2.687s-3.876 6.8-6.656 12.532c-7.553 15.573-9.398 24.38-8.938 42.437 1.053 41.55 26.313 81.323 62 97.531 2.011.914 4.688 2.094 4.688 2.094s-6.117 16.54-17.219 28.188c-7.406 7.768-8.993 8.148-6.375 11.968 3.641 5.317 15.397 9.933 30 9.719 5.168-.076 5.136-.09 14.688 10.313 18.646 20.306 24.251 19.89 41.218-3.125 5.044-6.842 7.914-8.48 15.282-8.657 10.837-.258 30.617-9.005 30.53-13.093-13.343-5.91-28.801-36.367-26.343-36.688 72.965-38.606 88.426-118.627 35.135-177.469l50.896-.812 1.875 319.218c9.966-6.614 32.5-20.843 32.5-20.843l-.745-248.403c3.5.664 7.066 3.17 13.87 4.278l2 234.875s6.62-2.685 12.375-6.438c28.441-18.734 84.125-62.062 84.125-62.062L4999.875 457h-7.437l1.187 361.781-86.406 63.094-.563-224.844s6.826-1.018 9.375-1.375c25.29-3.538 37.004-35.786 20.219-56.843-5.958-7.475-1.73-6.946 10.937-9.375 22.468-1.98 34.909-18.961 28.375-31.063-2.802-5.191.846-4.63 3.22-9.562 1.556-3.88 1.263-8.69.593-12.5-.88-5.001 1.17-7.215 2.437-10.407 1.985-5 .06-10.648-3.25-15.343-3.492-4.956-2.529-10.275-2.562-13.563-.152-7.351-2.811-8.401-10.594-15.5-5.888-5.37-1.162-6.542 7.5-11 13.629-7.014 14.567-31.835-3.562-42.406-9.691-5.651-27.32-5.19-65.532.844-14.486 2.287-31.5 3.812-31.5 3.812s-.127-141.52-1.124-214.469zm0 5s77.58 45.386 76.968 46.657c-26.055 35.684-123.236 177.875-123.937 349.812-71.264-8.943-100.443 46.774-103.907 46.563-9.365-210.457 76.05-361.031 119.813-424.938zm-48.938 27.688-.25 5.156-15.375 22.969-.406-22.969zm-23.75 8 .562 37-31.5 24.063-1.843-38.594zm-291.969 8.469 16.188 11.187-.563 36.719L4416 222.406Zm443.125 12.375.125 26.562c-62.106 87.602-94.694 187.66-104.656 314.375l-15.125-.5c4.002-126.004 46.423-240.972 119.656-340.437m-420.625 2.719 38.313 25.03-1.657 41.876-34.781-22.313-3.25-8.562zm231.938 1.78-.157 38.938-29.593 21.969-1.375-38.656zM4320.5 245.907c4.39.053 7.897 3.25 8.719 9.313 3.25 25.88 22.94 18.41 27.625 26.187 1.771 2.654-2.428 4.96-15.907 3.875-24.712-1.848-42.725-21.835-30.093-35 3.246-2.983 6.652-4.411 9.656-4.375m170.781 16.688L4524 283.438l-.094 43-32.062-19.563zm149.282.125 2.53 38.031-35.812 23.813L4606 286.78Zm68.156.156-20.563 43.781-119.969 86.313-99.562-64.469-18.469-42.25 116.156 75.781zm-323.532 17.375c31.88-.39 56.346 33.446 64.72 63.094 6.087 19.603 7.013 26.659 7.656 57.781.657 31.703 1.651 37.177 7.593 41.656 3.661 2.759 4.725 2.014 5.188-3.594 1.033-12.457 15.925-4.78 16.187 8.344.289 14.578-15.76 19.262-27.625 8.063-6.318-5.963-6.4-5.906-8.375 5.812-1.316 7.85-10.463 56.99 12.907 69.219 4.4.416 5.454-3.112 2.187-7.219-6.558-8.237 6.54-17.744 17.219-12.5 12.905 6.34 11.598 27.138-2.188 34.531-15.769 8.46-36.16-1.154-45.687-21.53-6.991-14.959-6.96-35.698.125-66.5 3.265-14.197 4.702-23.238 5.437-34.126.242-3.574.665-7.466.938-8.656.76-3.318-.877-3.475-6.532-.625-15.43 7.779-32.26 2.25-36.406-11.969-4.957-17 13.99-34.564 25.688-23.812 4.44 4.08 3.901 8.134-1.406 10.75-9.199 4.531-6.057 16.453 3.718 14.094 32.23-9.645 2.763-100.083-33.531-106.344-23.996-4.14-42.834 23.192-25.469 37.812 6.803 5.728 13.707 2.654 12.219-5.437-2.072-11.287 12.922-10.068 18.469 1.5 9.023 18.823-14.273 34.144-36.031 23.719-39.05-23.189-12.356-73.352 23-74.063m144.532 7.188 32.156 21.593.281 41.969-31.937-18.937zm70.843 3.625.157 38.53-31.032 22.563v-41zm83.594 25.25-15.875 44.218-100.156 68.5-82.625-51.812-14.219-40.906 97.344 63.062zm-650.031 3.218-.031 223.844c-32.454 1.381-51.085 33.481-26.781 63.813 0 0-4.236.57-9.188 1.25-21.954 3.01-36.66 14.647-33.75 28.75.892 4.32-.01 8.685-1.25 10.843-1.954 5.796-1.437 10.223 1.188 15.219 2.06 3.924 1.718 5.5.562 8.406-2.49 6.256-1.895 11.076 1.031 15.844 3.616 3.537 2.612 6.393 2.125 12.063-.579 8.006.86 11.227 5.907 14.343 6.505 4.017 8.93 10.604 1.531 10.063-3.672-.269-16.594 12.187-16.594 12.187l-1.219-359.218zm175.969 28.719c5.807-.015 11.788 7.28 20.375 19.594 5.19 8.818 5.28 7.622 17.156 7.156 12.13.884 19.516 4.087 22.688 7.75 1.198 1.387-1.984 1.749-9.657 9.531-7.955 8.071-9.059 11.28-14.343 20.313-1.904 3.257-6.056 3.564-8 .594-1.572-2.404 2.452-10.221 10-19.438 10.647-10.276 8.41-11.312-7.063-9.687-10.87 1.14-12.03.598-16.156-6-12.306-24.464-18.843-23.638-30.625.75-3.214 6.824-1.937 6.386-15.875 5.312-10.977-.846-13.692 1.923-7.5 7.688 9.67 7.937 13.437 26.665 12.906 26.437l-7.469.688s-2.282-4.218-3.281-6.875c-2.025-5.38-7.467-13.464-13.375-19.844-8.368-9.04-3.771-13.984 14.906-16 10.41-1.124 10.647-1.267 15.438-8.281 8.437-12.357 14.067-19.673 19.875-19.688m454.312 22.281-10.781 38.188-85.438 59.906-69.5-46.375-9.218-35.906 79.843 50.562zm-294.562 30.25s24.696 48.109 33.656 79.282c7.795 27.118 18.632 105.636 15.781 110.468-6.07-8.33-26.133-6.451-26.406-6.375 1.699-9.198-5.735-27.737-22.844-31.406zm281.093 17.594-8.53 37.594-72.75 52.594-60.032-41-7.875-36.344 66.438 44.375zM4228 420.469l9.438 3.281 1.78 67.906L4312 503.75l1.656 11.625-84.281-13.594c-.884-28.959-1.375-81.312-1.375-81.312m-36.937 2.031 2.03 78.969c-.786-.263-60.672 8.273-83.593 14.281l1.344-10.812s41.628-9.054 71.781-12.532c0-22.082-.173-45.307-.219-67.812zm677.124 14.531s9.905.921 31.094-2.812c54.628-9.558 69.424-5.685 76.407 11.156 7.63 26.113-21 26.745-26.102 10.168-3.245-10.743-14.977-8.39-54.149.894-33.5 7.941-54.727 1.584-54.319-17.394.42-19.512 22.648-21.238 27.07-2.012M4419.25 422.75c6.755-.098 12.34 5.308 12.438 12.063.097 6.754-5.308 12.308-12.063 12.406s-12.308-5.277-12.406-12.031c-.1-6.755 5.276-12.34 12.031-12.438m-177.469 2.156 8.625 2.594s1.272 51.511 1.532 51.594c18.56 4.09 57.53 11.406 57.53 11.406l2.063 10.188c-16.312-3.83-68.312-12.344-68.312-12.344-1.623-22.34-1.438-63.438-1.438-63.438m-62.968.969s.032 41.105-.657 63.188c.29-.194-44.127 7.071-66.687 11.75l1.75-8.25c17.84-4.028 37.258-8.069 56.906-12.188-.39-16.168-.375-51.625-.375-51.625zm31.718 8.844c5.424-.079 9.922 4.295 10 9.719.08 5.423-4.295 9.858-9.718 9.937a9.78 9.78 0 0 1-9.938-9.656c-.079-5.424 4.233-9.921 9.656-10m739.125 25.656c6.044 8.953 11.109 8.686 17.063 7.813-1.5.44-8.527 4.596-8.125 5.968.2.686-2.965 12.005 1.844 12.469 18.128 1.75 8.954 20.575 11.125 23.469 4.9 5.585 8.486 9.128 5.125 16.094-2.982 6.182-7.264 5.987-3.938 11.28 7.223 10.859-2.756 13.11-1.875 20.5.607 4.463 2.177 10.56.531 14.032-4.962 10.466-22.488 16.434-41.968 17.25-2.776.124-.67-4.412-1.97-7.281-4.815-3.045-2.179-8.175-.562-11.532 1.598-4.456 1.612-4.46-1.375-6.718-8.313-5.166-7.886-7.548-7.218-11.282 1.821-11.036.107-12.116-3.22-13.75-4.262-2.093-3.679-6.748-1.78-12.718 1.31-4.127.382-5.16-1.626-8.907-1.181-2.201-1.533-3.398-1.562-4.812.599-5.7-4.508-5.68-11.656-.094-6.062 10.445-8.143 24.153-11.938 32.813-2.936 6.652-3.402 13.601.094 28.937 6.71 23.441 1.727 27.35-24.656 22.344-19.84-4.88-25.702-26.052-20.188-51.969.893-4.192.648-8.245.25-11.53-2.159-17.842 2.453-34.978 14.907-46.688 20.785-19.545 31.062-22.523 74.031-19.782 16.816 1.19 18.094 2.25 18.094 2.25s.073-8.091.593-8.156m-309.468 5.375-5 36.344-40.344 28.469c-18.996-14.999-33.664-10.002-47.032 6.062-10.588-5.369-31.75-20-31.75-20l-5.406-41.219 58.657 40.688zm-428.782 8.625c5.423-.079 9.859 4.264 9.938 9.688.079 5.423-4.234 9.89-9.656 9.968-5.424.079-9.922-4.232-10-9.656-.08-5.424 4.295-9.921 9.718-10m422.032 37.219-2.22 35-14.343 10.781-14.437-1.469-3.407-21.687zm-422.282.281c5.424-.079 9.922 4.295 10 9.719.08 5.423-4.295 9.858-9.718 9.937a9.78 9.78 0 0 1-9.938-9.656c-.079-5.424 4.233-9.921 9.656-10m39.563 1.094a9.78 9.78 0 0 1 9.937 9.656c.08 5.424-4.234 9.89-9.656 9.969-5.424.079-9.889-4.264-9.969-9.688-.079-5.423 4.264-9.858 9.688-9.937m-78.656 1.875c5.423-.08 9.89 4.264 9.968 9.687.08 5.424-4.232 9.89-9.656 9.969s-9.921-4.264-10-9.687c-.08-5.424 4.264-9.89 9.688-9.97m730.593 1.593c2.768-.223 6.866 3.882 4.875 10.032-2.667 7.019-.793 9.405 3.657 15.093 3.765 4.813 3.1 5.481 2.53 8.563-.865 20.206 12.152 11.473 6.5 26.156-1.23 3.195.4 7.758.97 11.532-1.272-3.456-25.217-3.14-27.25.375-3.408-.509-7.724-23.003-4.282-25.97.443-.008 2.937 3.858 4.219 6.032 3.216 5.455 3.908 5.255 2.906-1.062-3.977-25.076-1.595-50.596 5.875-50.75m-612.281 1.75c5.424-.078 9.89 4.264 9.969 9.688s-4.264 9.859-9.688 9.938a9.78 9.78 0 0 1-9.937-9.657c-.08-5.423 4.232-9.89 9.656-9.968M4131.25 520c5.424-.079 9.858 4.264 9.938 9.688a9.78 9.78 0 0 1-9.657 9.937c-5.422.079-9.921-4.233-10-9.656s4.296-9.89 9.719-9.969m385.25 2.844 29.438 19.093c.486 6.02-.291 14.637 1.687 17.563-19.212-1.79-28.937 9.156-28.937 9.156zm-302.125 15.781c32.228.235 63.443 5.372 92.438 14.75l-2.282 10.375c-58.002-14.928-122.832-15.715-184.781.688l-4.812-10.907c31.214-9.718 62.542-14.479 93-14.875a316 316 0 0 1 6.437-.03m-182.187 14.094c8.446-.147 17.077 3 23.156 9.812 11.42 12.795 5.924 36.521-10.219 44.063-24.156 11.286-49.32-12.847-39.062-37.719 4.259-10.327 15.265-15.968 26.124-16.156m597.843 3.031-.375 10.406-7.343-6.125zm-153.718.469c10.65-.155 19.407 8.38 19.562 19.031s-8.35 19.408-19 19.563-19.408-8.35-19.562-19c-.155-10.65 8.35-19.44 19-19.594m-443.594.625c-2.595.037-6.914 1.097-8.875 2.906-5.14 4.743.023 4.878 6.812 6.125 12.057 2.215 15.378 12.597 14.281 23.813-.996 10.192 2.428 10.034 5.188 6.25 11.236-15.403 1.644-37.85-17.406-39.094m559.594 5.125c-.247.13-.532.312-.532.312.135.114.32-.03.532-.312m-381.063 6.062c14.429-.298 15.942 23.43 3.188 49.938-3.835 7.97-5.792 6.977-10-5.063-10.374-29.678-8.12-44.566 6.812-44.875m33.375.688c2.783-.14 5.48.921 7.688 3.437 7.757 8.843 1.79 23.156-18.876 45.188-5.023 5.356-7.624 7.4-9.468 7.437-5.174.107-5.152-.752.718-19.875 2.59-8.433 5.149-17.69 5.688-20.562 1.723-9.188 8.129-15.316 14.25-15.625m-52.219 21.218c1.41 6.573 3.882 15.706 5.469 20.313 1.584 4.607 2.636 8.99 2.375 9.719-1.274 3.537-10.485-1.272-17.062-8.907-13.245-15.375-18.525-28.75-15.787-35.93 4.016-5.75 14.29-8.304 19.025-3.275 4.887 5.19 5.615 16.315 5.98 18.08m91.282-15.312c13.96 8.233-2.123 27.03-33.407 42.625-13.385 6.673-12.429 3.667-2.281-9.5 3.884-5.04 9.085-13.24 11.625-18.25 5.615-11.075 11.237-22.155 24.063-14.875m-139.376.063c4.433-.037 8.968 4.704 17.376 16.875 3.746 5.423 9.828 13.136 13.53 17.156 3.7 4.02 6.615 8.017 6.47 8.875-1.443 8.533-44.993-18.499-48.126-29.875-1.076-6.938 4.383-13.142 10.75-13.032m623.313 24.75c7.854 16.15 8.53 26.192 2.031 29.843-9.231 5.189-21.104-2.724-21.343-14.218-.08-3.862-4.052-17.339-7.688-26.094-2.994-7.205-3.402-11.652-.94-12.009 9.626 1.541 23.875 14.89 27.94 22.477m-52.125-12.25c-3.04 9.232-6.256 23.645-6.219 27.843.014 1.65-.989 5.028-2.187 7.5-7.976 16.42-26.845 3.029-19.906-14.125 6.259-15.465 22.185-31.564 28.46-32.097 4.294-.364.283 9.525-.148 10.879m12.712-8.864c3.146-.31 5.785 6.566 9.85 18.145 5.493 15.64 5.264 27.839-.656 33.031-12.687 11.13-26-5.03-20.875-25.344 4.099-16.235 8.115-25.48 11.68-25.832m-425.712 2.864c15.794 232.456-103.372 411.3-111.862 416.179l-40.547 22.171-71.13-38.745c73.706-101.064 117.765-216.9 121.101-351.418 68.186 6.62 103.263-47.945 102.438-48.187m390.757.738c4.973-1.364 1.502 2.98-3.431 10.094-5.265 7.592-12.1 28.232-17.52 31.538-12.16 5.845-25.919-5.294-18.542-14.973 6.793-8.913 26.754-23.167 39.493-26.66m72.337 1.574c1.909-.008 5.474 1.25 10.656 3.781 25.318 12.364 37.804 28.672 26.97 36.472-7.607 5.477-15.741 1.229-23.345-13.19-2.58-4.898-7.296-12.168-10.437-16.188-5.698-7.286-7.024-10.862-3.844-10.875m142.344 8.281c16.27-.236 29.638 12.73 29.875 29 .236 16.271-12.761 29.67-29.032 29.907-16.27.236-29.638-12.792-29.875-29.063-.236-16.27 12.76-29.607 29.032-29.844m-8.965 7.648c-19.146 8.481-13.379 38.54 3.12 42.884 6.97 1.95 15.447-.95 11.953-4.302-21.798-6.84-21.938-22.91-13.157-34.67 1.41-1.889-.481-4.548-1.916-3.912m-797.51 41.346c-.745 16.988 2.935 36.69-5.182 55.131-12.297 28.344-51.802 41.297-72.906 38.782-4.396-1.806-9.517-3.517-13.851-1.678-2.622 1.113-5.856.97-8.653-.33-2.698-1.256-5.288.388-7.902-.555-3.059-2.066-8.056-6.758-7.469-10.25.955-4.923.574-8.572-5.187-10.187-7.985-2.239-9.6-6.551-7.25-19.188.507-2.73 1.12-3.966-.657-5.156-5.88-3.942-8.112-11.23-4.25-18.907 2.518-4.422 4.466-7.547-.062-11.062-1.788-4.045-1.475-5.583 2.375-10.75 4.103-4.904 4.819-5.465 2.188-9.656-5.913-9.42.787-16.37 8.75-20.25 10.668-4.376 19.99-6.635 31.25-7.938 4.188.236 4.01 3.92 6.53 7.469 3.709 5.766-1.519 14.106 1.5 17.063 4.363 2.012 6.346 6.032 6 9.468-.151 8.005.333 10.743 2.5 14.094 2.402 3.711 3.306 10.527 1.063 15.16-1.996 4.125-1.778 3.845.844 6.278 2.596 2.407 3.874 14.474 2.952 14.244l10.95-1.003c-1.142 1.218 4.118-22.565 16.599-40.952-.688-14.405-6.176-27.65-5.688-46.674 27.05-9.685 46.586 13.312 45.555 36.847m420.162-32.369c3.906 3.067 23.29 8.462 24 7.844-.607 9.283 5.044 27.318 25.25 33.344.243 25.874.031 145.343.031 145.343-28.146-47.161-45.59-108.044-49.281-186.53zm-470.812 4.219s1.072 3.442 2.062 10.094c1.728 13.59-.136 15.445-3.75 6.156-4.232-10.878-4.451-2.403.313 22.5 1.153 6.031 1.109 7.431-.375 11.5-.928 2.55-2.584 8.478-3.875 13.125-3.807 13.671-6.031 17.6-9.938 6.719-1.992-5.548-3.659-6.413-2.237-10.757 1.778-5.438 1.35-9.514-2.232-14.806-.585-.864-1.871-2.846-2.093-8.468 1.1-12.625-4.52-12.744-5.624-16.007.188-4.939-2.119-16.91 1.28-16.587 2.798.265 12.925.545 17.719-1.219 2.124-.782 8.75-2.25 8.75-2.25m419.562 1.563c10.453-.152 19.036 8.203 19.188 18.656s-8.204 19.035-18.657 19.187-19.067-8.172-19.218-18.625c-.152-10.453 8.234-19.067 18.687-19.218m-292.25 11.53 14.344 2.72c3.196 1.065.866 198.83-113.938 341.562l-1-33.062c54.628-79.062 93.966-176.023 100.594-311.22m243.219 4.157 2.625 47.25c-8.076-6.868-28.59-19.725-28.438-20l.094-17.469c.02.037 17.63 1.351 25.719-9.781m-110.563.656c3.46 1.456 6.475 4.803 9.438 7.219l-9.375 6.313zm328.625 2.375c61.932 18.37 122.919 17.838 183.219 4.407l4.125 11.562c-65.428 17.736-130.45 16.712-195.062-3.906zm-299.937 8.844 3.312 20.375-34.95 22.622 1.7-30.934L4327.75 642Zm309.406 16.969c5.646-.082 10.293 4.445 10.375 10.093.082 5.649-4.448 10.293-10.094 10.375-5.648.082-10.261-4.445-10.343-10.093s4.414-10.293 10.062-10.375m159.125.843c5.648-.082 10.293 4.446 10.375 10.094s-4.446 10.293-10.094 10.375-10.261-4.445-10.343-10.093c-.084-5.649 4.414-10.293 10.062-10.375m-298.031 31.79c4.58 16.143 3.582 52.622-2.313 77.367-1.77 7.43-2.844 33.805-2.844 33.805-1.093 1.38 35.08-29.935 46.71 11.131 4 14.12-12.252 27.506-23.13 23.589-2.12-.764-1.48-7.756.545-11.869 6.034-12.28-11.167-18.664-20.968-7.781-22.644 25.147.655 88.815 36.156 95 29.472 5.134 53.103-24.204 33.438-41.688-8.602-7.645-22.36 2.893-16.063 12.625 6.728 10.398-5.66 14.545-15.031 4.907-16.34-16.807 2.005-42.104 26.687-36.25 39.456 8.97 31.338 70.652-10.031 74.125-31.635 2.655-52.934-11.126-66.313-35.563-12.567-23.482-13.5-42.197-7.75-83.375 3.416-24.447.606-45.047-6.187-44.906-3.726.077-6.63 1.872-7.219 6.25-1.204 8.955-2.233 10.628-7.844 7.375-7.124-4.13-11.084-17.435.563-26.438 11.94-9.229 27.413 5.174 26.781 7.657.288-.457 1.49-2.798 3.094-13.282 5.217-34.11-6.372-70.15-20.688-64.375-3.141 1.267-2.764 2.689 1.344 5 9.538 5.364 1.133 19.109-10.844 17.719-16.96-1.969-20.815-25.63-5.875-36.094 23.533-12.687 42.705 7.178 47.782 25.07m-115.782-28.414s30.087 18.35 31.688 23.062c1.025 3.022 2.25 29.344 2.25 29.344l-52.219-32.688-74.863 46.282c1.225-10.16 6.613-36.313 6.613-36.313l39.813-25.187c.197 1.516 27.54 19.563 46.719-4.5m373.844 1.75c5.648-.082 10.293 4.445 10.375 10.093s-4.414 10.293-10.062 10.375c-5.646.082-10.293-4.414-10.375-10.062s4.416-10.325 10.062-10.407m-79.687.156c5.646-.082 10.322 4.414 10.406 10.062.082 5.648-4.48 10.325-10.125 10.407-5.648.082-10.262-4.446-10.344-10.094s4.415-10.293 10.063-10.375m40.062 2.312c5.648-.082 10.325 4.446 10.407 10.094.081 5.648-4.446 10.293-10.094 10.375s-10.291-4.446-10.375-10.094c-.082-5.648 4.414-10.293 10.062-10.375m-100.312 14.5c27.111 5.642 54.29 11.44 80.281 14.282l1.063 79.78-7.594-.437L4700.75 704c-25.108-1.797-48.79-7.186-71.031-12.937zm201.594 2.594-1.407 9.375s-46.906 8.119-71.406 11.281c-.39 16.06-.344 69.719-.344 69.719l-9.375 1.719-.03-81.219c27.815-3.024 55.596-6.15 82.562-10.875m-453.875 4.5 55.218 36.5 6.5 38.688-64.375-42.782s-58.354 39.279-80.187 53.844l6.656-36.469zm254.906 7.219c22.23 4.703 44.458 9.592 66.687 11.5l.938 64.187-10.219-2.718-.812-52.094c-17.362-1.504-35.193-4.867-53.125-8.657zm196.656 1.906-1.875 8.719s-35.58 5.363-53.937 8.656c-1.626.373-1.032 56.5-1.032 56.5l-8.781 1.344-1.031-65.532zm-99.656 7.188c5.648-.082 10.26 4.445 10.344 10.093.082 5.648-4.415 10.293-10.063 10.375s-10.291-4.414-10.375-10.062c-.082-5.648 4.446-10.324 10.094-10.407m-352.75 23.156 65.281 44.062s7.568 22.948 9.188 35.657l-75.125-48.5-94 62.312 10.875-38.5zm-395.688 1.343c3.873.053 7.737 2.643 9.75 8.594 2.834 8.377 8.12 10.851 22.032 10.594 27.311-1.457 55.94-14.29 81.718-4.656 12.529 4.615 16.992 23.094 6.5 27.906-11.387 5.222-16.24 1.941-20.187-7-3.648-3.8-8.18-3.206-32.656 1-10.797 1.751-23.485 3.324-34.157 4.188-27.285 2.205-42.353-6.392-45.75-22.625-2.17-10.38 6.297-18.087 12.75-18m747.875 14.907c5.648-.082 10.292 4.414 10.375 10.062.082 5.648-4.445 10.324-10.093 10.407-5.649.082-10.294-4.446-10.376-10.094s4.446-10.293 10.094-10.375m-200 12.468c7.346-.106 13.394 5.779 13.5 13.125.107 7.347-5.779 13.394-13.125 13.5-7.346.107-13.362-5.778-13.468-13.125-.107-7.346 5.747-13.393 13.093-13.5m-152.093 9.313s53.723 35.89 78.593 52.469l13.75 39.5-91.5-59.5-111.961 72.841 13.43-40.622zm387.874 12.344c4.875 13.125 13.713 23.125 23.063 33.281 0 0-5.207 9.865-23.781 9.281-10.147-.319-10.69 1.274-14.157 8.157-5.69 8.72-10.321 14.417-14 17.25-6.504 5.008-18.698-2.475-28.75-17.688-3.662-5.543-5.179-6.853-16.218-6.625-16.951.35-23.086-4.35-14.282-11.969 7.678-9.353 13.195-19.637 20.063-29.468l7.625.875c.323 1.131-5.927 20.014-14.719 27.687-4.461 5.037 1.785 6.864 12.688 4.563 6.915-2.083 8.688-1.266 13.812 9.312 10.673 20.178 16.22 19.204 28.875-1.25 4.42-9.13 4.252-10.036 16.407-7.406 13.048 1.313 16.984-.325 11.624-4.875-10.835-9.195-16.812-30.875-16.812-30.875zm-387.406 27.031s97.159 63.635 96.907 62.25l19.468 45.875-114.031-75.844-139.312 90.594 20.843-45.406zm3.75 41.781 33.875 22.282-.094 40.093-34.593-23.25zm-8.687 1.157.625 39.562-30.375 18.094-1.688-37.125zm-38.531 25.5-.282 1.53.719.376.25.03 1.094 35.657-34.938 24.219.125-40.281zm89.468.437 31.844 21.25 1.313 42.438-34.563-22.625zm39.313 25.906 31.937 22.188 1.125 42.375L4461.281 943Zm-169.031.157-.157 39.156-31.781 22.187-1.5-40zm336.125 50.53c-6.307 6.575-8.635 5.76-14.032-5.093-5.602-11.261-14.006-16.525-26.187-16.312-15.366.267-5.32-9.808 10.969-11 28.162-1.24 42.456 17.655 29.25 32.406m-376.72-22.968.845 39.281-31.625 16.438-.97-18.625 16.282-28.469Zm-40.78 52.5 1.093 7.156-5.843 2.25zM4755.75 1079c-.083-.01-.118.022-.125.125h.375c-.096-.064-.19-.118-.25-.125m.25.125c4.083 2.692 40.46 55.435 43 112.438 1.411 15.095-5.12 17.976-8.375 3.624-5.297-23.362-19.97-43.791-39.031-54.406-96.284-35.678-137.404 85.15-73.938 134 22.594 16.352 66.155 14.495 81.469-8.094 4.76-7.022 9.578-6.342 10.187-1.906.302 2.207-.806 3.724-6.687 9-23.802 21.355-38.023 51.577-30.469 73.688 10.028 29.35 37.428 49.67 69.031 54.312 33.915 4.982 69.175-18.89 79.563-49.906 9.525-28.44 1.144-52.426-25.25-76.375-12.411-11.26-13.038-12.164-10.469-14.844 2.501-2.606 4.134-1.965 10.281 3.969 18.968 18.317 54.33 28.179 77.625 17.406 37.3-17.231 53.342-75.324 27.813-113.344-15.438-30.918-57.532-42.431-92.719-25.343-18.74 9.101-35.24 30.368-40.156 51.687-2.207 9.584-7.714 11.315-8.531 2.688 2.59-34.689 7.466-57.395 45.531-118.5zm320.438 59.531s13.871 28.64 15.937 43.719c1.52 11.091 1.747 15.593-1.281 15.656-.965.024-3.363-5.34-4.282-9.531-7.441-34.348-57.328-33.81-64.562.531-7.351 34.899 24.223 59.625 51.781 37.906 11.334-7.79 11.883-4.212.657 7.157-21.608 21.623-12.088 51.876 15.093 59.937 36.957 10.961 59.702-34.09 28.344-62.718-4.006-4.13-7.636-8.22-7.656-9.094-.045-2.2 2.687-2.382 4.843-.094 17.985 18.876 54.224 13.046 59.782-11.156 10.423-45.387-48.18-64.775-64.313-24.22-3.944 10.115-3.343 11.51-5.375 9.563-1.136-1.09-.815-5.286.438-10.968 2.534-11.495 18.937-46.344 18.937-46.344zM4591.03 1263.75c-133.088 28.474-260.684 18.414-352.25 1.469l-41.843 71.5-2.876-.125-10.78 18.5 1.156 2.125s-34.767 66.713-49.407 87.75c171.043-1.648 546.469-2.469 546.469-2.469l-22.875-46 1.25-1.25-22.594-48.031-7.343-8.313s-4.486-8.68-7.844-18c-3.09-8.577-16.344-32.062-16.344-32.062l-1.875.156zm-347.437 10.063c1.764 1.399 170.473 33.191 345.344.53l9.562 16c-153.046 35.222-374.489 1.578-365.75-1.687zm2.906 31.468c15.427-.55 31.058 7.738 41.594 21.563 3.353 4.4 8.844 17.375 8.844 17.375s7.382-12.225 14.625-18.344c10.952-9.255 25.16-16.982 45.718-16.25 18.926.674 39.762 10.92 58.563 40.531 4.745-17.086 66.933-75.141 118.156-2.75 5.858-19.236 33.271-57.658 77.656-30.812a719 719 0 0 1 6.157 13.625c-26.197-18.345-69.384-6.04-79.594 22.593-.916 3.488.243 5.301 1.594 8.688 13.499 19.294-21.625 18.831-11.22 3.219 1.947-3.55 2.107-6.47-1-11.125-8.236-12.343-33.026-27.707-51.218-27.313-21.008.457-44.286 14.397-52.062 27.063-2.87 4.673-3.522 9.352-1 13.437 1.83 4.12 1.204 7.567-1.875 10.094-7.236 5.936-16.324-.91-12.844-9.688 2.29-3.867 1.937-8.607-2.75-15.187-9.414-13.217-31.382-27.145-50.5-26.75-27.362.632-55 20.337-53.25 36.562.77 7.132-1.181 9.79-7 8.97-7.077-1-7.88-7.682-2.875-13.126.742-1.744 1.94-5.972-.344-9.062-28.892-39.074-72.152-27.685-82.062-18.938 9.629-16.509 23.075-23.889 36.687-24.375m-25.719 27.125c10.843.09 22.52 8.286 26.219 14.688 2.68-2.774 27.205-14.472 39.125 2.25-31.22-2.352-31.603 30.778-8.531 33.968-10.521 31.962 36.645 33.894 33.656 3.875 35.24 5.209 30.893-39.465-2.281-34.75 17.379-12.656 29.207-8.57 50.094 5.938 7.02-9.142 35.654-17.686 42.687-1.719-32.82-2.024-27.23 35.982-2.719 36.313-7.282 26.339 40.935 36.027 33.5-3.313 30.605 2.146 26.174-39.2-3.156-35.781 2.173-7.523 31.94-10.775 45.094 3.594 12.086-11.033 25.43-18.589 49.531-2.813-32.862-5.477-33.27 37.184-2.75 34.625-2.848 28.252 40.303 28.728 33.094-3.906 32.853-8.867 14.788-44.028-9.344-34.344 10.742-12.77 28.983-6.747 36.219-4.156 22.36-25.593 41.844-4.187 41.844-4.187-38.916-4.065-30.452 51.4 7.468 31.28-.038 11.412 4.862 21.292 20.344 22.907l18.406 38.094-521.586 3.437 28.778-50.615c2.91.915 19.542 2.428 23.12-17.072 34.276 10.873 36.576-29.036 10.97-35.344 3.102-2.142 6.604-2.998 10.218-2.969m807.532 4.719v19.344h15.28l43.532 97.687-41.687 68.219h-16.063v17.313h60.813v-17.313h-20.25l55.75-80.437v80.437h-16.75v17.313h55.53v-16.875h-18.25v-166.344h18.25v-19.344h-55.53v19.344h16.75v49.125l-23.688 30.5-35.5-79.625h23.688v-19.344zm-827.875 9.719c3.408 5.475.554 9.042-5.313 9.187 0 0 3.816-5.542 5.313-9.187m429.093 7.062 3.375 7.094c-3.652-1.48-4.1-3.045-3.375-7.094" style="fill:#000" transform="translate(-562.525 66.308)scale(.15087)"/></g></g></svg>