<svg xmlns="http://www.w3.org/2000/svg" xmlns:xlink="http://www.w3.org/1999/xlink" viewBox="0 0 223.228 311.811"><defs><pattern xlink:href="#a" id="b" patternTransform="rotate(-45 711.917 114.198)"/><pattern id="a" width="16.772" height="17.116" patternTransform="translate(127.765 536.85)" patternUnits="userSpaceOnUse"><path d="m139.931 538.17-1.53 4.514 2.85 3.82-4.766-.06-2.753 3.891-1.415-4.552-4.552-1.415 3.892-2.752-.06-4.767 3.82 2.851z" style="fill:#d40000;fill-opacity:1;stroke:none" transform="translate(-79.915 -335.792)scale(.62549)"/><path d="m139.931 538.17-1.53 4.514 2.85 3.82-4.766-.06-2.753 3.891-1.415-4.552-4.552-1.415 3.892-2.752-.06-4.767 3.82 2.851z" style="fill:#d40000;fill-opacity:1;stroke:none" transform="rotate(60 339.197 109.616)scale(.62549)"/><path d="m139.931 538.17-1.53 4.514 2.85 3.82-4.766-.06-2.753 3.891-1.415-4.552-4.552-1.415 3.892-2.752-.06-4.767 3.82 2.851z" style="fill:#d40000;fill-opacity:1;stroke:none" transform="matrix(.62549 0 0 -.62549 -79.915 352.908)"/><path d="m139.931 538.17-1.53 4.514 2.85 3.82-4.766-.06-2.753 3.891-1.415-4.552-4.552-1.415 3.892-2.752-.06-4.767 3.82 2.851z" style="fill:#d40000;fill-opacity:1;stroke:none" transform="rotate(120 58.346 204.393)scale(-.62549 .62549)"/></pattern></defs><g style="display:inline" transform="translate(550.942 -490.002)"><rect width="222.228" height="310.811" x="-550.442" y="490.502" rx="10.63" ry="10.63" style="fill:#fff;stroke:#000;stroke-width:1;stroke-opacity:1"/><rect width="197.052" height="286.644" x="-537.854" y="502.586" ry="0" style="fill:none;stroke:#d40000;stroke-width:4.95238304;stroke-linecap:round;stroke-linejoin:miter;stroke-miterlimit:4;stroke-dasharray:none;stroke-opacity:1"/><path d="M-533.467 506.455h188.277v278.906h-188.277z" style="fill:url(#b);fill-opacity:1;stroke:#b40000;stroke-width:1;stroke-linecap:round;stroke-linejoin:miter;stroke-miterlimit:4;stroke-dasharray:none;stroke-opacity:1"/></g></svg>