<svg xmlns="http://www.w3.org/2000/svg" viewBox="0 0 224.225 312.808"><g style="display:inline"><g style="display:inline" transform="matrix(-1 0 0 -1 6928.112 -2122.69)"><rect width="223.228" height="311.811" x="6704.386" y="-2435" rx="10.63" ry="10.63" style="display:inline;fill:#fff;fill-opacity:1;stroke:#000;stroke-width:.99673343;stroke-miterlimit:4;stroke-dasharray:none;stroke-opacity:1"/></g><path d="M4797.862-1351.724v-104.652h10.332v104.652z" style="display:inline;fill:#000;fill-opacity:1" transform="translate(1660.553 -139.988)scale(-.30106)"/><path d="M4838.815-1456.376c-9.945 0-17.94 8.924-17.94 20.004v64.644c0 11.08 7.995 20.004 17.94 20.004h5.797c9.945 0 17.956-8.924 17.956-20.004v-64.644c0-11.08-8.011-20.004-17.956-20.004zm2.993 9.892c5.874 0 10.6 4.44 10.6 9.97v65.51c0 5.53-4.726 9.987-10.6 9.987-5.875 0-10.6-4.457-10.6-9.987v-65.51c0-5.53 4.725-9.97 10.6-9.97" style="display:inline;fill:#000;fill-opacity:1;stroke:none" transform="translate(1660.553 -139.988)scale(-.30106)"/><path d="M3799.25 1843.75v-207.625h20.5v207.625z" style="display:inline;fill:#000;fill-opacity:1" transform="translate(-568.402 -233.943)scale(.15175)"/><path d="M3880.5 1636.125c-19.731 0-35.594 17.705-35.594 39.688v128.25c0 21.982 15.863 39.687 35.594 39.687h11.5c19.731 0 35.625-17.704 35.625-39.687v-128.25c0-21.984-15.894-39.688-35.625-39.688zm5.938 19.625c11.654 0 21.03 8.81 21.03 19.781V1805.5c0 10.97-9.376 19.813-21.03 19.813s-21.032-8.842-21.032-19.813v-129.969c0-10.97 9.377-19.781 21.031-19.781" style="display:inline;fill:#000;fill-opacity:1;stroke:none" transform="translate(-568.402 -233.943)scale(.15175)"/><path d="M1799.688 740.923c2.879-5.776 4.976-11.701 5.348-18.038.341-2.331-1.075-2.37-1.288-.728-4.077 15.592-25.763 11.37-25.017-3.297.605-11.895 12.42-14.454 18.582-10.564 2.434 1.432 2.296.574.968-.912-9.155-10.212-3.61-23.362 8.761-23.603 13.38.794 16.851 14.87 8.644 23.149-1.02.994-3.283 4.191.123 1.956 8.287-5.888 19.788.443 19.553 9.52-.433 16.74-20.84 17.988-25.203 4.007-.42-1.55-1.63-2.33-1.295.304.605 4.766 1.856 11.953 5.437 18.206zm-103.533 0c2.879-5.776 4.976-11.701 5.348-18.038.342-2.331-1.075-2.37-1.288-.728-4.076 15.592-25.763 11.37-25.017-3.297.605-11.895 12.42-14.454 18.582-10.564 2.434 1.432 2.296.574.968-.912-9.155-10.212-3.61-23.362 8.761-23.603 13.38.794 16.851 14.87 8.644 23.149-1.02.994-3.283 4.191.123 1.956 8.287-5.888 19.788.443 19.553 9.52-.433 16.74-20.839 17.988-25.203 4.007-.42-1.55-1.63-2.33-1.295.304.605 4.766 1.857 11.953 5.437 18.206zm51.715-32.666c2.88-5.775 4.977-11.7 5.349-18.037.341-2.332-1.075-2.37-1.288-.729-4.077 15.593-25.763 11.37-25.018-3.296.605-11.895 12.42-14.454 18.583-10.565 2.433 1.433 2.296.575.968-.911-9.155-10.212-3.61-23.362 8.76-23.603 13.38.794 16.852 14.87 8.645 23.148-1.02.995-3.283 4.192.123 1.957 8.287-5.888 19.787.443 19.553 9.52-.433 16.74-20.84 17.988-25.203 4.006-.42-1.55-1.63-2.328-1.295.305.604 4.766 1.856 11.953 5.437 18.205zm51.818-32.665c2.879-5.776 4.976-11.701 5.348-18.037.341-2.332-1.075-2.371-1.288-.729-4.077 15.593-25.763 11.37-25.017-3.296.605-11.895 12.42-14.454 18.582-10.565 2.434 1.433 2.296.575.968-.912-9.155-10.211-3.61-23.362 8.761-23.602 13.38.793 16.851 14.87 8.644 23.148-1.02.995-3.283 4.191.123 1.956 8.287-5.888 19.788.443 19.553 9.521-.433 16.739-20.84 17.987-25.203 4.006-.42-1.55-1.63-2.329-1.295.304.605 4.767 1.856 11.954 5.437 18.206zm-103.533 0c2.879-5.776 4.976-11.701 5.348-18.037.342-2.332-1.075-2.371-1.288-.729-4.076 15.593-25.763 11.37-25.017-3.296.605-11.895 12.42-14.454 18.582-10.565 2.434 1.433 2.296.575.968-.912-9.155-10.211-3.61-23.362 8.761-23.602 13.38.793 16.851 14.87 8.644 23.148-1.02.995-3.283 4.191.123 1.956 8.287-5.888 19.788.443 19.553 9.521-.433 16.739-20.839 17.987-25.203 4.006-.42-1.55-1.63-2.329-1.295.304.605 4.767 1.857 11.954 5.437 18.206zm14.702 75.199c-2.879 5.776-4.976 11.701-5.348 18.038-.342 2.331 1.075 2.37 1.288.728 4.076-15.592 25.763-11.37 25.017 3.297-.605 11.895-12.42 14.454-18.582 10.564-2.434-1.432-2.296-.574-.968.912 9.155 10.212 3.61 23.362-8.761 23.603-13.38-.794-16.851-14.87-8.644-23.149 1.02-.994 3.283-4.191-.123-1.956-8.287 5.888-19.788-.443-19.553-9.52.433-16.74 20.839-17.988 25.203-4.007.42 1.55 1.63 2.33 1.295-.304-.605-4.766-1.856-11.953-5.437-18.206zm0 65.331c-2.879 5.776-4.976 11.701-5.348 18.037-.342 2.332 1.075 2.371 1.288.729 4.076-15.593 25.763-11.37 25.017 3.297-.605 11.894-12.42 14.453-18.582 10.564-2.434-1.433-2.296-.575-.968.912 9.155 10.211 3.61 23.362-8.761 23.602-13.38-.793-16.851-14.87-8.644-23.148 1.02-.995 3.283-4.191-.123-1.956-8.287 5.888-19.788-.443-19.553-9.521.433-16.739 20.839-17.987 25.203-4.006.42 1.55 1.63 2.329 1.295-.304-.605-4.767-1.856-11.954-5.437-18.206zm103.533-65.331c-2.88 5.776-4.976 11.701-5.348 18.038-.342 2.331 1.074 2.37 1.288.728 4.076-15.592 25.763-11.37 25.017 3.297-.605 11.895-12.42 14.454-18.582 10.564-2.434-1.432-2.297-.574-.968.912 9.154 10.212 3.61 23.362-8.762 23.603-13.38-.794-16.85-14.87-8.644-23.149 1.02-.994 3.284-4.191-.123-1.956-8.287 5.888-19.787-.443-19.552-9.52.432-16.74 20.839-17.988 25.203-4.007.42 1.55 1.629 2.33 1.295-.304-.605-4.766-1.857-11.953-5.438-18.206zm0 65.331c-2.88 5.776-4.976 11.701-5.348 18.037-.342 2.332 1.074 2.371 1.288.729 4.076-15.593 25.763-11.37 25.017 3.296-.605 11.895-12.42 14.454-18.582 10.565-2.434-1.433-2.297-.575-.968.912 9.154 10.211 3.61 23.362-8.762 23.602-13.38-.793-16.85-14.87-8.644-23.148 1.02-.995 3.284-4.191-.123-1.956-8.287 5.888-19.787-.443-19.552-9.521.432-16.739 20.839-17.987 25.203-4.006.42 1.55 1.629 2.329 1.295-.304-.605-4.767-1.857-11.954-5.438-18.206zm-51.35-32.665c-2.879 5.775-4.976 11.7-5.348 18.037-.342 2.332 1.075 2.37 1.288.729 4.077-15.593 25.763-11.37 25.017 3.296-.605 11.895-12.42 14.454-18.582 10.565-2.434-1.433-2.296-.575-.968.911 9.155 10.212 3.61 23.362-8.761 23.603-13.38-.794-16.851-14.87-8.644-23.148 1.02-.995 3.283-4.192-.123-1.957-8.287 5.888-19.788-.443-19.553-9.52.433-16.74 20.84-17.988 25.203-4.006.42 1.55 1.63 2.328 1.295-.305-.605-4.766-1.856-11.953-5.437-18.205zm-105.438-118.264c1.192-2.445 2.352-4.721 2.984-7.401.419-2.528-.438-1.589-.925.068-.722 2.297-2.723 3.344-4.58 3.369-3.371.045-5.053-2.604-4.948-5.454-.368-2.999 2.67-5.12 4.961-4.957 1.723.123 3.224 1.052 4.133 1.775.597.316 1.234.455.345-.358-1.677-1.833-3.076-2.964-3.046-5.71.03-2.58 2.234-5.269 5.156-5.185 3.651.106 5.312 2.89 5.303 5.48-.01 1.89-.954 3.627-2.411 4.704-.945.766-.68 1.34.397.614 1.035-.892 2.267-1.282 3.545-1.31 3.49-.054 4.855 2.962 4.655 5.765-.187 2.625-2.423 5.328-5.369 5.022-2.63-.302-4.013-2.51-4.805-4.777-.262-.695-.676-.883-.664.153.607 5.058 2.491 8.205 2.505 8.202zm196.904 162.003c-1.192 2.445-2.352 4.72-2.984 7.4-.42 2.528.438 1.59.925-.067.721-2.298 2.723-3.344 4.58-3.37 3.371-.045 5.053 2.605 4.948 5.455.368 2.998-2.671 5.12-4.962 4.956-1.722-.122-3.224-1.052-4.133-1.775-.596-.315-1.234-.454-.345.359 1.678 1.833 3.077 2.964 3.046 5.71-.029 2.58-2.233 5.269-5.155 5.184-3.652-.105-5.312-2.89-5.303-5.48.01-1.888.953-3.626 2.411-4.703.944-.766.68-1.34-.398-.615-1.035.892-2.267 1.283-3.545 1.31-3.49.055-4.855-2.961-4.655-5.764.188-2.626 2.423-5.328 5.37-5.022 2.63.301 4.012 2.51 4.804 4.777.263.695.676.883.665-.153-.608-5.058-2.492-8.205-2.505-8.202z" style="display:inline;fill:#000;fill-opacity:1" transform="translate(-1643.931 -589.453)"/></g></svg>