<svg xmlns="http://www.w3.org/2000/svg" viewBox="0 0 224.225 312.808"><g style="display:inline"><g style="display:inline" transform="matrix(-1 0 0 -1 6928.112 -2122.69)"><rect width="223.228" height="311.811" x="6704.386" y="-2435" rx="10.63" ry="10.63" style="display:inline;fill:#fff;fill-opacity:1;stroke:#000;stroke-width:.99673343;stroke-miterlimit:4;stroke-dasharray:none;stroke-opacity:1"/><path d="M4797.862-1351.724v-104.652h10.332v104.652z" style="display:inline;fill:#000;fill-opacity:1" transform="translate(5267.56 -1982.703)scale(.30106)"/><path d="M4838.815-1456.376c-9.945 0-17.94 8.924-17.94 20.004v64.644c0 11.08 7.995 20.004 17.94 20.004h5.797c9.945 0 17.956-8.924 17.956-20.004v-64.644c0-11.08-8.011-20.004-17.956-20.004zm2.993 9.892c5.874 0 10.6 4.44 10.6 9.97v65.51c0 5.53-4.726 9.987-10.6 9.987-5.875 0-10.6-4.457-10.6-9.987v-65.51c0-5.53 4.725-9.97 10.6-9.97" style="display:inline;fill:#000;fill-opacity:1;stroke:none" transform="translate(5267.56 -1982.703)scale(.30106)"/><g style="display:inline;fill:#f60302;fill-opacity:1"><path d="M3799.25 1843.75v-207.625h20.5v207.625z" style="display:inline;fill:#000;fill-opacity:1" transform="translate(7496.515 -1888.748)scale(-.15175)"/><path d="M3880.5 1636.125c-19.731 0-35.594 17.705-35.594 39.688v128.25c0 21.982 15.863 39.687 35.594 39.687h11.5c19.731 0 35.625-17.704 35.625-39.687v-128.25c0-21.984-15.894-39.688-35.625-39.688zm5.938 19.625c11.654 0 21.03 8.81 21.03 19.781V1805.5c0 10.97-9.376 19.813-21.03 19.813s-21.032-8.842-21.032-19.813v-129.969c0-10.97 9.377-19.781 21.031-19.781" style="fill:#000;fill-opacity:1;stroke:none" transform="translate(7496.515 -1888.748)scale(-.15175)"/></g></g><path d="M1697.366 658.472c.015-2.026-1.587-2.064-1.57-.586-.133 7.429-6.416 11.087-10.98 10.219-7.036-1.338-9.282-8.322-9.214-12.435.207-12.697 12.987-22.059 24.52-38.335 8.45 14.69 22.397 26.23 23.223 37.586 1.097 15.098-18.01 20.73-20.737 3.132-.176-1.243-1.64-1.8-1.526-.065.414 4.823-.175 6.832 5.265 18.72h-14.221c3.15-5.555 5.025-12.375 5.24-18.236m55.715 32.665c.015-2.025-1.587-2.064-1.568-.585-.135 7.428-6.417 11.086-10.981 10.218-7.036-1.337-9.282-8.322-9.215-12.435.207-12.696 12.988-22.059 24.52-38.335 8.45 14.691 22.398 26.23 23.223 37.586 1.098 15.098-18.009 20.73-20.737 3.133-.176-1.243-1.64-1.801-1.526-.065.415 4.822-.175 6.831 5.266 18.72h-14.222c3.15-5.556 5.026-12.375 5.24-18.237m55.817-32.665c.015-2.026-1.586-2.064-1.568-.586-.135 7.429-6.417 11.087-10.98 10.219-7.037-1.338-9.283-8.322-9.216-12.435.208-12.697 12.988-22.059 24.52-38.335 8.45 14.69 22.398 26.23 23.223 37.586 1.098 15.098-18.008 20.73-20.736 3.132-.176-1.243-1.64-1.8-1.527-.065.415 4.823-.174 6.832 5.266 18.72h-14.222c3.15-5.555 5.026-12.375 5.24-18.236m0 65.331c.015-2.026-1.586-2.065-1.568-.586-.135 7.428-6.417 11.086-10.98 10.219-7.037-1.338-9.283-8.323-9.216-12.436.208-12.696 12.988-22.058 24.52-38.334 8.45 14.69 22.398 26.23 23.223 37.585 1.098 15.098-18.008 20.73-20.736 3.133-.176-1.243-1.64-1.801-1.527-.065.415 4.823-.174 6.831 5.266 18.72h-14.222c3.15-5.555 5.026-12.375 5.24-18.236m-111.532 0c.015-2.026-1.587-2.065-1.57-.586-.133 7.428-6.416 11.086-10.98 10.219-7.036-1.338-9.282-8.323-9.214-12.436.207-12.696 12.987-22.058 24.52-38.334 8.45 14.69 22.397 26.23 23.223 37.585 1.097 15.098-18.01 20.73-20.737 3.133-.176-1.243-1.64-1.801-1.526-.065.414 4.823-.175 6.831 5.265 18.72h-14.221c3.15-5.555 5.025-12.375 5.24-18.236m111.544 44.134c.014 2.026-1.588 2.064-1.57.586-.134-7.429-6.416-11.087-10.98-10.219-7.036 1.338-9.282 8.322-9.215 12.435.207 12.697 12.988 22.059 24.52 38.335 8.45-14.69 22.398-26.23 23.223-37.586 1.098-15.098-18.009-20.73-20.737-3.132-.176 1.243-1.64 1.8-1.526.065.415-4.823-.175-6.832 5.266-18.72h-14.222c3.15 5.555 5.026 12.375 5.24 18.236m.001 65.331c.014 2.025-1.588 2.064-1.57.585-.134-7.428-6.416-11.086-10.98-10.218-7.036 1.337-9.282 8.322-9.215 12.435.207 12.696 12.988 22.058 24.52 38.335 8.45-14.691 22.398-26.23 23.223-37.586 1.098-15.098-18.009-20.73-20.737-3.133-.176 1.243-1.64 1.801-1.526.065.415-4.822-.175-6.831 5.266-18.72h-14.222c3.15 5.556 5.026 12.375 5.24 18.237m-55.349-32.666c.015 2.026-1.587 2.065-1.57.586-.133-7.429-6.416-11.086-10.98-10.219-7.036 1.338-9.282 8.322-9.214 12.436.207 12.696 12.987 22.058 24.52 38.334 8.45-14.69 22.397-26.23 23.223-37.585 1.097-15.098-18.01-20.73-20.737-3.133-.176 1.243-1.64 1.801-1.526.065.414-4.823-.175-6.831 5.265-18.72h-14.221c3.15 5.555 5.025 12.375 5.24 18.236m-56.184-32.665c.015 2.026-1.587 2.064-1.568.586-.135-7.429-6.417-11.087-10.98-10.219-7.037 1.338-9.283 8.322-9.216 12.435.208 12.697 12.988 22.059 24.52 38.335 8.45-14.69 22.398-26.23 23.223-37.586 1.098-15.098-18.008-20.73-20.736-3.132-.176 1.243-1.64 1.8-1.527.065.415-4.823-.174-6.832 5.266-18.72h-14.222c3.15 5.555 5.026 12.375 5.24 18.236m0 65.331c.015 2.025-1.587 2.064-1.568.585-.135-7.428-6.417-11.086-10.98-10.218-7.037 1.337-9.283 8.322-9.216 12.435.208 12.696 12.988 22.058 24.52 38.335 8.45-14.691 22.398-26.23 23.223-37.586 1.098-15.098-18.008-20.73-20.736-3.133-.176 1.243-1.64 1.801-1.527.065.415-4.822-.174-6.831 5.266-18.72h-14.222c3.15 5.556 5.026 12.375 5.24 18.237m-36.157-173.446c.01-.872-.895-.465-1.018-.19-1.163 1.985-2.865 2.447-4.548 1.731-1.667-.71-2.604-2.28-2.454-4.522.31-3.438 3.036-7.2 4.355-9.326a69 69 0 0 0 4.077-7.154c1.697 3.363 2.559 4.32 4.405 7.391 1.626 2.704 3.893 5.353 4.068 8.622 0 2.485-1.046 4.832-3.4 5.26-1.331.242-2.578-.442-3.503-2.037-.282-.407-.85-.195-.84.362.165 2.093.956 3.983 2.83 6.212h-6.887c1.41-1.576 2.848-3.704 2.915-6.35m188.815 172.746c.01.872-.895.465-1.018.19-1.163-1.985-2.864-2.447-4.548-1.731-1.667.709-2.604 2.28-2.453 4.522.31 3.438 3.035 7.2 4.355 9.326a69 69 0 0 1 4.076 7.154c1.698-3.363 2.559-4.32 4.405-7.391 1.626-2.705 3.893-5.353 4.068-8.623 0-2.485-1.046-4.832-3.4-5.26-1.33-.241-2.578.442-3.503 2.038-.282.406-.849.194-.84-.362.166-2.093.956-3.983 2.83-6.212h-6.887c1.41 1.576 2.849 3.704 2.915 6.35" style="display:inline;fill:#000;fill-opacity:1" transform="translate(-1643.931 -589.453)"/></g></svg>